<svg xmlns="http://www.w3.org/2000/svg" width="1024" viewBox="0 0 768 768" height="1024" version="1.0"><defs><clipPath id="a"><path d="M158.836 153.602h434.809v460.5h-434.81Zm0 0"/></clipPath><clipPath id="b"><path d="M435 402h174.05v31.95H435Zm0 0"/></clipPath></defs><g clip-path="url(#a)"><path fill="#100f0d" d="M353.129 614.152c-10.652 0-20.356-.554-28.48-1.632-14.68-1.961-26.868-5.075-37.626-7.825-13.972-3.574-26.043-6.66-38.386-5.71-26.887 2.058-75.563-3.903-87.399-39.403-6.332-18.984 1.535-41.234 4.496-49.613.27-.746.504-1.422.66-1.895v-11.472c0-21.258 18.618-98.711 53.118-145.903 23.043-31.515 53.937-72.324 70.27-87.738 21.73-20.516 51.484-48.606 59.445-59.777 14.238-19.965 62.957-48.684 84.078-49.563 26.168-1.101 55.86 43.938 59.156 49.074 6.238 9.727-1.5 17.137-5.899 20.989 9.254 2.613 10.899 9.148 11.172 12.007.614 6.567-3.62 13.704-9.441 15.918-3.004 1.145-6.465 2.043-10.473 3.086-7.765 2.024-17.425 4.54-26.886 9.953-23.184 13.27-43.434 12.508-59.715 11.895-3.137-.117-6.09-.215-8.84-.223-4.254.008-8.957.348-11.531 2.774-17.336 16.36-24.918 40.34-32.239 63.531-1.511 4.781-3.074 9.723-4.675 14.434-6.598 19.359-17.438 56.136-18.493 91.187 3.797-2.176 8.844-5.535 9.993-6.57 16.886-15.301 52.046-24.703 69.82-24.703 37.754 0 56.86 15.347 69.496 25.504 4.047 3.253 7.543 6.062 10.21 7.027a4.012 4.012 0 0 1 2.419 5.148 4.02 4.02 0 0 1-5.152 2.418c-3.934-1.422-7.723-4.465-12.52-8.32-11.758-9.45-29.527-23.727-64.453-23.727-18.246 0-50.36 9.883-64.414 22.614-1.254 1.136-5.25 3.883-8.906 6.117-7.594 4.64-9.95 4.976-12.094 3.969-1.578-.739-2.559-2.336-2.535-4.09.011-37.774 11.914-78.348 19.004-99.176 1.574-4.617 3.05-9.3 4.62-14.258 7.637-24.172 15.532-49.164 34.391-66.957 4.621-4.355 11.203-4.957 17.04-4.969 2.894-.02 5.945.106 9.163.227 15.254.574 34.227 1.293 55.41-10.832 10.391-5.953 20.633-8.621 28.856-10.762 3.781-.98 7.047-1.828 9.64-2.82 2.188-.832 4.59-4.426 4.286-7.64-.262-2.801-2.652-4.63-7.11-5.423-1.53-.273-5.609-1-6.578-4.507-.964-3.504 1.766-5.88 4.657-8.387 5.48-4.762 7.39-7.356 5-11.09-10.282-16.016-34.407-46.125-52.047-45.379-19.032.797-64.871 27.996-77.852 46.2-7.773 10.902-33.039 35.054-60.476 60.949-12.57 11.87-36.54 41.832-69.297 86.64-33.836 46.278-51.563 123.004-51.563 141.153v12.074c0 .363-.047.722-.14 1.07-.192.676-.52 1.61-.98 2.906-2.712 7.668-9.911 28.024-4.454 44.383 10.27 30.793 54.582 35.82 79.14 33.926 13.669-1.05 26.34 2.187 41.008 5.937 10.536 2.696 22.48 5.75 36.688 7.641 32.676 4.36 91.66-.105 133.797-15.117 19.11-6.809 35.316-15.934 35.48-16.027a4.023 4.023 0 0 1 3.004-.391c.156.039 15.918 4.113 31.16 4.832 21.078 1 42.063-6.645 57.559-20.965a4.025 4.025 0 0 1 5.687.223 4.022 4.022 0 0 1-.226 5.687c-17.067 15.774-40.164 24.172-63.402 23.098-13.383-.633-26.727-3.61-31.235-4.695-4.445 2.421-18.637 9.87-35.328 15.82-32.824 11.691-75.637 17.148-109.078 17.148"/></g><g clip-path="url(#b)"><path fill="#100f0d" d="M439.309 433.484a4.021 4.021 0 0 1-3.418-1.886 4.023 4.023 0 0 1 1.28-5.543c50.74-31.77 119.044-31.97 169.974-.496a4.026 4.026 0 0 1-4.234 6.848c-48.376-29.9-113.266-29.712-161.466.464a4.009 4.009 0 0 1-2.136.613"/></g><path fill="#100f0d" d="M398.191 569.023c-14.808 0-27.707-2.425-34.91-5.343a4.025 4.025 0 0 1 3.027-7.457c18.31 7.414 75.137 11.039 100.665-24.418a4.026 4.026 0 1 1 6.539 4.699c-15.828 21.976-40.942 29.285-59.227 31.543-5.488.683-10.91.976-16.094.976M212.922 438.824a4.018 4.018 0 0 1-3.91-4.988c5.965-24.172 15.336-40.625 35.82-62.883a4.022 4.022 0 0 1 5.688-.242 4.022 4.022 0 0 1 .238 5.687c-19.696 21.41-28.258 36.391-33.93 59.368a4.032 4.032 0 0 1-3.906 3.058M462.453 232.34c-3.648.004-7.504-.274-11.558-.824-4.696-.641-10.06-1.77-14.23-5.332-4.567-3.899-7.063-11.32-3.337-16.989l.469-.718c2.086-3.223 5.578-8.61 11.348-7.75 1.773.265 3.511.937 5.351 1.652 2.406.93 4.906 1.887 7.184 1.797 2.191-.078 4.093 1.633 4.187 3.851a4.033 4.033 0 0 1-3.851 4.192c-3.938.168-7.543-1.223-10.422-2.332-1.418-.551-2.754-1.063-3.645-1.2-.84.215-2.625 2.981-3.39 4.16l-.5.766c-1.172 1.79-.004 4.883 1.832 6.45 2.59 2.21 6.558 2.996 10.09 3.48 10.417 1.414 19.546.785 26.406-1.82a4.026 4.026 0 0 1 5.195 2.328 4.027 4.027 0 0 1-2.336 5.191c-5.426 2.063-11.719 3.098-18.793 3.098"/><path fill="#100f0d" d="M444.547 208.734a4.035 4.035 0 0 1-3.8-2.695c-.274-.781-.61-1.687-.97-2.668-1.43-3.875-3.218-8.707-3.672-12.187a4.028 4.028 0 0 1 3.473-4.512 4.018 4.018 0 0 1 4.512 3.469c.336 2.59 2.015 7.129 3.242 10.445.375 1.027.727 1.976 1.016 2.793a4.029 4.029 0 0 1-3.801 5.355"/></svg>