<svg xmlns="http://www.w3.org/2000/svg" width="1024" viewBox="0 0 768 768" height="1024" version="1.0"><defs><clipPath id="a"><path d="M155.867 486.305h455.996v33.914H155.867Zm0 0"/></clipPath><clipPath id="b"><path d="M334 247.406h71V386h-71Zm0 0"/></clipPath></defs><path d="M505.566 346.848a4.66 4.66 0 0 0-6.78-.211l-113.974 113.96c-.007.008-.023.008-.035 0L273.29 349.122l13.5-3.582c3.547-.941 3.883-5.836.504-7.258l-45.496-19.097c-3.176-1.332-6.363 1.855-5.031 5.03L255.87 369.7c1.418 3.383 6.316 3.043 7.258-.504l3.578-13.492 114.797 114.785a4.653 4.653 0 0 0 3.293 1.36 4.637 4.637 0 0 0 3.289-1.36l117.152-117.14c1.766-1.762 1.98-4.637.328-6.5"/><g clip-path="url(#a)"><path d="M607.64 486.445H160.09c-2.332 0-4.223 2.301-4.223 5.14 0 2.837 1.89 5.138 4.223 5.138h8.45l17.815 21.687c.59.715 1.36 1.074 2.133 1.074.77 0 1.543-.359 2.133-1.074 1.176-1.437 1.176-3.762 0-5.191l-13.55-16.496h15.597l17.816 21.687c.586.715 1.36 1.074 2.13 1.074.773 0 1.546-.359 2.132-1.074 1.18-1.437 1.18-3.762 0-5.191l-13.55-16.496h18.011l17.813 21.687c.59.715 1.363 1.074 2.132 1.074.774 0 1.547-.359 2.133-1.074 1.18-1.437 1.18-3.762 0-5.191l-13.547-16.496h17.907l17.816 21.687c.59.715 1.36 1.074 2.133 1.074.773 0 1.543-.359 2.133-1.074 1.175-1.437 1.175-3.762 0-5.191l-13.551-16.496h15.597l17.817 21.687c.586.715 1.36 1.074 2.129 1.074.773 0 1.547-.359 2.133-1.074 1.18-1.437 1.18-3.762 0-5.191L278.3 496.723h18.012l17.816 21.687c.586.715 1.36 1.074 2.129 1.074.773 0 1.547-.359 2.133-1.074 1.18-1.437 1.18-3.762 0-5.191l-13.547-16.496h17.808l17.813 21.687c.59.715 1.36 1.074 2.133 1.074.773 0 1.543-.359 2.132-1.074 1.18-1.437 1.18-3.762 0-5.191l-13.55-16.496h15.597l17.817 21.687c.586.715 1.36 1.074 2.133 1.074.77 0 1.543-.359 2.128-1.074 1.18-1.437 1.18-3.762 0-5.191l-13.546-16.496h18.011l17.813 21.687c.59.715 1.363 1.074 2.133 1.074s1.543-.359 2.132-1.074c1.176-1.437 1.176-3.762 0-5.191l-13.55-16.496h17.91l17.812 21.687c.59.715 1.36 1.074 2.133 1.074.774 0 1.543-.359 2.133-1.074 1.18-1.437 1.18-3.762 0-5.191l-13.55-16.496h15.597l17.816 21.687c.586.715 1.36 1.074 2.133 1.074.77 0 1.543-.359 2.129-1.074 1.18-1.437 1.18-3.762 0-5.191l-13.547-16.496h18.012l17.812 21.687c.59.715 1.36 1.074 2.133 1.074.77 0 1.543-.359 2.133-1.074 1.176-1.437 1.176-3.762 0-5.191l-13.55-16.496h16.804l18.418 22.422c.586.714 1.36 1.074 2.133 1.074.77 0 1.543-.36 2.132-1.074 1.176-1.438 1.176-3.762 0-5.192l-14.156-17.23h17.813l18.418 22.422c.586.714 1.359 1.074 2.132 1.074.77 0 1.543-.36 2.13-1.074 1.179-1.438 1.179-3.762 0-5.192l-14.153-17.23h15.598l18.418 22.422c.59.714 1.359 1.074 2.132 1.074.77 0 1.543-.36 2.133-1.074 1.176-1.438 1.176-3.762 0-5.192l-14.152-17.23h18.008l18.418 22.422c.59.714 1.363 1.074 2.133 1.074.773 0 1.542-.36 2.132-1.074 1.176-1.438 1.176-3.762 0-5.192l-14.152-17.23h17.91l18.418 22.422c.586.714 1.36 1.074 2.133 1.074.77 0 1.543-.36 2.129-1.074 1.18-1.438 1.18-3.762 0-5.192l-14.153-17.23h19.91c2.337 0 4.227-2.301 4.227-5.137 0-2.84-1.89-5.14-4.226-5.14"/></g><g clip-path="url(#b)"><path d="M375.816 247.578s8.075 13.43-17.062 46.344c-25.133 32.918-24.211 53.332-24.211 53.332s-1.387 17.469 17.293 27.953c18.68 10.48 43.582 13.422 52.809 6.805 0 0-39.434-15.082-32.516-42.852 6.918-27.765 19.14-55.719 17.988-69.328-1.152-13.61-8.996-19.676-14.3-22.254"/></g><path d="M398.648 267.809s6.227 19.492-8.53 46.527c-14.759 27.031-6.688 41.191-6.688 41.191s3.687 11.036 25.132 19.309c0 0-14.757-16.734-5.765-48.18 8.996-31.445 24.906-43.215-4.149-58.847"/><path d="M422.168 288.223s2.539 18.207-8.3 37.699c-10.837 19.492-5.075 29.605-5.075 29.605s4.613 9.38 11.762 11.77c0 0-5.711-13.973 1.87-25.563 7.587-11.586 20.04-43.765-.257-53.511"/></svg>