<svg xmlns="http://www.w3.org/2000/svg" xmlns:xlink="http://www.w3.org/1999/xlink" width="1024" zoomAndPan="magnify" viewBox="0 0 768 767.999994" height="1024" preserveAspectRatio="xMidYMid meet" version="1.0"><defs><clipPath id="9b3b7578c8"><path d="M 163 433 L 422 433 L 422 621.996094 L 163 621.996094 Z M 163 433 " clip-rule="nonzero"/></clipPath><clipPath id="ac0e589049"><path d="M 304 560 L 368 560 L 368 621.996094 L 304 621.996094 Z M 304 560 " clip-rule="nonzero"/></clipPath></defs><path fill="#100f0d" d="M 347.359375 155.792969 C 333.1875 155.792969 319.421875 163.75 313.695312 175.347656 C 306.328125 190.234375 311.835938 207.925781 319.441406 219.523438 C 327.847656 232.328125 340.421875 242.417969 352.585938 252.175781 L 359.410156 257.640625 C 369.824219 265.949219 381.394531 275.164062 389.335938 286.503906 C 397.257812 275.164062 408.828125 265.949219 419.242188 257.640625 L 426.070312 252.195312 C 438.214844 242.417969 450.804688 232.328125 459.210938 219.523438 C 466.820312 207.925781 472.34375 190.234375 464.960938 175.347656 C 459.121094 163.542969 444.890625 155.535156 430.515625 155.792969 C 414.855469 156.128906 400.234375 170.140625 392.925781 178.46875 C 391.101562 180.53125 387.550781 180.53125 385.726562 178.46875 C 378.417969 170.140625 363.78125 156.128906 348.140625 155.792969 C 347.878906 155.792969 347.617188 155.792969 347.359375 155.792969 Z M 389.335938 300.476562 C 387.53125 300.476562 385.894531 299.476562 385.078125 297.875 C 378.472656 285.070312 365.753906 274.925781 353.441406 265.109375 L 346.59375 259.628906 C 333.855469 249.40625 320.6875 238.832031 311.445312 224.761719 C 302.386719 210.953125 295.949219 189.621094 305.121094 171.109375 C 312.652344 155.851562 329.929688 145.757812 348.324219 146.242188 C 365.195312 146.59375 380.222656 158.824219 389.335938 168.246094 C 398.429688 158.824219 413.457031 146.59375 430.328125 146.242188 C 448.554688 145.738281 466 155.851562 473.535156 171.109375 C 482.703125 189.621094 476.269531 210.953125 467.210938 224.761719 C 457.964844 238.832031 444.796875 249.40625 432.058594 259.648438 L 425.214844 265.109375 C 412.902344 274.925781 400.179688 285.070312 393.578125 297.875 C 392.757812 299.476562 391.121094 300.476562 389.335938 300.476562 " fill-opacity="1" fill-rule="nonzero"/><path fill="#100f0d" d="M 513.519531 458.058594 C 456.8125 458.058594 418.480469 402.507812 417.976562 401.785156 C 410.109375 391.023438 402.375 385.820312 395.15625 386.378906 C 384.222656 387.25 376.558594 400.949219 375.722656 402.492188 C 368.578125 419.71875 359.1875 430.648438 347.765625 434.957031 C 338.710938 438.398438 328.5 437.542969 318.230469 432.503906 C 309.566406 428.25 305.289062 418.25 308.058594 408.753906 L 317.992188 374.632812 C 322.769531 358.277344 334.46875 344.953125 350.074219 338.074219 L 387.679688 321.535156 C 403.117188 314.769531 417.347656 316.851562 433.023438 320.046875 L 529.796875 342.945312 L 597.941406 317.371094 C 600.414062 316.441406 603.1875 317.6875 604.117188 320.160156 C 605.027344 322.632812 603.78125 325.382812 601.308594 326.3125 L 531.785156 352.40625 C 530.910156 352.738281 529.925781 352.792969 529.015625 352.589844 L 430.960938 329.394531 C 414.074219 325.957031 403.285156 325.121094 391.53125 330.289062 L 353.921875 346.828125 C 340.90625 352.554688 331.160156 363.667969 327.179688 377.308594 L 317.226562 411.429688 C 315.796875 416.375 318.027344 421.761719 322.453125 423.9375 C 330.394531 427.824219 337.78125 428.527344 344.382812 426.019531 C 353.273438 422.65625 360.859375 413.4375 366.960938 398.644531 C 367.015625 398.515625 367.054688 398.402344 367.109375 398.289062 C 367.539062 397.472656 377.46875 378.21875 394.339844 376.84375 C 405.125 375.953125 415.726562 382.511719 425.808594 396.285156 C 428.355469 400.039062 486.476562 483.910156 564.855469 431.335938 C 567.050781 429.867188 570.023438 430.460938 571.496094 432.65625 C 572.964844 434.828125 572.386719 437.800781 570.191406 439.269531 C 549.957031 452.855469 530.875 458.058594 513.519531 458.058594 " fill-opacity="1" fill-rule="nonzero"/><path fill="#100f0d" d="M 523.65625 508.964844 C 521.964844 508.964844 520.308594 508.054688 519.453125 506.457031 C 518.191406 504.132812 519.0625 501.234375 521.390625 499.988281 L 597.347656 458.933594 C 599.671875 457.667969 602.574219 458.542969 603.839844 460.867188 C 605.085938 463.1875 604.226562 466.089844 601.902344 467.351562 L 525.925781 508.386719 C 525.203125 508.777344 524.421875 508.964844 523.65625 508.964844 " fill-opacity="1" fill-rule="nonzero"/><path fill="#100f0d" d="M 515.847656 556.09375 C 508.386719 556.09375 501.246094 553.046875 495.984375 547.472656 L 419.558594 466.421875 C 417.738281 464.507812 417.828125 461.480469 419.746094 459.660156 C 421.679688 457.855469 424.710938 457.949219 426.515625 459.863281 L 502.9375 540.910156 C 507.253906 545.464844 513.484375 547.433594 519.640625 546.117188 C 525.777344 544.832031 530.6875 540.519531 532.769531 534.59375 C 534.480469 529.742188 533.625 524.445312 530.484375 520.394531 L 479.019531 467.257812 C 477.179688 465.382812 477.234375 462.351562 479.132812 460.511719 C 481.027344 458.671875 484.0625 458.710938 485.902344 460.625 L 537.515625 513.925781 C 537.625 514.039062 537.738281 514.148438 537.832031 514.261719 C 543.148438 520.933594 544.636719 529.722656 541.792969 537.769531 C 538.59375 546.859375 531.042969 553.476562 521.613281 555.480469 C 519.695312 555.890625 517.761719 556.09375 515.847656 556.09375 " fill-opacity="1" fill-rule="nonzero"/><path fill="#100f0d" d="M 477.679688 583.636719 C 467.359375 583.636719 457.464844 579.476562 450.097656 571.78125 L 385.765625 504.539062 C 383.941406 502.644531 384.015625 499.617188 385.933594 497.792969 C 387.828125 495.972656 390.859375 496.027344 392.683594 497.941406 L 457.019531 565.183594 C 464.085938 572.582031 474.296875 575.609375 484.320312 573.324219 C 494.085938 571.074219 501.730469 564.105469 504.761719 554.664062 L 505.097656 553.605469 C 505.878906 551.078125 508.535156 549.664062 511.066406 550.425781 C 513.597656 551.207031 515.007812 553.882812 514.246094 556.410156 L 513.894531 557.5625 C 509.800781 570.257812 499.554688 579.625 486.460938 582.632812 C 483.539062 583.304688 480.601562 583.636719 477.679688 583.636719 " fill-opacity="1" fill-rule="nonzero"/><path fill="#100f0d" d="M 436.28125 608.261719 C 435.574219 608.261719 434.902344 608.246094 434.234375 608.207031 C 424.488281 607.6875 415.207031 603.023438 408.046875 595.085938 L 354.855469 536.042969 C 353.085938 534.089844 353.234375 531.0625 355.207031 529.296875 C 357.160156 527.53125 360.191406 527.699219 361.957031 529.648438 L 415.152344 588.695312 C 420.527344 594.640625 427.667969 598.285156 434.753906 598.65625 C 446.15625 599.269531 455.976562 593.078125 463.84375 580.199219 C 465.21875 577.933594 468.160156 577.226562 470.410156 578.601562 C 472.660156 579.976562 473.386719 582.933594 472.007812 585.179688 C 460.515625 603.96875 446.601562 608.261719 436.28125 608.261719 " fill-opacity="1" fill-rule="nonzero"/><g clip-path="url(#9b3b7578c8)"><path fill="#100f0d" d="M 395.621094 621.179688 C 388.796875 621.179688 382.136719 618.597656 377.0625 613.726562 L 222.167969 457.613281 L 166.742188 442.652344 C 164.195312 441.964844 162.6875 439.328125 163.378906 436.78125 C 164.066406 434.234375 166.6875 432.730469 169.234375 433.417969 L 225.90625 448.710938 C 226.726562 448.933594 227.46875 449.363281 228.066406 449.976562 L 383.757812 606.90625 C 388.332031 611.292969 395.066406 612.78125 401.277344 610.699219 C 407.191406 608.710938 411.300781 603.933594 412.25 597.910156 L 412.34375 597.371094 C 412.660156 594.753906 415.078125 592.929688 417.679688 593.226562 C 420.304688 593.5625 422.164062 595.960938 421.828125 598.582031 L 421.71875 599.324219 C 420.171875 609.023438 413.683594 616.625 404.308594 619.765625 C 401.460938 620.714844 398.523438 621.179688 395.621094 621.179688 " fill-opacity="1" fill-rule="nonzero"/></g><path fill="#100f0d" d="M 235.914062 542.417969 C 230.667969 542.417969 225.386719 540.671875 220.996094 537.082031 C 216.402344 533.308594 213.59375 527.957031 213.128906 522.011719 C 212.683594 516.0625 214.617188 510.359375 218.578125 505.917969 L 246.402344 475.566406 C 248.1875 473.632812 251.21875 473.484375 253.171875 475.269531 C 255.105469 477.054688 255.238281 480.082031 253.46875 482.035156 L 225.683594 512.328125 C 223.507812 514.761719 222.410156 517.960938 222.671875 521.265625 C 222.929688 524.59375 224.492188 527.566406 227.058594 529.6875 C 232.898438 534.445312 241.363281 533.773438 246.347656 528.144531 C 248.113281 526.15625 251.128906 525.988281 253.097656 527.734375 C 255.089844 529.480469 255.273438 532.511719 253.527344 534.480469 C 248.859375 539.722656 242.40625 542.417969 235.914062 542.417969 " fill-opacity="1" fill-rule="nonzero"/><path fill="#100f0d" d="M 259.253906 577.953125 C 253.304688 577.953125 247.296875 575.871094 242.40625 571.632812 C 237.195312 567.136719 234.070312 560.871094 233.570312 554.015625 C 233.085938 547.15625 235.300781 540.519531 239.800781 535.335938 L 266.265625 506.269531 C 268.035156 504.316406 271.066406 504.167969 273.019531 505.953125 C 274.972656 507.738281 275.121094 510.75 273.335938 512.699219 L 246.960938 541.671875 C 244.191406 544.851562 242.8125 549.03125 243.109375 553.328125 C 243.425781 557.636719 245.398438 561.578125 248.671875 564.402344 C 255.332031 570.164062 265.207031 569.589844 271.160156 563.101562 L 285.535156 547.433594 C 287.320312 545.503906 290.351562 545.371094 292.304688 547.15625 C 294.238281 548.941406 294.371094 551.949219 292.585938 553.902344 L 278.226562 569.570312 C 273.109375 575.125 266.210938 577.953125 259.253906 577.953125 " fill-opacity="1" fill-rule="nonzero"/><path fill="#100f0d" d="M 295.078125 600.382812 C 288.828125 600.382812 282.578125 598.132812 277.667969 593.5625 C 267.417969 584.027344 266.789062 567.878906 276.234375 557.582031 L 298.332031 533.535156 C 300.117188 531.582031 303.148438 531.453125 305.101562 533.234375 C 307.035156 535.019531 307.164062 538.050781 305.378906 540 L 283.285156 564.050781 C 277.371094 570.480469 277.761719 580.589844 284.175781 586.574219 C 290.59375 592.539062 300.730469 592.207031 306.757812 585.832031 L 316.464844 575.515625 C 318.269531 573.601562 321.300781 573.507812 323.234375 575.3125 C 325.152344 577.132812 325.242188 580.164062 323.421875 582.078125 L 313.710938 592.375 C 308.691406 597.707031 301.902344 600.382812 295.078125 600.382812 " fill-opacity="1" fill-rule="nonzero"/><g clip-path="url(#ac0e589049)"><path fill="#100f0d" d="M 329.261719 621.996094 C 323.179688 621.996094 317.078125 619.765625 312.355469 615.25 C 302.664062 606.015625 302.253906 590.589844 311.445312 580.851562 L 329.558594 561.671875 C 331.363281 559.757812 334.394531 559.664062 336.308594 561.464844 C 338.226562 563.289062 338.320312 566.316406 336.515625 568.230469 L 318.398438 587.390625 C 312.820312 593.320312 313.0625 602.726562 318.957031 608.335938 C 324.816406 613.933594 334.207031 613.78125 339.882812 607.984375 L 358.964844 589.492188 C 360.859375 587.671875 363.894531 587.707031 365.734375 589.605469 C 367.574219 591.5 367.519531 594.527344 365.621094 596.367188 L 346.632812 614.769531 C 341.925781 619.5625 335.605469 621.996094 329.261719 621.996094 " fill-opacity="1" fill-rule="nonzero"/></g><path fill="#100f0d" d="M 369.9375 337.835938 C 369.546875 337.835938 369.136719 337.777344 368.746094 337.683594 L 186.867188 291.222656 C 184.300781 290.574219 182.757812 287.953125 183.410156 285.40625 C 184.058594 282.839844 186.683594 281.296875 189.230469 281.949219 L 371.109375 328.410156 C 373.675781 329.082031 375.21875 331.683594 374.570312 334.230469 C 374.011719 336.402344 372.078125 337.835938 369.9375 337.835938 " fill-opacity="1" fill-rule="nonzero"/></svg>