<svg xmlns="http://www.w3.org/2000/svg" width="1024" viewBox="0 0 768 768" height="1024" version="1.0"><defs><clipPath id="a"><path d="M163 433h259v188.996H163Zm0 0"/></clipPath><clipPath id="b"><path d="M304 560h64v61.996h-64Zm0 0"/></clipPath></defs><path fill="#100f0d" d="M347.36 155.793c-14.173 0-27.938 7.957-33.665 19.555-7.367 14.886-1.86 32.578 5.746 44.175 8.407 12.805 20.98 22.895 33.145 32.653l6.824 5.465c10.414 8.308 21.985 17.523 29.926 28.863 7.922-11.34 19.492-20.555 29.906-28.863l6.828-5.446c12.145-9.777 24.735-19.867 33.14-32.672 7.61-11.597 13.134-29.289 5.75-44.175-5.839-11.805-20.07-19.813-34.444-19.555-15.66.336-30.282 14.348-37.59 22.676-1.824 2.062-5.375 2.062-7.2 0-7.308-8.328-21.945-22.34-37.585-22.676h-.782Zm41.976 144.684c-1.805 0-3.441-1-4.258-2.602-6.605-12.805-19.324-22.95-31.637-32.766l-6.847-5.48c-12.739-10.223-25.906-20.797-35.149-34.867-9.058-13.809-15.496-35.14-6.324-53.653 7.531-15.257 24.809-25.351 43.203-24.867 16.871.352 31.899 12.582 41.012 22.004 9.094-9.422 24.121-21.652 40.992-22.004 18.227-.504 35.672 9.61 43.207 24.867 9.168 18.512 2.735 39.844-6.324 53.653-9.246 14.07-22.414 24.644-35.152 34.886l-6.844 5.461c-12.313 9.817-25.035 19.961-31.637 32.766a4.766 4.766 0 0 1-4.242 2.602M513.52 458.059c-56.707 0-95.04-55.551-95.543-56.274-7.868-10.762-15.602-15.965-22.82-15.406-10.934.871-18.598 14.57-19.434 16.113-7.145 17.227-16.536 28.156-27.957 32.465-9.055 3.441-19.266 2.586-29.536-2.453-8.664-4.254-12.94-14.254-10.171-23.75l9.933-34.121c4.778-16.356 16.477-29.68 32.082-36.559l37.606-16.539c15.437-6.765 29.668-4.683 45.343-1.488l96.774 22.898 68.144-25.574c2.473-.93 5.246.317 6.176 2.79a4.798 4.798 0 0 1-2.808 6.151l-69.524 26.094a4.889 4.889 0 0 1-2.77.184l-98.054-23.195c-16.887-3.438-27.676-4.274-39.43.894l-37.61 16.54a47.882 47.882 0 0 0-26.741 30.48l-9.953 34.12c-1.43 4.946.8 10.333 5.226 12.509 7.942 3.886 15.328 4.59 21.93 2.082 8.89-3.364 16.476-12.582 22.578-27.375.055-.13.094-.243.148-.356.43-.816 10.36-20.07 27.23-21.445 10.786-.89 21.388 5.668 31.47 19.441 2.546 3.754 60.668 87.625 139.046 35.05a4.792 4.792 0 0 1 6.641 1.321c1.469 2.172.89 5.145-1.305 6.614-20.234 13.585-39.316 18.789-56.671 18.789M523.656 508.965a4.772 4.772 0 0 1-4.203-2.508 4.758 4.758 0 0 1 1.938-6.469l75.957-41.054c2.324-1.266 5.226-.391 6.492 1.933a4.798 4.798 0 0 1-1.938 6.485l-75.976 41.035a4.77 4.77 0 0 1-2.27.578"/><path fill="#100f0d" d="M515.848 556.094c-7.461 0-14.602-3.047-19.864-8.621l-76.425-81.051c-1.82-1.914-1.73-4.942.187-6.762 1.934-1.805 4.965-1.71 6.77.203l76.421 81.047c4.317 4.555 10.547 6.524 16.704 5.207 6.136-1.285 11.047-5.597 13.129-11.523 1.71-4.852.855-10.149-2.286-14.2l-51.464-53.136c-1.84-1.875-1.786-4.906.113-6.746a4.774 4.774 0 0 1 6.77.113l51.613 53.3c.109.114.222.223.316.337 5.316 6.672 6.805 15.46 3.961 23.508-3.2 9.09-10.75 15.707-20.18 17.71a27.58 27.58 0 0 1-5.765.614"/><path fill="#100f0d" d="M477.68 583.637c-10.32 0-20.215-4.16-27.582-11.856l-64.332-67.242c-1.825-1.894-1.75-4.922.168-6.746a4.769 4.769 0 0 1 6.75.148l64.336 67.243c7.066 7.398 17.277 10.425 27.3 8.14 9.766-2.25 17.41-9.219 20.442-18.66l.336-1.059a4.79 4.79 0 0 1 5.968-3.18 4.806 4.806 0 0 1 3.18 5.985l-.351 1.153c-4.094 12.695-14.34 22.062-27.434 25.07a39.132 39.132 0 0 1-8.781 1.004"/><path fill="#100f0d" d="M436.281 608.262a34.86 34.86 0 0 1-2.047-.055c-9.746-.52-19.027-5.184-26.187-13.121l-53.192-59.043a4.762 4.762 0 0 1 .352-6.746c1.953-1.766 4.984-1.598 6.75.351l53.195 59.047c5.375 5.946 12.516 9.59 19.602 9.961 11.402.614 21.223-5.578 29.09-18.457a4.768 4.768 0 0 1 6.566-1.597c2.25 1.375 2.977 4.332 1.598 6.578-11.492 18.789-25.406 23.082-35.727 23.082"/><g clip-path="url(#a)"><path fill="#100f0d" d="M395.621 621.18a26.745 26.745 0 0 1-18.558-7.453L222.167 457.613l-55.426-14.96a4.787 4.787 0 0 1-3.363-5.872 4.774 4.774 0 0 1 5.855-3.363l56.672 15.293c.82.223 1.563.652 2.16 1.266l155.692 156.93c4.574 4.386 11.308 5.874 17.52 3.792 5.913-1.988 10.023-6.765 10.972-12.789l.094-.539c.316-2.617 2.734-4.441 5.336-4.144a4.791 4.791 0 0 1 4.148 5.355l-.11.742c-1.546 9.7-8.034 17.301-17.41 20.442a27.483 27.483 0 0 1-8.687 1.414"/></g><path fill="#100f0d" d="M235.914 542.418a23.49 23.49 0 0 1-14.918-5.336c-4.594-3.773-7.402-9.125-7.867-15.07-.445-5.95 1.488-11.653 5.45-16.094l27.823-30.352c1.786-1.933 4.817-2.082 6.77-.296a4.819 4.819 0 0 1 .297 6.765l-27.785 30.293a11.942 11.942 0 0 0-3.012 8.938c.258 3.328 1.82 6.3 4.387 8.422 5.84 4.757 14.304 4.085 19.289-1.543a4.777 4.777 0 0 1 6.75-.41 4.77 4.77 0 0 1 .43 6.745c-4.669 5.243-11.122 7.938-17.614 7.938"/><path fill="#100f0d" d="M259.254 577.953c-5.95 0-11.957-2.082-16.848-6.32-5.21-4.496-8.336-10.762-8.836-17.617-.484-6.86 1.73-13.496 6.23-18.68l26.466-29.066a4.773 4.773 0 0 1 6.754-.317c1.953 1.785 2.101 4.797.316 6.746l-26.375 28.973c-2.77 3.18-4.149 7.36-3.852 11.656a16.093 16.093 0 0 0 5.563 11.074c6.66 5.762 16.535 5.188 22.488-1.3l14.375-15.668a4.812 4.812 0 0 1 6.77-.278 4.78 4.78 0 0 1 .28 6.746l-14.358 15.668c-5.118 5.555-12.016 8.383-18.973 8.383"/><path fill="#100f0d" d="M295.078 600.383c-6.25 0-12.5-2.25-17.41-6.82-10.25-9.536-10.879-25.684-1.434-35.981l22.098-24.047a4.795 4.795 0 0 1 6.77-.3 4.804 4.804 0 0 1 .277 6.765l-22.094 24.05c-5.914 6.43-5.523 16.54.89 22.524 6.419 5.965 16.555 5.633 22.583-.742l9.707-10.316c1.805-1.914 4.836-2.008 6.77-.203 1.917 1.82 2.007 4.851.187 6.765l-9.711 10.297c-5.02 5.332-11.809 8.008-18.633 8.008"/><g clip-path="url(#b)"><path fill="#100f0d" d="M329.262 621.996c-6.082 0-12.184-2.23-16.907-6.746-9.69-9.234-10.101-24.66-.91-34.398l18.114-19.18c1.804-1.914 4.836-2.008 6.75-.207 1.918 1.824 2.011 4.851.207 6.765l-18.118 19.16c-5.578 5.93-5.336 15.337.559 20.946 5.86 5.598 15.25 5.445 20.926-.352l19.082-18.492c1.894-1.82 4.93-1.785 6.77.113 1.84 1.895 1.785 4.922-.114 6.762l-18.988 18.403c-4.707 4.793-11.028 7.226-17.371 7.226"/></g><path fill="#100f0d" d="M369.938 337.836c-.391 0-.801-.059-1.192-.152l-181.879-46.461a4.784 4.784 0 1 1 2.363-9.274l181.88 46.461c2.566.672 4.109 3.274 3.46 5.82a4.78 4.78 0 0 1-4.632 3.606"/></svg>