<svg xmlns="http://www.w3.org/2000/svg" width="1024" viewBox="0 0 768 768" height="1024" version="1.0"><defs><clipPath id="a"><path d="M185.027 158.36h398.25v451.5h-398.25Zm0 0"/></clipPath></defs><g clip-path="url(#a)"><path d="M279.516 306.27c2.867 2.796 2.933 7.39.132 10.257l-23.656 24.442c-2.8 2.867-7.394 2.933-10.262.136l-6.964-6.761c-2.868-2.774-2.946-7.356-.168-10.235 2.773-2.867 7.359-2.945 10.238-.168l1.77 1.715 18.636-19.265c2.801-2.852 7.395-2.922 10.274-.121Zm-61.09 50.824v-66.817a7.283 7.283 0 0 1 7.281-7.277h66.832a7.283 7.283 0 0 1 7.281 7.277v66.828a7.28 7.28 0 0 1-7.28 7.278h-66.833a7.288 7.288 0 0 1-7.281-7.29Zm14.558-7.278h52.274v-52.27h-52.274Zm89.707-52.261h160.036a7.28 7.28 0 0 0 7.28-7.278 7.283 7.283 0 0 0-7.28-7.277H322.69a7.283 7.283 0 0 0-7.28 7.277 7.28 7.28 0 0 0 7.28 7.278Zm0 33.414h124.547a7.28 7.28 0 0 0 7.282-7.278 7.283 7.283 0 0 0-7.282-7.277H322.691a7.283 7.283 0 0 0-7.28 7.277 7.28 7.28 0 0 0 7.28 7.278Zm86.204 135.18v22.953c0 3.77-2.922 6.964-6.739 7.246l-22.09 1.68a66.447 66.447 0 0 1-2.214 6.163 66.897 66.897 0 0 1-2.809 5.946l14.098 16.418c2.82 2.843 2.82 7.437-.024 10.27l-16.23 16.23c-2.664 2.64-6.965 2.843-9.867.37l-16.817-14.445a70.269 70.269 0 0 1-5.95 2.801h-.034a70.573 70.573 0 0 1-6.14 2.2l-1.65 21.746a7.28 7.28 0 0 1-7.277 7.086h-22.96a7.273 7.273 0 0 1-7.247-6.739l-1.683-22.094a66.841 66.841 0 0 1-6.164-2.21 71.047 71.047 0 0 1-5.946-2.813l-16.414 14.098c-2.843 2.82-7.437 2.82-10.273-.024l-16.242-16.226c-2.641-2.664-2.844-6.965-.371-9.864l14.449-16.828a62.929 62.929 0 0 1-2.813-5.945 66.441 66.441 0 0 1-2.21-6.16l-21.755-1.649a7.28 7.28 0 0 1-7.085-7.277v-22.953c0-3.77 2.921-6.965 6.738-7.246l22.101-1.684c.61-1.96 1.286-3.89 2.055-5.765l.156-.395a67.518 67.518 0 0 1 2.813-5.945l-14.102-16.422a7.269 7.269 0 0 1 .024-10.27l16.234-16.226c2.664-2.64 6.961-2.844 9.863-.371l16.832 14.445a69.675 69.675 0 0 1 5.575-2.64l.382-.173a69.312 69.312 0 0 1 6.164-2.21l1.649-21.747a7.283 7.283 0 0 1 7.281-7.085h22.957a7.285 7.285 0 0 1 7.25 6.738l1.68 22.094a68.008 68.008 0 0 1 6.164 2.21 71.672 71.672 0 0 1 5.937 2.813l16.422-14.105c2.848-2.825 7.442-2.825 10.274.02l16.23 16.23c2.64 2.66 2.844 6.96.375 9.859l-14.46 16.828a66.985 66.985 0 0 1 2.64 5.563l.168.382a67.693 67.693 0 0 1 2.215 6.164l21.738 1.645c3.953.137 7.102 3.351 7.102 7.312Zm-14.563 6.738-20.496-1.559a7.263 7.263 0 0 1-6.649-6.172 56.357 56.357 0 0 0-2.753-8.531l-.137-.36a55.508 55.508 0 0 0-4.235-8.081 7.265 7.265 0 0 1 .61-8.61l13.41-15.629-6.727-6.726-15.62 13.418a7.258 7.258 0 0 1-8.93.394c-2.551-1.601-5.262-3-8.106-4.176l-.023-.011a56.8 56.8 0 0 0-9.016-2.856 7.246 7.246 0 0 1-5.668-6.543l-1.582-20.504h-9.48l-1.559 20.504a7.262 7.262 0 0 1-6.172 6.645 55.706 55.706 0 0 0-8.523 2.754l-.363.136a55.146 55.146 0 0 0-8.083 4.266 7.294 7.294 0 0 1-8.996-.95l-15.25-13.089-6.726 6.727 13.422 15.617a7.247 7.247 0 0 1 .394 8.926 54.811 54.811 0 0 0-4.176 8.125l-.148.34a54.14 54.14 0 0 0-2.707 8.68 7.25 7.25 0 0 1-6.547 5.663l-20.5 1.578v9.48l20.5 1.56a7.266 7.266 0 0 1 6.649 6.171 54.95 54.95 0 0 0 2.753 8.52c1.254 3 2.72 5.832 4.38 8.441 1.761 2.754 1.41 6.25-.61 8.61l-13.41 15.628 6.726 6.727 15.625-13.418a7.262 7.262 0 0 1 8.614-.61c2.73 1.716 5.55 3.204 8.418 4.391l.023.012a56.43 56.43 0 0 0 9.02 2.852 7.25 7.25 0 0 1 5.668 6.546l1.578 20.504h9.48l1.559-20.504a7.277 7.277 0 0 1 6.176-6.648 54.283 54.283 0 0 0 8.53-2.742 56.097 56.097 0 0 0 8.434-4.41 7.293 7.293 0 0 1 8.996.949l15.25 13.09 6.727-6.727-13.422-15.617a7.252 7.252 0 0 1-.394-8.926 54.44 54.44 0 0 0 4.175-8.125 54.717 54.717 0 0 0 2.868-9.02 7.25 7.25 0 0 1 6.546-5.663l20.5-1.579v-9.468Zm-52.125-23.801c7.3 7.3 11.828 17.39 11.828 28.539 0 11.105-4.515 21.172-11.816 28.496l-.035.031c-7.313 7.305-17.407 11.828-28.512 11.828-11.14 0-21.235-4.515-28.547-11.828-7.305-7.3-11.832-17.386-11.832-28.539 0-11.125 4.527-21.203 11.832-28.504l.031-.035c7.305-7.3 17.395-11.824 28.516-11.824a40.358 40.358 0 0 1 28.535 11.836Zm-2.742 28.539c0-7.121-2.89-13.574-7.563-18.246-4.664-4.66-11.12-7.563-18.254-7.563a25.798 25.798 0 0 0-18.265 7.54 25.821 25.821 0 0 0-7.54 18.257c0 7.121 2.891 13.578 7.563 18.25 4.676 4.672 11.121 7.559 18.254 7.559 7.145 0 13.602-2.875 18.25-7.527l.035-.032c4.64-4.64 7.52-11.093 7.52-18.238Zm202.996 5.34-59.633 61.625-13.906-13.453c-2.867-2.774-7.461-2.696-10.238.172-2.778 2.863-2.696 7.457.171 10.234l19.11 18.484c2.867 2.778 7.46 2.696 10.238-.168l64.668-66.828c2.774-2.867 2.695-7.46-.172-10.238-2.879-2.773-7.46-2.695-10.238.172Zm40.695-22.254v77.48h-.023v.168c-1.38 51.38-35.266 60.34-68.168 69.04l-5.563 1.492a7.16 7.16 0 0 1-.816.214l-1.352.36a7.212 7.212 0 0 1-3.918.012l-.87-.239H192.483c-4.015 0-7.28-3.261-7.28-7.277l.034-.664.532-384.957a7.245 7.245 0 0 1 7.246-7.242v-.036h66.293V196.84a7.283 7.283 0 0 1 7.28-7.278h44.36a50.677 50.677 0 0 1 16.266-21.058c8.422-6.363 18.875-10.145 30.164-10.145 11.285 0 21.75 3.782 30.172 10.145a50.593 50.593 0 0 1 16.265 21.047h44.36a7.283 7.283 0 0 1 7.281 7.277v12.223h66.293a7.283 7.283 0 0 1 7.281 7.277v222.285c2.403 1.2 4.922 2.348 7.528 3.465 13.636 5.824 28.941 10.137 39.609 11.356 3.883.156 6.988 3.359 6.988 7.277ZM327.262 189.562h60.242a35.969 35.969 0 0 0-8.715-9.457c-5.96-4.503-13.387-7.187-21.402-7.187a35.419 35.419 0 0 0-21.41 7.187 35.788 35.788 0 0 0-8.715 9.458Zm-53.39 14.56v24.44h167.023v-24.441Zm-74.13 390.573h259.031c-17.382-9.254-30.351-24.636-31.378-55.601l-.055-.914V460.7c.012-3.669 2.777-6.829 6.512-7.223 10.687-1.141 26.242-5.497 40.082-11.399 11.289-4.816 21.144-10.504 25.59-16l.43-.508.316-.316a7.107 7.107 0 0 1 1.953-1.309l.203-.09a7.23 7.23 0 0 1 2.808-.566c.95 0 1.899.184 2.801.555l.227.101c.71.328 1.363.754 1.953 1.309.281.258.496.531.754.824.937 1.152 2.12 2.324 3.5 3.488V223.621h-59.012v12.219a7.284 7.284 0 0 1-7.281 7.281H266.59a7.158 7.158 0 0 1-3.465-.883 7.275 7.275 0 0 1-3.816-6.398V223.62h-59.047Zm368.875-56.504-.023-71.207c-11.242-1.996-25.207-6.195-37.711-11.53a146.42 146.42 0 0 1-11.863-5.688 7.073 7.073 0 0 1-1.446-.793c-4.664-2.594-8.875-5.36-12.328-8.227-6.523 5.418-15.7 10.473-25.633 14.707-12.508 5.336-26.472 9.535-37.715 11.531l-.011 71.567c1.324 39.996 29.746 47.511 57.332 54.812l4.988 1.332h2.066l4.989-1.332c27.691-7.324 56.191-14.863 57.355-55.172Zm0 0"/></g></svg>