<svg xmlns="http://www.w3.org/2000/svg" width="1024" viewBox="0 0 768 768" height="1024" version="1.0"><defs><clipPath id="a"><path d="M170 513h466.965v18H170Zm0 0"/></clipPath></defs><g clip-path="url(#a)"><path d="M170.965 513.29h466v17.273h-466Zm0 0"/></g><path d="m190.18 528.023 12.203-12.214 27.035 27.054-12.207 12.215ZM233.285 528.055l12.203-12.215 27.032 27.055-12.204 12.214ZM276.477 528.008l12.203-12.215 27.035 27.055-12.207 12.215ZM319.59 528.043l12.203-12.215 27.035 27.055-12.207 12.215ZM362.785 528.004l12.203-12.215 27.035 27.055-12.207 12.215ZM405.89 528.035l12.204-12.215 27.031 27.055-12.203 12.215ZM449.09 527.992l12.207-12.215 27.031 27.055-12.203 12.215ZM492.2 528.031l12.202-12.215 27.032 27.055-12.204 12.215ZM535.313 528.066l12.203-12.214 27.03 27.054-12.202 12.215ZM578.508 528.023l12.203-12.214 27.031 27.058-12.203 12.211ZM403.965 497.484 217.996 373.63a8.438 8.438 0 0 1-1.48-1.004 8.635 8.635 0 0 1-2.192-2.813 8.704 8.704 0 0 1-.617-1.683 8.824 8.824 0 0 1-.254-1.777 8.596 8.596 0 0 1 .602-3.516 8.543 8.543 0 0 1 .828-1.59 8.592 8.592 0 0 1 2.54-2.5 8.42 8.42 0 0 1 1.6-.805 8.249 8.249 0 0 1 1.73-.457 8.578 8.578 0 0 1 1.79-.09 8.441 8.441 0 0 1 1.77.282 8.599 8.599 0 0 1 1.671.644c.536.27 1.04.594 1.504.973l176.907 117.98 183.207-98.632a8.665 8.665 0 0 1 1.586-.782 8.627 8.627 0 0 1 1.707-.437 8.486 8.486 0 0 1 3.508.195 8.609 8.609 0 0 1 3.14 1.574c.46.372.883.782 1.262 1.235.379.457.707.945.988 1.465.277.523.5 1.07.668 1.636.164.567.273 1.149.32 1.739a8.737 8.737 0 0 1-.434 3.488 8.772 8.772 0 0 1-.738 1.605c-.3.508-.652.98-1.05 1.418a8.584 8.584 0 0 1-2.844 2.063Zm0 0"/><path d="M628.332 366.46a209.426 209.426 0 0 0-20.512 26.981 209.505 209.505 0 0 0-15.902 29.938l-5.094-34.547-25.886-23.32a204.802 204.802 0 0 0 33.66 3.258c11.308.16 22.554-.61 33.734-2.31ZM316.977 497.57 148.613 373.457a8.658 8.658 0 0 1-2.281-2.484 8.47 8.47 0 0 1-.738-1.528 8.731 8.731 0 0 1-.426-1.64 8.745 8.745 0 0 1-.094-1.692c.02-.566.098-1.129.235-1.68.132-.55.316-1.085.554-1.601a8.686 8.686 0 0 1 3.34-3.75 8.563 8.563 0 0 1 3.164-1.164 8.75 8.75 0 0 1 1.692-.102 8.659 8.659 0 0 1 4.738 1.649l159.562 117.723 182.946-98.547a8.665 8.665 0 0 1 1.586-.782 8.595 8.595 0 0 1 1.71-.437 8.486 8.486 0 0 1 3.504.195c.575.153 1.125.36 1.653.625a8.733 8.733 0 0 1 1.488.95 8.769 8.769 0 0 1 2.25 2.699c.277.523.5 1.07.668 1.636.168.567.274 1.149.32 1.739.051.59.036 1.18-.039 1.765a8.468 8.468 0 0 1-.394 1.723 8.772 8.772 0 0 1-.739 1.605c-.3.508-.652.98-1.05 1.418a8.584 8.584 0 0 1-2.844 2.063Zm0 0"/><path d="M542.04 366.46a209.455 209.455 0 0 0-20.517 26.981 209.505 209.505 0 0 0-15.902 29.938l-5.09-34.547-25.89-23.32a204.843 204.843 0 0 0 33.66 3.258c11.308.16 22.554-.61 33.738-2.31ZM403.965 375.098c-1.98 0-3.953-.098-5.922-.29a60.613 60.613 0 0 1-11.613-2.312 60.439 60.439 0 0 1-10.941-4.535 61.445 61.445 0 0 1-5.087-3.05 60.787 60.787 0 0 1-4.761-3.536 61.46 61.46 0 0 1-4.391-3.984 61.378 61.378 0 0 1-3.98-4.395 60.803 60.803 0 0 1-3.532-4.766 60.51 60.51 0 0 1-9.89-27.664 60.063 60.063 0 0 1-.29-5.925c0-30.66 48.153-93.282 53.59-100.364l6.817-8.636 6.816 8.636c5.438 7.082 53.59 69.703 53.59 100.364 0 1.98-.098 3.953-.289 5.925a60.692 60.692 0 0 1-4.309 17.211 60.51 60.51 0 0 1-13.093 19.614 60.687 60.687 0 0 1-14.239 10.57 60.439 60.439 0 0 1-16.691 5.976 60.613 60.613 0 0 1-5.863.872c-1.969.191-3.946.289-5.922.289Zm0-141.125c-18.985 25.91-43.149 64.086-43.149 80.668 0 1.414.07 2.824.207 4.23.141 1.41.348 2.805.622 4.195a43.885 43.885 0 0 0 1.03 4.11c.41 1.351.884 2.683 1.427 3.988a42.864 42.864 0 0 0 3.988 7.469 43.727 43.727 0 0 0 2.52 3.402 43.318 43.318 0 0 0 5.98 5.988 43.775 43.775 0 0 0 3.402 2.524 43.803 43.803 0 0 0 3.633 2.18 43.308 43.308 0 0 0 3.828 1.808 42.437 42.437 0 0 0 3.985 1.43c1.355.41 2.722.754 4.109 1.031 1.387.274 2.781.48 4.187.621 1.407.137 2.817.207 4.23.207 1.415 0 2.825-.07 4.231-.207 1.407-.14 2.801-.347 4.188-.62a43.504 43.504 0 0 0 4.105-1.032 42.117 42.117 0 0 0 3.989-1.43 43.308 43.308 0 0 0 3.828-1.808 43.803 43.803 0 0 0 3.632-2.18 43.71 43.71 0 0 0 3.399-2.524 42.506 42.506 0 0 0 3.137-2.847c1-1 1.949-2.047 2.843-3.14a42.793 42.793 0 0 0 4.7-7.04 42.896 42.896 0 0 0 3.238-7.82c.41-1.356.754-2.723 1.031-4.11.274-1.39.48-2.785.621-4.195.137-1.406.207-2.816.207-4.23 0-16.582-24.164-55.02-43.148-80.668ZM265.89 314.64c-1.976 0-3.952-.097-5.921-.292a60.642 60.642 0 0 1-17.195-4.309 60.472 60.472 0 0 1-15.204-9.121 60.687 60.687 0 0 1-4.394-3.984 60.607 60.607 0 0 1-10.559-14.254 60.114 60.114 0 0 1-4.531-10.95 60.72 60.72 0 0 1-2.313-11.625 61.224 61.224 0 0 1-.289-5.925c0-30.66 48.153-93.278 53.59-100.36l6.817-8.636 6.816 8.636c5.438 7.082 53.59 69.7 53.59 100.36a60.591 60.591 0 0 1-4.598 23.137 59.995 59.995 0 0 1-2.535 5.363 59.797 59.797 0 0 1-3.047 5.09 60.607 60.607 0 0 1-7.512 9.164 60.687 60.687 0 0 1-9.152 7.515 60.387 60.387 0 0 1-33.562 10.192Zm0-141.128c-18.984 25.91-43.148 64.086-43.148 80.668 0 1.414.07 2.828.207 4.234.14 1.406.348 2.805.621 4.191a43.622 43.622 0 0 0 4.266 11.934 43.803 43.803 0 0 0 4.7 7.04 44.244 44.244 0 0 0 2.843 3.14c1 1 2.047 1.949 3.14 2.844a43.025 43.025 0 0 0 3.399 2.527 42.716 42.716 0 0 0 3.633 2.176 42.263 42.263 0 0 0 3.828 1.812 42.117 42.117 0 0 0 3.988 1.43c1.352.41 2.719.754 4.106 1.027 1.386.277 2.78.485 4.187.621a42.49 42.49 0 0 0 8.461 0c1.406-.136 2.8-.344 4.188-.62a42.318 42.318 0 0 0 4.105-1.028 42.117 42.117 0 0 0 3.988-1.43 42.263 42.263 0 0 0 3.828-1.812 42.716 42.716 0 0 0 3.633-2.176 43.025 43.025 0 0 0 3.399-2.527 42.43 42.43 0 0 0 3.14-2.844c.996-1 1.946-2.047 2.844-3.14a43.792 43.792 0 0 0 4.7-7.04 42.863 42.863 0 0 0 1.808-3.832 42.484 42.484 0 0 0 1.426-3.988c.41-1.356.754-2.727 1.03-4.114.274-1.386.481-2.785.622-4.19.137-1.407.207-2.821.207-4.235 0-16.582-24.164-55.016-43.148-80.668ZM550.668 314.64c-1.98 0-3.953-.097-5.922-.292a60.346 60.346 0 0 1-11.613-2.313 60.039 60.039 0 0 1-10.942-4.535 60.74 60.74 0 0 1-9.848-6.582 61.46 61.46 0 0 1-4.39-3.984 60.607 60.607 0 0 1-10.558-14.254 60.114 60.114 0 0 1-4.531-10.95 60.72 60.72 0 0 1-2.313-11.625 60.005 60.005 0 0 1-.29-5.925c0-30.66 48.153-93.278 53.59-100.36l6.817-8.636 6.816 8.636c5.438 7.082 53.59 69.7 53.59 100.36 0 1.98-.097 3.957-.289 5.925a60.591 60.591 0 0 1-4.308 17.211 60.834 60.834 0 0 1-5.582 10.453 60.607 60.607 0 0 1-7.512 9.164 60.687 60.687 0 0 1-4.395 3.985 60.016 60.016 0 0 1-4.761 3.531 60.32 60.32 0 0 1-10.442 5.59 60.642 60.642 0 0 1-17.195 4.309 59.988 59.988 0 0 1-5.922.293Zm0-141.128c-18.984 25.91-43.148 64.086-43.148 80.668 0 1.414.07 2.828.207 4.234.14 1.406.347 2.805.62 4.191a43.963 43.963 0 0 0 1.032 4.114c.41 1.351.883 2.683 1.426 3.988a42.863 42.863 0 0 0 1.808 3.832 43.803 43.803 0 0 0 4.7 7.04 43.174 43.174 0 0 0 5.98 5.984 42.716 42.716 0 0 0 7.035 4.703 42.263 42.263 0 0 0 3.828 1.812 42.437 42.437 0 0 0 8.094 2.457c1.387.277 2.781.485 4.188.621a42.49 42.49 0 0 0 8.46 0c1.407-.136 2.801-.344 4.188-.62a42.318 42.318 0 0 0 4.105-1.028 42.51 42.51 0 0 0 3.989-1.43 42.263 42.263 0 0 0 3.828-1.812 42.716 42.716 0 0 0 3.633-2.176 43.758 43.758 0 0 0 6.535-5.371 42.857 42.857 0 0 0 5.367-6.547 42.716 42.716 0 0 0 2.176-3.633 42.896 42.896 0 0 0 3.238-7.82c.41-1.356.754-2.727 1.031-4.114.274-1.386.48-2.785.621-4.19.137-1.407.207-2.821.207-4.235 0-16.582-24.164-55.016-43.148-80.668Zm0 0"/></svg>