<svg xmlns="http://www.w3.org/2000/svg" xmlns:xlink="http://www.w3.org/1999/xlink" width="1024" zoomAndPan="magnify" viewBox="0 0 768 767.999994" height="1024" preserveAspectRatio="xMidYMid meet" version="1.0"><defs><clipPath id="782d2d271b"><path d="M 170 513 L 636.964844 513 L 636.964844 531 L 170 531 Z M 170 513 " clip-rule="nonzero"/></clipPath></defs><g clip-path="url(#782d2d271b)"><path fill="#000000" d="M 170.964844 513.289062 L 636.964844 513.289062 L 636.964844 530.5625 L 170.964844 530.5625 Z M 170.964844 513.289062 " fill-opacity="1" fill-rule="nonzero"/></g><path fill="#000000" d="M 190.179688 528.023438 L 202.382812 515.808594 L 229.417969 542.863281 L 217.210938 555.078125 Z M 190.179688 528.023438 " fill-opacity="1" fill-rule="nonzero"/><path fill="#000000" d="M 233.285156 528.054688 L 245.488281 515.839844 L 272.519531 542.894531 L 260.316406 555.109375 Z M 233.285156 528.054688 " fill-opacity="1" fill-rule="nonzero"/><path fill="#000000" d="M 276.476562 528.007812 L 288.679688 515.792969 L 315.714844 542.847656 L 303.507812 555.0625 Z M 276.476562 528.007812 " fill-opacity="1" fill-rule="nonzero"/><path fill="#000000" d="M 319.589844 528.042969 L 331.792969 515.828125 L 358.828125 542.882812 L 346.621094 555.097656 Z M 319.589844 528.042969 " fill-opacity="1" fill-rule="nonzero"/><path fill="#000000" d="M 362.785156 528.003906 L 374.988281 515.789062 L 402.023438 542.84375 L 389.816406 555.058594 Z M 362.785156 528.003906 " fill-opacity="1" fill-rule="nonzero"/><path fill="#000000" d="M 405.890625 528.035156 L 418.09375 515.820312 L 445.125 542.875 L 432.921875 555.089844 Z M 405.890625 528.035156 " fill-opacity="1" fill-rule="nonzero"/><path fill="#000000" d="M 449.089844 527.992188 L 461.296875 515.777344 L 488.328125 542.832031 L 476.125 555.046875 Z M 449.089844 527.992188 " fill-opacity="1" fill-rule="nonzero"/><path fill="#000000" d="M 492.199219 528.03125 L 504.402344 515.816406 L 531.433594 542.871094 L 519.230469 555.085938 Z M 492.199219 528.03125 " fill-opacity="1" fill-rule="nonzero"/><path fill="#000000" d="M 535.3125 528.066406 L 547.515625 515.851562 L 574.546875 542.90625 L 562.34375 555.121094 Z M 535.3125 528.066406 " fill-opacity="1" fill-rule="nonzero"/><path fill="#000000" d="M 578.507812 528.023438 L 590.710938 515.808594 L 617.742188 542.867188 L 605.539062 555.078125 Z M 578.507812 528.023438 " fill-opacity="1" fill-rule="nonzero"/><path fill="#000000" d="M 403.964844 497.484375 L 217.996094 373.628906 C 217.46875 373.347656 216.972656 373.011719 216.515625 372.625 C 216.054688 372.234375 215.640625 371.804688 215.273438 371.332031 C 214.902344 370.859375 214.585938 370.351562 214.324219 369.8125 C 214.058594 369.269531 213.855469 368.710938 213.707031 368.128906 C 213.5625 367.542969 213.476562 366.953125 213.453125 366.351562 C 213.429688 365.753906 213.46875 365.15625 213.570312 364.5625 C 213.671875 363.972656 213.832031 363.394531 214.054688 362.835938 C 214.273438 362.277344 214.550781 361.75 214.882812 361.246094 C 215.214844 360.746094 215.59375 360.285156 216.019531 359.863281 C 216.449219 359.441406 216.914062 359.070312 217.421875 358.746094 C 217.925781 358.421875 218.460938 358.152344 219.023438 357.941406 C 219.582031 357.726562 220.160156 357.574219 220.753906 357.484375 C 221.347656 357.390625 221.945312 357.363281 222.542969 357.394531 C 223.144531 357.425781 223.734375 357.519531 224.3125 357.675781 C 224.890625 357.832031 225.449219 358.046875 225.984375 358.320312 C 226.519531 358.589844 227.023438 358.914062 227.488281 359.292969 L 404.394531 477.273438 L 587.601562 378.640625 C 588.105469 378.324219 588.632812 378.066406 589.1875 377.859375 C 589.742188 377.65625 590.3125 377.507812 590.894531 377.421875 C 591.480469 377.332031 592.070312 377.304688 592.660156 377.335938 C 593.25 377.371094 593.832031 377.460938 594.402344 377.617188 C 594.976562 377.769531 595.523438 377.976562 596.054688 378.242188 C 596.582031 378.507812 597.078125 378.824219 597.542969 379.191406 C 598.003906 379.5625 598.425781 379.972656 598.804688 380.425781 C 599.183594 380.882812 599.511719 381.371094 599.792969 381.890625 C 600.070312 382.414062 600.292969 382.960938 600.460938 383.527344 C 600.625 384.09375 600.734375 384.675781 600.78125 385.265625 C 600.828125 385.855469 600.816406 386.445312 600.742188 387.03125 C 600.667969 387.617188 600.539062 388.191406 600.347656 388.753906 C 600.15625 389.3125 599.910156 389.847656 599.609375 390.359375 C 599.308594 390.867188 598.957031 391.339844 598.558594 391.777344 C 598.160156 392.214844 597.722656 392.609375 597.242188 392.957031 C 596.761719 393.304688 596.253906 393.597656 595.714844 393.839844 Z M 403.964844 497.484375 " fill-opacity="1" fill-rule="nonzero"/><path fill="#000000" d="M 628.332031 366.460938 C 620.765625 374.898438 613.929688 383.894531 607.820312 393.441406 C 601.710938 402.992188 596.410156 412.96875 591.917969 423.378906 L 586.824219 388.832031 L 560.9375 365.511719 C 572.066406 367.523438 583.285156 368.613281 594.597656 368.769531 C 605.90625 368.929688 617.152344 368.160156 628.332031 366.460938 Z M 628.332031 366.460938 " fill-opacity="1" fill-rule="nonzero"/><path fill="#000000" d="M 316.976562 497.570312 L 148.613281 373.457031 C 148.15625 373.121094 147.734375 372.746094 147.351562 372.328125 C 146.964844 371.910156 146.625 371.457031 146.332031 370.972656 C 146.035156 370.488281 145.789062 369.980469 145.59375 369.445312 C 145.398438 368.914062 145.257812 368.367188 145.167969 367.804688 C 145.082031 367.246094 145.050781 366.679688 145.074219 366.113281 C 145.09375 365.546875 145.171875 364.984375 145.308594 364.433594 C 145.441406 363.882812 145.625 363.347656 145.863281 362.832031 C 146.101562 362.316406 146.390625 361.828125 146.722656 361.371094 C 147.058594 360.910156 147.433594 360.488281 147.851562 360.105469 C 148.265625 359.71875 148.71875 359.378906 149.203125 359.082031 C 149.6875 358.785156 150.195312 358.539062 150.726562 358.34375 C 151.257812 358.148438 151.804688 358.003906 152.367188 357.917969 C 152.925781 357.828125 153.492188 357.796875 154.058594 357.816406 C 154.625 357.839844 155.183594 357.917969 155.734375 358.050781 C 156.289062 358.183594 156.820312 358.371094 157.335938 358.609375 C 157.851562 358.84375 158.339844 359.132812 158.796875 359.464844 L 318.359375 477.1875 L 501.304688 378.640625 C 501.808594 378.324219 502.335938 378.066406 502.890625 377.859375 C 503.445312 377.65625 504.015625 377.507812 504.601562 377.421875 C 505.183594 377.332031 505.773438 377.304688 506.363281 377.335938 C 506.953125 377.371094 507.535156 377.460938 508.105469 377.617188 C 508.679688 377.769531 509.230469 377.976562 509.757812 378.242188 C 510.285156 378.507812 510.78125 378.824219 511.246094 379.191406 C 511.710938 379.5625 512.128906 379.972656 512.507812 380.425781 C 512.886719 380.882812 513.21875 381.371094 513.496094 381.890625 C 513.773438 382.414062 513.996094 382.960938 514.164062 383.527344 C 514.332031 384.09375 514.4375 384.675781 514.484375 385.265625 C 514.535156 385.855469 514.519531 386.445312 514.445312 387.03125 C 514.375 387.617188 514.242188 388.191406 514.050781 388.753906 C 513.859375 389.3125 513.613281 389.847656 513.3125 390.359375 C 513.011719 390.867188 512.660156 391.339844 512.261719 391.777344 C 511.863281 392.214844 511.425781 392.609375 510.945312 392.957031 C 510.46875 393.304688 509.957031 393.597656 509.417969 393.839844 Z M 316.976562 497.570312 " fill-opacity="1" fill-rule="nonzero"/><path fill="#000000" d="M 542.039062 366.460938 C 534.472656 374.898438 527.632812 383.894531 521.523438 393.441406 C 515.414062 402.992188 510.113281 412.96875 505.621094 423.378906 L 500.53125 388.832031 L 474.640625 365.511719 C 485.769531 367.523438 496.992188 368.613281 508.300781 368.769531 C 519.609375 368.929688 530.855469 368.160156 542.039062 366.460938 Z M 542.039062 366.460938 " fill-opacity="1" fill-rule="nonzero"/><path fill="#000000" d="M 403.964844 375.097656 C 401.984375 375.097656 400.011719 375 398.042969 374.808594 C 396.074219 374.613281 394.121094 374.324219 392.179688 373.9375 C 390.238281 373.550781 388.324219 373.070312 386.429688 372.496094 C 384.535156 371.921875 382.675781 371.253906 380.847656 370.496094 C 379.019531 369.738281 377.234375 368.894531 375.488281 367.960938 C 373.742188 367.027344 372.050781 366.007812 370.402344 364.910156 C 368.757812 363.808594 367.171875 362.632812 365.640625 361.375 C 364.113281 360.117188 362.648438 358.789062 361.25 357.390625 C 359.851562 355.988281 358.523438 354.523438 357.269531 352.996094 C 356.015625 351.464844 354.835938 349.875 353.738281 348.230469 C 352.636719 346.582031 351.621094 344.886719 350.691406 343.140625 C 349.757812 341.394531 348.914062 339.605469 348.15625 337.777344 C 347.398438 335.945312 346.734375 334.085938 346.160156 332.191406 C 345.582031 330.296875 345.105469 328.375 344.71875 326.433594 C 344.332031 324.492188 344.042969 322.535156 343.847656 320.566406 C 343.652344 318.59375 343.558594 316.621094 343.558594 314.640625 C 343.558594 283.980469 391.710938 221.359375 397.148438 214.277344 L 403.964844 205.640625 L 410.78125 214.277344 C 416.21875 221.359375 464.371094 283.980469 464.371094 314.640625 C 464.371094 316.621094 464.273438 318.59375 464.082031 320.566406 C 463.886719 322.535156 463.597656 324.492188 463.210938 326.433594 C 462.824219 328.375 462.34375 330.296875 461.769531 332.191406 C 461.195312 334.085938 460.53125 335.945312 459.773438 337.777344 C 459.015625 339.605469 458.171875 341.394531 457.238281 343.140625 C 456.304688 344.886719 455.289062 346.582031 454.191406 348.230469 C 453.09375 349.875 451.914062 351.464844 450.660156 352.996094 C 449.40625 354.523438 448.078125 355.988281 446.679688 357.390625 C 445.28125 358.789062 443.816406 360.117188 442.285156 361.375 C 440.757812 362.632812 439.167969 363.808594 437.523438 364.910156 C 435.878906 366.007812 434.183594 367.027344 432.441406 367.960938 C 430.695312 368.894531 428.910156 369.738281 427.082031 370.496094 C 425.253906 371.253906 423.394531 371.921875 421.5 372.496094 C 419.605469 373.070312 417.691406 373.550781 415.75 373.9375 C 413.808594 374.324219 411.855469 374.613281 409.886719 374.808594 C 407.917969 375 405.941406 375.097656 403.964844 375.097656 Z M 403.964844 233.972656 C 384.980469 259.882812 360.816406 298.058594 360.816406 314.640625 C 360.816406 316.054688 360.886719 317.464844 361.023438 318.871094 C 361.164062 320.28125 361.371094 321.675781 361.644531 323.066406 C 361.921875 324.453125 362.265625 325.820312 362.675781 327.175781 C 363.085938 328.527344 363.558594 329.859375 364.101562 331.164062 C 364.640625 332.472656 365.246094 333.75 365.910156 334.996094 C 366.578125 336.246094 367.304688 337.457031 368.089844 338.632812 C 368.875 339.808594 369.714844 340.941406 370.609375 342.035156 C 371.507812 343.128906 372.453125 344.175781 373.453125 345.175781 C 374.453125 346.175781 375.5 347.125 376.589844 348.023438 C 377.683594 348.917969 378.816406 349.761719 379.992188 350.546875 C 381.167969 351.332031 382.378906 352.058594 383.625 352.726562 C 384.871094 353.390625 386.148438 353.996094 387.453125 354.535156 C 388.757812 355.078125 390.085938 355.554688 391.4375 355.964844 C 392.792969 356.375 394.160156 356.71875 395.546875 356.996094 C 396.933594 357.269531 398.328125 357.476562 399.734375 357.617188 C 401.140625 357.753906 402.550781 357.824219 403.964844 357.824219 C 405.378906 357.824219 406.789062 357.753906 408.195312 357.617188 C 409.601562 357.476562 410.996094 357.269531 412.382812 356.996094 C 413.769531 356.71875 415.136719 356.375 416.488281 355.964844 C 417.84375 355.554688 419.171875 355.078125 420.476562 354.535156 C 421.78125 353.996094 423.058594 353.390625 424.304688 352.726562 C 425.550781 352.058594 426.761719 351.332031 427.9375 350.546875 C 429.109375 349.761719 430.246094 348.917969 431.335938 348.023438 C 432.429688 347.125 433.476562 346.175781 434.472656 345.175781 C 435.472656 344.175781 436.421875 343.128906 437.316406 342.035156 C 438.214844 340.941406 439.054688 339.808594 439.839844 338.632812 C 440.625 337.457031 441.351562 336.242188 442.015625 334.996094 C 442.683594 333.75 443.285156 332.472656 443.828125 331.164062 C 444.367188 329.859375 444.84375 328.527344 445.253906 327.175781 C 445.664062 325.820312 446.007812 324.453125 446.285156 323.066406 C 446.558594 321.675781 446.765625 320.28125 446.90625 318.871094 C 447.042969 317.464844 447.113281 316.054688 447.113281 314.640625 C 447.113281 298.058594 422.949219 259.621094 403.964844 233.972656 Z M 403.964844 233.972656 " fill-opacity="1" fill-rule="nonzero"/><path fill="#000000" d="M 265.890625 314.640625 C 263.914062 314.640625 261.9375 314.542969 259.96875 314.347656 C 258 314.15625 256.046875 313.863281 254.105469 313.476562 C 252.164062 313.089844 250.25 312.609375 248.355469 312.035156 C 246.460938 311.460938 244.601562 310.796875 242.773438 310.039062 C 240.945312 309.28125 239.160156 308.433594 237.414062 307.5 C 235.671875 306.566406 233.976562 305.550781 232.332031 304.449219 C 230.683594 303.351562 229.097656 302.171875 227.570312 300.917969 C 226.039062 299.660156 224.574219 298.332031 223.175781 296.933594 C 221.777344 295.53125 220.449219 294.066406 219.195312 292.535156 C 217.941406 291.003906 216.761719 289.417969 215.664062 287.769531 C 214.566406 286.125 213.550781 284.425781 212.617188 282.679688 C 211.683594 280.933594 210.839844 279.148438 210.082031 277.316406 C 209.324219 275.488281 208.660156 273.625 208.085938 271.730469 C 207.511719 269.835938 207.03125 267.917969 206.644531 265.976562 C 206.257812 264.035156 205.96875 262.078125 205.773438 260.105469 C 205.582031 258.136719 205.484375 256.160156 205.484375 254.179688 C 205.484375 223.519531 253.636719 160.902344 259.074219 153.820312 L 265.890625 145.183594 L 272.707031 153.820312 C 278.144531 160.902344 326.296875 223.519531 326.296875 254.179688 C 326.296875 256.160156 326.199219 258.136719 326.007812 260.105469 C 325.8125 262.078125 325.523438 264.035156 325.136719 265.976562 C 324.75 267.917969 324.269531 269.835938 323.695312 271.730469 C 323.121094 273.625 322.457031 275.488281 321.699219 277.316406 C 320.941406 279.148438 320.097656 280.933594 319.164062 282.679688 C 318.234375 284.425781 317.214844 286.125 316.117188 287.769531 C 315.019531 289.417969 313.839844 291.003906 312.585938 292.535156 C 311.332031 294.066406 310.003906 295.53125 308.605469 296.933594 C 307.207031 298.332031 305.742188 299.660156 304.210938 300.917969 C 302.683594 302.171875 301.097656 303.351562 299.453125 304.449219 C 297.804688 305.550781 296.113281 306.566406 294.367188 307.5 C 292.621094 308.433594 290.835938 309.28125 289.007812 310.039062 C 287.179688 310.796875 285.320312 311.460938 283.425781 312.035156 C 281.53125 312.609375 279.617188 313.089844 277.675781 313.476562 C 275.734375 313.863281 273.78125 314.15625 271.8125 314.347656 C 269.84375 314.542969 267.871094 314.640625 265.890625 314.640625 Z M 265.890625 173.511719 C 246.90625 199.421875 222.742188 237.597656 222.742188 254.179688 C 222.742188 255.59375 222.8125 257.007812 222.949219 258.414062 C 223.089844 259.820312 223.296875 261.21875 223.570312 262.605469 C 223.847656 263.992188 224.191406 265.363281 224.601562 266.71875 C 225.011719 268.070312 225.488281 269.402344 226.027344 270.707031 C 226.566406 272.015625 227.171875 273.292969 227.835938 274.539062 C 228.503906 275.785156 229.230469 276.996094 230.015625 278.171875 C 230.800781 279.347656 231.640625 280.484375 232.535156 281.578125 C 233.433594 282.671875 234.382812 283.71875 235.378906 284.71875 C 236.378906 285.71875 237.425781 286.667969 238.519531 287.5625 C 239.609375 288.460938 240.742188 289.300781 241.917969 290.089844 C 243.09375 290.875 244.304688 291.601562 245.550781 292.265625 C 246.796875 292.933594 248.074219 293.539062 249.378906 294.078125 C 250.683594 294.621094 252.011719 295.097656 253.367188 295.507812 C 254.71875 295.917969 256.085938 296.261719 257.472656 296.535156 C 258.859375 296.8125 260.253906 297.019531 261.660156 297.15625 C 263.066406 297.296875 264.476562 297.367188 265.890625 297.367188 C 267.304688 297.367188 268.714844 297.296875 270.121094 297.15625 C 271.527344 297.019531 272.921875 296.8125 274.308594 296.535156 C 275.695312 296.261719 277.0625 295.917969 278.414062 295.507812 C 279.769531 295.097656 281.097656 294.621094 282.402344 294.078125 C 283.707031 293.539062 284.984375 292.933594 286.230469 292.265625 C 287.476562 291.601562 288.6875 290.875 289.863281 290.089844 C 291.039062 289.300781 292.171875 288.460938 293.261719 287.5625 C 294.355469 286.667969 295.402344 285.71875 296.402344 284.71875 C 297.398438 283.71875 298.347656 282.671875 299.246094 281.578125 C 300.140625 280.484375 300.980469 279.347656 301.765625 278.171875 C 302.550781 276.996094 303.277344 275.785156 303.945312 274.539062 C 304.609375 273.292969 305.214844 272.015625 305.753906 270.707031 C 306.296875 269.402344 306.769531 268.070312 307.179688 266.71875 C 307.589844 265.363281 307.933594 263.992188 308.210938 262.605469 C 308.484375 261.21875 308.691406 259.820312 308.832031 258.414062 C 308.96875 257.007812 309.039062 255.59375 309.039062 254.179688 C 309.039062 237.597656 284.875 199.164062 265.890625 173.511719 Z M 265.890625 173.511719 " fill-opacity="1" fill-rule="nonzero"/><path fill="#000000" d="M 550.667969 314.640625 C 548.6875 314.640625 546.714844 314.542969 544.746094 314.347656 C 542.777344 314.15625 540.824219 313.863281 538.882812 313.476562 C 536.941406 313.089844 535.023438 312.609375 533.132812 312.035156 C 531.238281 311.460938 529.378906 310.796875 527.550781 310.039062 C 525.722656 309.28125 523.9375 308.433594 522.191406 307.5 C 520.445312 306.566406 518.753906 305.550781 517.105469 304.449219 C 515.460938 303.351562 513.875 302.171875 512.34375 300.917969 C 510.816406 299.660156 509.351562 298.332031 507.953125 296.933594 C 506.554688 295.53125 505.226562 294.066406 503.972656 292.535156 C 502.71875 291.003906 501.539062 289.417969 500.441406 287.769531 C 499.339844 286.125 498.324219 284.425781 497.394531 282.679688 C 496.460938 280.933594 495.617188 279.148438 494.859375 277.316406 C 494.101562 275.488281 493.4375 273.625 492.863281 271.730469 C 492.289062 269.835938 491.808594 267.917969 491.421875 265.976562 C 491.035156 264.035156 490.746094 262.078125 490.550781 260.105469 C 490.355469 258.136719 490.261719 256.160156 490.261719 254.179688 C 490.261719 223.519531 538.414062 160.902344 543.851562 153.820312 L 550.667969 145.183594 L 557.484375 153.820312 C 562.921875 160.902344 611.074219 223.519531 611.074219 254.179688 C 611.074219 256.160156 610.976562 258.136719 610.785156 260.105469 C 610.589844 262.078125 610.300781 264.035156 609.914062 265.976562 C 609.527344 267.917969 609.046875 269.835938 608.472656 271.730469 C 607.898438 273.625 607.234375 275.488281 606.476562 277.316406 C 605.71875 279.148438 604.875 280.933594 603.941406 282.679688 C 603.007812 284.425781 601.992188 286.125 600.894531 287.769531 C 599.796875 289.417969 598.617188 291.003906 597.363281 292.535156 C 596.109375 294.066406 594.78125 295.53125 593.382812 296.933594 C 591.984375 298.332031 590.519531 299.660156 588.988281 300.917969 C 587.460938 302.171875 585.871094 303.351562 584.226562 304.449219 C 582.582031 305.550781 580.886719 306.566406 579.144531 307.5 C 577.398438 308.433594 575.613281 309.28125 573.785156 310.039062 C 571.957031 310.796875 570.097656 311.460938 568.203125 312.035156 C 566.308594 312.609375 564.394531 313.089844 562.453125 313.476562 C 560.511719 313.863281 558.558594 314.15625 556.589844 314.347656 C 554.621094 314.542969 552.644531 314.640625 550.667969 314.640625 Z M 550.667969 173.511719 C 531.683594 199.421875 507.519531 237.597656 507.519531 254.179688 C 507.519531 255.59375 507.589844 257.007812 507.726562 258.414062 C 507.867188 259.820312 508.074219 261.21875 508.347656 262.605469 C 508.625 263.992188 508.96875 265.363281 509.378906 266.71875 C 509.789062 268.070312 510.261719 269.402344 510.804688 270.707031 C 511.34375 272.015625 511.949219 273.292969 512.613281 274.539062 C 513.28125 275.785156 514.007812 276.996094 514.792969 278.171875 C 515.578125 279.347656 516.417969 280.484375 517.3125 281.578125 C 518.210938 282.671875 519.15625 283.71875 520.15625 284.71875 C 521.15625 285.71875 522.203125 286.667969 523.292969 287.5625 C 524.386719 288.460938 525.519531 289.300781 526.695312 290.089844 C 527.871094 290.875 529.082031 291.601562 530.328125 292.265625 C 531.574219 292.933594 532.851562 293.539062 534.15625 294.078125 C 535.460938 294.621094 536.789062 295.097656 538.140625 295.507812 C 539.496094 295.917969 540.863281 296.261719 542.25 296.535156 C 543.636719 296.8125 545.03125 297.019531 546.4375 297.15625 C 547.84375 297.296875 549.253906 297.367188 550.667969 297.367188 C 552.082031 297.367188 553.492188 297.296875 554.898438 297.15625 C 556.304688 297.019531 557.699219 296.8125 559.085938 296.535156 C 560.472656 296.261719 561.839844 295.917969 563.191406 295.507812 C 564.542969 295.097656 565.875 294.621094 567.179688 294.078125 C 568.484375 293.539062 569.761719 292.933594 571.007812 292.265625 C 572.253906 291.601562 573.464844 290.875 574.640625 290.089844 C 575.8125 289.300781 576.949219 288.460938 578.039062 287.5625 C 579.132812 286.667969 580.179688 285.71875 581.175781 284.71875 C 582.175781 283.71875 583.125 282.671875 584.019531 281.578125 C 584.917969 280.484375 585.757812 279.347656 586.542969 278.171875 C 587.328125 276.996094 588.054688 275.785156 588.71875 274.539062 C 589.386719 273.292969 589.988281 272.015625 590.53125 270.707031 C 591.070312 269.402344 591.546875 268.070312 591.957031 266.71875 C 592.367188 265.363281 592.710938 263.992188 592.988281 262.605469 C 593.261719 261.21875 593.46875 259.820312 593.609375 258.414062 C 593.746094 257.007812 593.816406 255.59375 593.816406 254.179688 C 593.816406 237.597656 569.652344 199.164062 550.667969 173.511719 Z M 550.667969 173.511719 " fill-opacity="1" fill-rule="nonzero"/></svg>