<svg xmlns="http://www.w3.org/2000/svg" width="1024" viewBox="0 0 768 768" height="1024" version="1.0"><defs><clipPath id="a"><path d="M154 167.426h460v433.5H154Zm0 0"/></clipPath></defs><path d="M480.848 280.45c-.93-13.204-6.16-26.083-15.657-36.2l-6.52 6.172c9.352 9.937 13.938 23.066 13.434 36.055l8.743-6.028M267.516 390.91a75.97 75.97 0 0 0 6.984.324 72.583 72.583 0 0 0 21.387-3.23 91.028 91.028 0 0 0-4.907 24.324l134.77-93.598c.07-1.113.145-2.19.145-3.34 0-15.64-7.918-29.452-19.918-37.632l12.035-14.926-4.657-3.766-12.648 15.68c-6.09-3.05-12.93-4.808-20.203-4.808a44.858 44.858 0 0 0-24.54 7.28l-14.651-18.152-4.657 3.766 14.473 17.977c-9.781 8.32-16.016 20.734-16.016 34.582a44.785 44.785 0 0 0 3.407 17.187c-19.454 2.762-39.23-6.281-49.332-23.355-10.997-18.621-8.204-42.801 6.843-58.801l-6.558-6.172c-17.766 18.906-21.028 47.5-8.024 69.527 10.531 17.832 30.02 28.27 50.227 28.27h.644a90.1 90.1 0 0 0-31.562 34.55c-9.563 4.41-20.813 6.458-32.422 5.344-25.684-2.402-47.715-19.445-53.52-41.363l-8.668 2.297c6.77 25.508 31.989 45.273 61.368 48.035M218.543 438.016l-7.523 4.879c3.867 5.992 8.777 11.015 14.257 15.07l7.953-5.488c-5.73-3.735-10.82-8.504-14.687-14.461M487.152 390.91c29.375-2.762 54.633-22.527 61.368-48.035l-8.668-2.297c-5.805 21.918-27.836 38.961-53.524 41.363-8.598.829-17.015-.105-24.683-2.437-5.192-11.05-12.645-20.844-21.672-28.883L270.199 468.582c2.113-.394 4.266-.789 6.38-1.434 7.987-2.437 15.151-6.566 21.171-11.945 13.613 36.809 45.531 68.488 82.754 68.488 35.933 0 66.848-29.562 81.18-64.687 4.941 3.516 10.421 6.316 16.406 8.144 5.445 1.653 10.996 2.477 16.515 2.477 19.31 0 38.082-9.797 49.043-26.73l-7.523-4.88c-11.965 18.407-34.75 26.837-55.422 20.524-5.875-1.758-11.176-4.664-15.797-8.36 3.403-10.69 5.375-21.667 5.375-32.398 0-9.793-1.613-19.156-4.48-28.02 4.656.934 9.457 1.473 14.367 1.473 2.328 0 4.656-.109 6.984-.324"/><g clip-path="url(#a)"><path d="M581.8 383.988c0 112.903-91.745 204.746-204.448 204.746-68.961 0-130.008-34.406-167.051-86.894l335.785-233.3c22.496 32.897 35.715 72.647 35.715 115.448Zm-408.933 0c0-112.902 91.746-204.781 204.485-204.781 62.62 0 118.722 28.375 156.265 72.934L199.27 484.406c-16.766-29.672-26.403-63.933-26.403-100.418ZM613.47 221.754l-11.715-16.969-58.176 40.434c-39.73-47.715-99.523-78.102-166.226-78.102-119.438 0-216.559 97.258-216.559 216.871 0 39.032 10.39 75.664 28.516 107.34l-34.391 23.895 11.75 16.933 33.71-23.426c39.227 55.645 103.892 92.094 176.974 92.094 119.402 0 216.523-97.261 216.523-216.836 0-45.383-13.973-87.504-37.867-122.34l57.46-39.894"/></g></svg>