<svg xmlns="http://www.w3.org/2000/svg" width="1024" viewBox="0 0 768 768" height="1024" version="1.0"><defs><clipPath id="a"><path d="M158.785 432H239v176h-80.215Zm0 0"/></clipPath></defs><g clip-path="url(#a)"><path d="M230.715 607.938h-63.938c-.523 0-1.043-.051-1.558-.153a7.733 7.733 0 0 1-1.5-.457 7.669 7.669 0 0 1-1.38-.738 8.013 8.013 0 0 1-2.207-2.203 8.002 8.002 0 0 1-1.191-2.883 7.7 7.7 0 0 1-.156-1.559v-159.84c0-.523.05-1.043.156-1.558a8.002 8.002 0 0 1 1.192-2.883 7.988 7.988 0 0 1 2.207-2.203 8.014 8.014 0 0 1 2.879-1.195 8.046 8.046 0 0 1 1.558-.153h63.938c.523 0 1.043.051 1.558.153a8.014 8.014 0 0 1 2.883 1.195c.434.293.84.621 1.211.992.371.371.7.777.992 1.211a8.014 8.014 0 0 1 1.195 2.883c.102.515.153 1.035.153 1.558v159.84c0 .528-.05 1.047-.152 1.559a8.014 8.014 0 0 1-1.196 2.883 7.946 7.946 0 0 1-3.586 2.941 7.733 7.733 0 0 1-1.5.457 8.046 8.046 0 0 1-1.558.153Zm-55.945-15.985h47.953V448.098H174.77Zm0 0"/></g><path d="M438.508 528.02h-95.906a8.05 8.05 0 0 1-4.438-1.348 8.013 8.013 0 0 1-1.21-.996 8.013 8.013 0 0 1-1.735-2.59 8.091 8.091 0 0 1-.61-3.059 8.06 8.06 0 0 1 1.348-4.441c.293-.438.625-.84.996-1.211a8.013 8.013 0 0 1 2.59-1.734 8.046 8.046 0 0 1 3.059-.605h95.906a8.368 8.368 0 0 0 1.558-.157 7.696 7.696 0 0 0 1.497-.457 7.988 7.988 0 0 0 2.594-1.73 7.946 7.946 0 0 0 1.73-2.594 7.78 7.78 0 0 0 .457-1.496 8.05 8.05 0 0 0 .156-1.559 39.81 39.81 0 0 0-.2-3.918c-.128-1.3-.32-2.594-.577-3.875a39.823 39.823 0 0 0-.953-3.805 41.02 41.02 0 0 0-1.325-3.687c-.5-1.211-1.062-2.39-1.68-3.543a40.076 40.076 0 0 0-4.35-6.512 39.376 39.376 0 0 0-2.634-2.902 39.434 39.434 0 0 0-2.906-2.633 38.995 38.995 0 0 0-3.145-2.336 39.702 39.702 0 0 0-6.906-3.695 39.518 39.518 0 0 0-3.691-1.325c-1.25-.378-2.52-.699-3.801-.957a40.546 40.546 0 0 0-3.879-.578 39.668 39.668 0 0 0-3.914-.195h-47.953c-1.613 0-3.09-.45-4.434-1.344a117.157 117.157 0 0 0-14.011-6.597 116.328 116.328 0 0 0-14.762-4.688 116.639 116.639 0 0 0-30.727-3.355c-5.175-.141-10.336.062-15.484.617-5.145.55-10.23 1.445-15.258 2.683a114.766 114.766 0 0 0-14.762 4.704 114.91 114.91 0 0 0-14 6.636 7.883 7.883 0 0 1-2.875 1.16 8.273 8.273 0 0 1-1.55.145 7.948 7.948 0 0 1-3.04-.625 7.896 7.896 0 0 1-2.57-1.73c-.37-.368-.699-.77-.988-1.204a8.16 8.16 0 0 1-.734-1.375 7.927 7.927 0 0 1-.605-3.04 7.83 7.83 0 0 1 .594-3.043c.194-.483.436-.944.725-1.378.286-.437.614-.84.98-1.21a8.086 8.086 0 0 1 1.196-.997 130.528 130.528 0 0 1 16.04-7.82 130.474 130.474 0 0 1 34.503-8.742 130.045 130.045 0 0 1 17.828-.766c5.743-.101 11.465.164 17.172.793a135.107 135.107 0 0 1 49 15.192h45.715c1.832.004 3.66.093 5.48.273a56.513 56.513 0 0 1 10.754 2.149 57.618 57.618 0 0 1 5.164 1.851 56.419 56.419 0 0 1 9.668 5.176 54.46 54.46 0 0 1 4.407 3.27 55.064 55.064 0 0 1 4.066 3.683 56.748 56.748 0 0 1 3.688 4.066 56.185 56.185 0 0 1 8.441 14.075 55.36 55.36 0 0 1 1.852 5.168 55.56 55.56 0 0 1 2.148 10.75c.184 1.824.273 3.652.277 5.484a26.167 26.167 0 0 1-.117 2.348 24.597 24.597 0 0 1-.347 2.328c-.157.77-.348 1.527-.575 2.281a24.91 24.91 0 0 1-.793 2.215 23.984 23.984 0 0 1-3.62 6.031 23.776 23.776 0 0 1-3.321 3.32 23.938 23.938 0 0 1-10.527 4.988 24.585 24.585 0 0 1-4.676.466Zm0 0"/><path d="M425.242 591.953H230.715c-.524 0-1.043-.05-1.559-.152a7.733 7.733 0 0 1-1.5-.457 7.946 7.946 0 0 1-4.324-4.324 8.014 8.014 0 0 1-.457-1.5 7.987 7.987 0 0 1 .457-4.618c.2-.484.445-.945.738-1.379.29-.437.621-.84.993-1.21a8.21 8.21 0 0 1 1.21-.997 8.002 8.002 0 0 1 2.883-1.191 7.756 7.756 0 0 1 1.559-.156h194.527c2 0 3.996-.106 5.985-.32a54.192 54.192 0 0 0 5.921-.962 55.986 55.986 0 0 0 5.782-1.585 56.07 56.07 0 0 0 15.867-8.325 55.527 55.527 0 0 0 4.594-3.855 55.68 55.68 0 0 0 4.156-4.324l119.558-138.422a13.412 13.412 0 0 0 1.5-2.09 13.733 13.733 0 0 0 1.707-4.832c.13-.852.176-1.707.141-2.567a13.35 13.35 0 0 0-.34-2.55 13.463 13.463 0 0 0-.812-2.442 13.478 13.478 0 0 0-1.258-2.246 13.731 13.731 0 0 0-1.656-1.969 32.947 32.947 0 0 0-4.59-3.726 34.058 34.058 0 0 0-2.527-1.54 32.188 32.188 0 0 0-2.657-1.308 31.893 31.893 0 0 0-2.758-1.066 34.303 34.303 0 0 0-2.847-.817 33.424 33.424 0 0 0-5.852-.851 32.463 32.463 0 0 0-2.957-.027c-.988.03-1.972.109-2.953.234a32.04 32.04 0 0 0-2.918.496 32.74 32.74 0 0 0-8.324 3.02 32.78 32.78 0 0 0-4.973 3.199l-98.336 78.664a7.916 7.916 0 0 1-2.777 1.504 7.836 7.836 0 0 1-1.555.312c-.531.051-1.058.051-1.59 0a8.133 8.133 0 0 1-1.554-.316 7.88 7.88 0 0 1-1.461-.617 7.705 7.705 0 0 1-1.313-.895 7.798 7.798 0 0 1-1.11-1.133 8.017 8.017 0 0 1-1.45-2.809 7.846 7.846 0 0 1-.276-1.562 7.968 7.968 0 0 1 .032-1.586 7.896 7.896 0 0 1 .996-3c.261-.46.57-.89.918-1.293a8.253 8.253 0 0 1 1.16-1.086l98.3-78.64c1.153-.93 2.344-1.801 3.579-2.617a47.26 47.26 0 0 1 3.8-2.282 47.429 47.429 0 0 1 3.993-1.922 47.302 47.302 0 0 1 4.152-1.55 48.675 48.675 0 0 1 8.64-1.934 49.272 49.272 0 0 1 4.419-.363 47.872 47.872 0 0 1 4.43.039c1.48.082 2.949.23 4.41.445 1.464.215 2.914.496 4.351.848a48.081 48.081 0 0 1 12.336 4.86 47.99 47.99 0 0 1 7.29 5.03 49.277 49.277 0 0 1 3.269 2.993 30.018 30.018 0 0 1 3.527 4.28 30.04 30.04 0 0 1 1.45 2.372c.448.812.855 1.644 1.226 2.492.367.852.695 1.719.984 2.598.29.879.54 1.773.742 2.676a29.71 29.71 0 0 1 .727 5.503c.031.926.023 1.852-.028 2.778a29.65 29.65 0 0 1-.82 5.488 29.793 29.793 0 0 1-3.09 7.715c-.46.805-.957 1.586-1.492 2.344a28.842 28.842 0 0 1-1.703 2.191l-119.566 138.43a70.96 70.96 0 0 1-5.34 5.554 71.351 71.351 0 0 1-12.309 9.247 72.015 72.015 0 0 1-14 6.41 71.6 71.6 0 0 1-15.05 3.277 71.39 71.39 0 0 1-7.7.414ZM382.563 280.266c-.786 0-1.567-.04-2.348-.118a23.216 23.216 0 0 1-2.328-.343 24.41 24.41 0 0 1-2.285-.57 24.91 24.91 0 0 1-2.215-.794 23.984 23.984 0 0 1-4.145-2.218 24.333 24.333 0 0 1-1.89-1.399 24.752 24.752 0 0 1-1.743-1.582 23.776 23.776 0 0 1-1.578-1.742c-.5-.61-.969-1.238-1.402-1.89a23.396 23.396 0 0 1-1.211-2.02 23.474 23.474 0 0 1-1.797-4.34 22.995 22.995 0 0 1-.574-2.285 24.504 24.504 0 0 1-.461-4.676c0-.785.039-1.57.117-2.351.078-.782.192-1.555.344-2.325.152-.773.344-1.531.574-2.285a23.474 23.474 0 0 1 1.797-4.34c.371-.695.773-1.367 1.21-2.02.435-.652.903-1.28 1.403-1.89a23.775 23.775 0 0 1 1.578-1.742 24.751 24.751 0 0 1 1.743-1.582 24.333 24.333 0 0 1 6.035-3.617 24.91 24.91 0 0 1 2.215-.793 24.41 24.41 0 0 1 2.285-.57c.77-.153 1.543-.27 2.328-.344a23.56 23.56 0 0 1 4.7 0 24.032 24.032 0 0 1 6.824 1.707 24.056 24.056 0 0 1 6.034 3.617c.606.5 1.188 1.027 1.743 1.582a24.751 24.751 0 0 1 1.582 1.742c.496.61.964 1.238 1.402 1.89.434.653.84 1.325 1.207 2.02.371.692.707 1.399 1.008 2.125.3.727.562 1.465.793 2.215a24.11 24.11 0 0 1 1.031 6.961c0 .524-.05 1.043-.152 1.559a8.014 8.014 0 0 1-1.196 2.882 7.946 7.946 0 0 1-3.586 2.942 8.014 8.014 0 0 1-1.5.457 8.046 8.046 0 0 1-3.117 0 8.014 8.014 0 0 1-2.883-1.195 7.946 7.946 0 0 1-2.94-3.586 8.014 8.014 0 0 1-.458-1.5 8.046 8.046 0 0 1-.152-1.559c0-.523-.051-1.043-.153-1.559a7.733 7.733 0 0 0-.457-1.5 7.946 7.946 0 0 0-4.324-4.324 8.014 8.014 0 0 0-1.5-.457 8.016 8.016 0 0 0-6 1.196c-.433.292-.84.62-1.21.992-.372.37-.7.777-.993 1.21a8.002 8.002 0 0 0-1.191 2.883 7.756 7.756 0 0 0-.157 1.56c0 .522.051 1.042.157 1.558a8.002 8.002 0 0 0 1.191 2.882 7.946 7.946 0 0 0 3.586 2.941c.484.204.984.352 1.5.458a8.046 8.046 0 0 0 1.558.152c.524 0 1.047.051 1.56.153a7.733 7.733 0 0 1 1.5.457c.483.199.944.445 1.382.738a7.946 7.946 0 0 1 2.941 3.586c.203.484.356.984.457 1.5a8.046 8.046 0 0 1 0 3.117 7.733 7.733 0 0 1-.457 1.5 7.946 7.946 0 0 1-4.324 4.324 8.014 8.014 0 0 1-1.5.457 8.016 8.016 0 0 1-1.558.153Zm0 0"/><path d="M382.563 312.234c-.786 0-1.567-.043-2.348-.117a24.597 24.597 0 0 1-2.328-.347 25.298 25.298 0 0 1-2.282-.575 24.91 24.91 0 0 1-2.214-.793 23.984 23.984 0 0 1-4.141-2.218 22.745 22.745 0 0 1-1.89-1.403 23.775 23.775 0 0 1-3.32-3.32 23.938 23.938 0 0 1-5.453-15.203c-.001-.524.05-1.047.155-1.559a8.002 8.002 0 0 1 1.192-2.883 8.013 8.013 0 0 1 6.644-3.55c.527 0 1.047.05 1.559.152a7.733 7.733 0 0 1 1.5.457c.484.2.945.445 1.383.738.437.29.84.621 1.21.992.372.372.704.774.993 1.211.293.438.539.899.738 1.383.203.485.355.985.457 1.5.102.512.152 1.035.152 1.559 0 .523.051 1.043.157 1.558a8.002 8.002 0 0 0 1.191 2.883c.293.434.621.84.992 1.211.371.371.777.7 1.211.992a8.002 8.002 0 0 0 2.883 1.191 7.756 7.756 0 0 0 1.558.157c.524 0 1.047-.05 1.56-.156a8.002 8.002 0 0 0 2.882-1.192 7.946 7.946 0 0 0 2.941-3.586c.203-.484.356-.984.457-1.5a8.046 8.046 0 0 0 0-3.117 7.733 7.733 0 0 0-.457-1.5 7.837 7.837 0 0 0-.738-1.383 7.76 7.76 0 0 0-.992-1.21 7.76 7.76 0 0 0-1.211-.993 7.837 7.837 0 0 0-1.383-.738 7.733 7.733 0 0 0-1.5-.457 8.016 8.016 0 0 0-1.558-.152c-.524 0-1.043-.051-1.56-.153a8.014 8.014 0 0 1-2.882-1.195 8.185 8.185 0 0 1-1.21-.992 8.185 8.185 0 0 1-.993-1.211 8.002 8.002 0 0 1-1.191-2.883 7.756 7.756 0 0 1-.157-1.559c0-.523.051-1.043.157-1.558a8.002 8.002 0 0 1 1.191-2.883 7.946 7.946 0 0 1 3.586-2.941 7.733 7.733 0 0 1 1.5-.457 8.046 8.046 0 0 1 1.558-.153c.786 0 1.57.04 2.352.117a24.032 24.032 0 0 1 6.824 1.707 24.056 24.056 0 0 1 6.035 3.618c.606.5 1.188 1.027 1.743 1.582a24.751 24.751 0 0 1 1.582 1.742 23.896 23.896 0 0 1 3.617 6.035c.3.727.562 1.465.793 2.215a24.032 24.032 0 0 1 0 13.922 24.91 24.91 0 0 1-.793 2.215c-.3.722-.637 1.433-1.008 2.125a23.358 23.358 0 0 1-1.207 2.02 25.434 25.434 0 0 1-1.402 1.89c-.5.605-1.028 1.187-1.582 1.742a23.775 23.775 0 0 1-1.743 1.578c-.605.5-1.238.969-1.89 1.402a23.938 23.938 0 0 1-4.145 2.22c-.726.296-1.465.562-2.215.788-.75.23-1.511.422-2.28.574-.774.153-1.548.266-2.329.344-.781.078-1.566.117-2.351.117ZM382.563 248.297c-.524 0-1.043-.05-1.56-.152a7.733 7.733 0 0 1-1.5-.458 7.946 7.946 0 0 1-4.324-4.324 8.002 8.002 0 0 1-.452-1.5 7.756 7.756 0 0 1-.157-1.558v-7.993c0-.523.051-1.042.157-1.558a8.002 8.002 0 0 1 1.191-2.883c.293-.434.621-.84.992-1.21.371-.372.777-.7 1.211-.993a8.002 8.002 0 0 1 2.883-1.191 7.756 7.756 0 0 1 1.558-.157c.524 0 1.047.051 1.56.157a8.002 8.002 0 0 1 2.882 1.191 7.946 7.946 0 0 1 2.941 3.586c.203.484.356.984.457 1.5.102.516.153 1.035.153 1.559v7.992c0 .523-.051 1.043-.153 1.558a7.733 7.733 0 0 1-.457 1.5 7.946 7.946 0 0 1-4.324 4.324 7.733 7.733 0 0 1-1.5.458 8.016 8.016 0 0 1-1.558.152Zm0 0"/><path d="M382.563 320.227c-.524 0-1.043-.051-1.56-.157a8.002 8.002 0 0 1-2.882-1.191 7.988 7.988 0 0 1-2.203-2.207 7.669 7.669 0 0 1-.738-1.379 8.002 8.002 0 0 1-.453-1.5 7.756 7.756 0 0 1-.157-1.559v-7.992a7.7 7.7 0 0 1 .157-1.558 8.002 8.002 0 0 1 1.191-2.883 7.946 7.946 0 0 1 3.586-2.941 7.733 7.733 0 0 1 1.5-.458 8.046 8.046 0 0 1 3.117 0 7.733 7.733 0 0 1 1.5.457c.484.2.945.446 1.383.739.437.289.84.62 1.21.992.372.37.704.773.993 1.21.293.438.54.9.738 1.384.203.484.356.984.457 1.5.102.511.153 1.03.153 1.558v7.992c0 .524-.051 1.043-.153 1.559a7.733 7.733 0 0 1-.457 1.5c-.199.484-.445.945-.738 1.379a8.013 8.013 0 0 1-2.203 2.207 8.002 8.002 0 0 1-2.883 1.191 7.728 7.728 0 0 1-1.558.157Zm0 0"/><path d="M382.563 352.195a82.12 82.12 0 0 1-3.922-.097 81.846 81.846 0 0 1-3.91-.29c-1.301-.128-2.602-.288-3.895-.48a76.022 76.022 0 0 1-3.863-.672 75.23 75.23 0 0 1-3.828-.86 78.378 78.378 0 0 1-3.782-1.042 88.274 88.274 0 0 1-3.722-1.23 79.567 79.567 0 0 1-3.66-1.415 77.45 77.45 0 0 1-3.586-1.59 79.067 79.067 0 0 1-10.234-5.797 78.952 78.952 0 0 1-6.298-4.671 77.199 77.199 0 0 1-2.972-2.563 77.17 77.17 0 0 1-2.84-2.703 77.17 77.17 0 0 1-2.703-2.84 77.2 77.2 0 0 1-2.563-2.972 78.952 78.952 0 0 1-4.672-6.297 86.194 86.194 0 0 1-2.101-3.317 81.342 81.342 0 0 1-1.934-3.41 79.492 79.492 0 0 1-3.352-7.094 79.918 79.918 0 0 1-3.688-11.164 75.23 75.23 0 0 1-.858-3.828 76.022 76.022 0 0 1-.672-3.863 80.888 80.888 0 0 1-.77-7.805 82.115 82.115 0 0 1 0-7.843 80.888 80.888 0 0 1 .77-7.805c.191-1.293.414-2.582.672-3.867.254-1.282.539-2.559.86-3.825.315-1.27.663-2.53 1.046-3.78.379-1.255.789-2.493 1.23-3.727a78.497 78.497 0 0 1 3-7.246 86.343 86.343 0 0 1 1.762-3.504 81.341 81.341 0 0 1 1.934-3.41 83.276 83.276 0 0 1 2.101-3.317 78.953 78.953 0 0 1 4.672-6.297 77.2 77.2 0 0 1 2.563-2.972 80.716 80.716 0 0 1 5.543-5.547 79.909 79.909 0 0 1 6.063-4.973 79.046 79.046 0 0 1 13.44-8.055 77.45 77.45 0 0 1 3.586-1.59c1.207-.5 2.426-.972 3.66-1.414a88.274 88.274 0 0 1 3.723-1.23 78.377 78.377 0 0 1 3.782-1.043c1.27-.32 2.543-.605 3.828-.863a80.594 80.594 0 0 1 15.59-1.535c1.308 0 2.617.035 3.921.097 1.305.063 2.61.16 3.914.29a81.342 81.342 0 0 1 7.758 1.148c1.281.258 2.559.543 3.824.863a78.377 78.377 0 0 1 7.508 2.273 81.339 81.339 0 0 1 10.75 4.766 81.342 81.342 0 0 1 6.727 4.031 79.046 79.046 0 0 1 3.207 2.262 80.034 80.034 0 0 1 3.094 2.41c1.007.832 2 1.688 2.968 2.563a80.716 80.716 0 0 1 2.84 2.707 80.715 80.715 0 0 1 2.707 2.84 80.792 80.792 0 0 1 7.235 9.27 81.341 81.341 0 0 1 4.031 6.727 81.552 81.552 0 0 1 3.351 7.088 78.425 78.425 0 0 1 2.645 7.387c.379 1.25.727 2.512 1.047 3.781.316 1.266.601 2.543.86 3.825a81.608 81.608 0 0 1 1.148 7.761c.129 1.301.226 2.606.289 3.91a77.179 77.179 0 0 1-.004 7.844 81.86 81.86 0 0 1-.293 3.91 80.623 80.623 0 0 1-1.156 7.754 79.558 79.558 0 0 1-.864 3.825 79.686 79.686 0 0 1-1.047 3.78 84.712 84.712 0 0 1-1.234 3.724 81.339 81.339 0 0 1-3.004 7.242 81.343 81.343 0 0 1-5.797 10.223 76.398 76.398 0 0 1-2.261 3.206 77.021 77.021 0 0 1-2.41 3.09 80.669 80.669 0 0 1-8.106 8.516 80.69 80.69 0 0 1-2.973 2.558 73.702 73.702 0 0 1-3.09 2.414 78.825 78.825 0 0 1-3.203 2.258 77.48 77.48 0 0 1-6.726 4.035 83.792 83.792 0 0 1-3.5 1.766 81.338 81.338 0 0 1-7.242 3.004c-1.23.441-2.473.852-3.723 1.23a79.73 79.73 0 0 1-19.27 3.364 82.127 82.127 0 0 1-3.921.101Zm0-143.86a64.654 64.654 0 0 0-9.38.692 69.186 69.186 0 0 0-3.093.54 63.022 63.022 0 0 0-3.063.687 61.769 61.769 0 0 0-3.023.836 64.587 64.587 0 0 0-8.777 3.387 62.732 62.732 0 0 0-8.184 4.637 65.725 65.725 0 0 0-2.566 1.804c-.84.625-1.664 1.27-2.473 1.934a65.678 65.678 0 0 0-2.379 2.046 69.863 69.863 0 0 0-2.273 2.165 65.781 65.781 0 0 0-4.211 4.648 61.883 61.883 0 0 0-1.93 2.476 64.38 64.38 0 0 0-3.488 5.215 62.734 62.734 0 0 0-2.957 5.536c-.45.945-.871 1.902-1.274 2.867a64.868 64.868 0 0 0-2.113 5.91c-.3 1-.582 2.008-.836 3.023a63.02 63.02 0 0 0-1.223 6.153 64.047 64.047 0 0 0-.386 3.117 64.07 64.07 0 0 0 0 12.531c.105 1.043.23 2.082.386 3.117a63.82 63.82 0 0 0 11.89 28.703c.622.84 1.267 1.664 1.93 2.473a65.781 65.781 0 0 0 4.21 4.652c.744.739 1.502 1.461 2.275 2.164.777.7 1.57 1.383 2.379 2.047a65.667 65.667 0 0 0 2.473 1.934 65.726 65.726 0 0 0 5.214 3.484 62.732 62.732 0 0 0 5.536 2.957 62.821 62.821 0 0 0 5.796 2.403c.985.351 1.98.68 2.98.984 1 .305 2.009.582 3.024.836a63.022 63.022 0 0 0 6.157 1.223c1.03.156 2.07.285 3.113.386a64.07 64.07 0 0 0 12.531 0 59.555 59.555 0 0 0 3.117-.386 63.001 63.001 0 0 0 6.153-1.223 61.77 61.77 0 0 0 3.023-.836 64.865 64.865 0 0 0 5.91-2.113 64.634 64.634 0 0 0 11.055-5.91 62.78 62.78 0 0 0 5.04-3.738 66.098 66.098 0 0 0 2.374-2.048 69.865 69.865 0 0 0 2.273-2.164 62.595 62.595 0 0 0 4.215-4.652 69.865 69.865 0 0 0 1.93-2.473 61.775 61.775 0 0 0 1.805-2.566 62.733 62.733 0 0 0 4.637-8.184c.449-.945.87-1.902 1.273-2.867a64.867 64.867 0 0 0 2.113-5.91c.305-1 .582-2.008.836-3.023a63.02 63.02 0 0 0 .688-3.063c.207-1.027.382-2.055.539-3.09a64.03 64.03 0 0 0 .613-6.246c.05-1.043.078-2.09.078-3.137 0-1.046-.027-2.09-.082-3.136a60.186 60.186 0 0 0-.234-3.13 59.93 59.93 0 0 0-.387-3.112 59.399 59.399 0 0 0-.54-3.09 61.85 61.85 0 0 0-.687-3.059 66.522 66.522 0 0 0-.84-3.023c-.304-1-.632-1.996-.988-2.98a61.86 61.86 0 0 0-1.129-2.927 64.633 64.633 0 0 0-2.683-5.668 67.17 67.17 0 0 0-1.551-2.73 61.735 61.735 0 0 0-3.484-5.21 62.688 62.688 0 0 0-6.145-7.122 62.41 62.41 0 0 0-2.27-2.164 65.666 65.666 0 0 0-2.375-2.05 65.566 65.566 0 0 0-2.472-1.93 61.772 61.772 0 0 0-2.567-1.805 62.893 62.893 0 0 0-2.648-1.68 67.173 67.173 0 0 0-2.73-1.55 64.634 64.634 0 0 0-5.668-2.684 64.587 64.587 0 0 0-8.93-2.953 57.73 57.73 0 0 0-3.059-.692 59.4 59.4 0 0 0-3.09-.539 59.929 59.929 0 0 0-3.113-.387 64.53 64.53 0 0 0-6.266-.316Zm0 0"/><path d="M382.563 384.16a111.14 111.14 0 0 1-10.965-.54 111.03 111.03 0 0 1-16.223-2.813 114.22 114.22 0 0 1-5.293-1.463 113.045 113.045 0 0 1-5.215-1.723 114.439 114.439 0 0 1-5.12-1.976c-1.692-.7-3.368-1.442-5.02-2.227a112.886 112.886 0 0 1-9.688-5.176 111.763 111.763 0 0 1-4.637-2.937 111.842 111.842 0 0 1-4.492-3.16 116.88 116.88 0 0 1-4.328-3.38c-1.414-1.163-2.8-2.359-4.16-3.59a117.293 117.293 0 0 1-3.977-3.784 117.293 117.293 0 0 1-3.785-3.977 117.042 117.042 0 0 1-3.59-4.16 112.742 112.742 0 0 1-9.476-13.457 110.501 110.501 0 0 1-2.707-4.781 110.576 110.576 0 0 1-4.696-9.926 114.44 114.44 0 0 1-1.976-5.121 113.044 113.044 0 0 1-1.723-5.215 114.22 114.22 0 0 1-1.465-5.293 114.13 114.13 0 0 1-1.203-5.36 115.959 115.959 0 0 1-.937-5.41 111.08 111.08 0 0 1-.672-5.453 111.139 111.139 0 0 1 0-21.933 111.512 111.512 0 0 1 1.61-10.86c.359-1.797.757-3.582 1.202-5.36a112.884 112.884 0 0 1 3.188-10.507 114.44 114.44 0 0 1 1.976-5.121c.7-1.695 1.442-3.367 2.227-5.023.781-1.653 1.605-3.29 2.469-4.903a110.5 110.5 0 0 1 5.644-9.418 112.742 112.742 0 0 1 6.54-8.82c1.163-1.418 2.359-2.8 3.59-4.16a113.72 113.72 0 0 1 3.784-3.977 113.543 113.543 0 0 1 3.977-3.785c1.36-1.23 2.746-2.426 4.16-3.59a116.88 116.88 0 0 1 4.328-3.379 111.84 111.84 0 0 1 4.492-3.16c1.52-1.02 3.067-1.996 4.637-2.937a112.886 112.886 0 0 1 9.688-5.176 106.497 106.497 0 0 1 5.02-2.227c1.69-.703 3.398-1.359 5.12-1.976a113.045 113.045 0 0 1 5.215-1.723 114.22 114.22 0 0 1 5.293-1.465c1.777-.445 3.563-.847 5.36-1.203 1.796-.36 3.6-.672 5.41-.937a111.1 111.1 0 0 1 5.453-.676 111.753 111.753 0 0 1 10.965-.535 112.03 112.03 0 0 1 10.968.535c1.82.18 3.637.406 5.45.676 1.812.265 3.613.578 5.41.937 1.796.356 3.582.758 5.359 1.203a112.885 112.885 0 0 1 10.508 3.188c1.722.617 3.43 1.273 5.12 1.976 1.696.7 3.368 1.442 5.024 2.227a110.716 110.716 0 0 1 9.684 5.176c1.57.941 3.117 1.918 4.64 2.937 1.52 1.016 3.016 2.07 4.489 3.16a113.703 113.703 0 0 1 4.328 3.38 110.486 110.486 0 0 1 4.16 3.59 110.19 110.19 0 0 1 3.977 3.784 110.301 110.301 0 0 1 7.375 8.137 116.88 116.88 0 0 1 3.379 4.328 111.842 111.842 0 0 1 3.16 4.492 110.5 110.5 0 0 1 5.645 9.418c.863 1.614 1.687 3.25 2.468 4.903a106.635 106.635 0 0 1 2.227 5.023c.703 1.691 1.359 3.398 1.976 5.121a112.884 112.884 0 0 1 3.188 10.508c.445 1.777.847 3.562 1.203 5.36a110.247 110.247 0 0 1 1.613 10.859c.18 1.824.313 3.648.402 5.476.09 1.832.137 3.66.137 5.492-.004 1.832-.05 3.66-.14 5.489a110.373 110.373 0 0 1-1.09 10.922 110.245 110.245 0 0 1-2.149 10.765 112.774 112.774 0 0 1-3.195 10.5 114.44 114.44 0 0 1-1.977 5.121 112.712 112.712 0 0 1-7.406 14.7 112.957 112.957 0 0 1-9.48 13.449 109.895 109.895 0 0 1-7.371 8.133 113.656 113.656 0 0 1-3.977 3.789 117.36 117.36 0 0 1-4.156 3.586 120.239 120.239 0 0 1-4.328 3.378 111.713 111.713 0 0 1-9.125 6.098c-1.57.945-3.164 1.848-4.778 2.711a108.477 108.477 0 0 1-4.902 2.469 108.173 108.173 0 0 1-5.016 2.226 109.937 109.937 0 0 1-5.12 1.98c-1.727.618-3.462 1.192-5.216 1.727-1.75.532-3.511 1.02-5.289 1.47-1.773.444-3.558.847-5.355 1.206-1.797.356-3.598.672-5.41.942-1.809.27-3.625.496-5.446.675-1.824.184-3.648.32-5.476.41-1.828.094-3.656.141-5.488.141Zm0-207.793c-1.57 0-3.137.04-4.708.117a94.346 94.346 0 0 0-4.69.348 93.535 93.535 0 0 0-4.673.574c-1.555.23-3.101.5-4.64.805-1.54.309-3.07.652-4.59 1.031a96.38 96.38 0 0 0-17.703 6.336 93.861 93.861 0 0 0-4.204 2.113c-1.386.743-2.75 1.516-4.097 2.32a100.242 100.242 0 0 0-3.977 2.52 97.383 97.383 0 0 0-7.558 5.606 99.103 99.103 0 0 0-3.567 3.074 98.91 98.91 0 0 0-3.406 3.246 99.028 99.028 0 0 0-3.246 3.41 91.821 91.821 0 0 0-3.074 3.567 95.456 95.456 0 0 0-10.446 15.629 96.219 96.219 0 0 0-5.718 12.902 97.553 97.553 0 0 0-2.734 9.004 102.596 102.596 0 0 0-1.032 4.594 94.678 94.678 0 0 0-1.379 9.309 99.454 99.454 0 0 0-.348 4.694 99.608 99.608 0 0 0-.113 4.707c0 1.57.04 3.137.113 4.707.079 1.567.196 3.133.348 4.692.152 1.562.344 3.121.574 4.672.23 1.554.5 3.101.805 4.64.309 1.54.652 3.07 1.031 4.59a96.38 96.38 0 0 0 6.336 17.703 93.931 93.931 0 0 0 2.117 4.203 91.912 91.912 0 0 0 2.32 4.098 93.331 93.331 0 0 0 2.516 3.977 95.457 95.457 0 0 0 5.61 7.559 91.822 91.822 0 0 0 3.074 3.566 98.912 98.912 0 0 0 3.246 3.406 91.944 91.944 0 0 0 3.406 3.246 91.821 91.821 0 0 0 3.567 3.074c1.21.996 2.449 1.965 3.71 2.899a97.384 97.384 0 0 0 3.848 2.71 95.862 95.862 0 0 0 8.074 4.837 93.93 93.93 0 0 0 4.204 2.117 94.158 94.158 0 0 0 8.695 3.601 96.381 96.381 0 0 0 9.008 2.734c1.52.38 3.05.723 4.59 1.032a97.57 97.57 0 0 0 4.64.805c1.551.23 3.11.421 4.672.574a94.346 94.346 0 0 0 9.399.46 94.516 94.516 0 0 0 9.402-.46 94.677 94.677 0 0 0 9.308-1.38c1.54-.308 3.07-.651 4.594-1.03 1.52-.383 3.035-.801 4.535-1.258a97.982 97.982 0 0 0 8.863-3.168 95.95 95.95 0 0 0 4.301-1.91 96.219 96.219 0 0 0 12.278-6.953 94.579 94.579 0 0 0 7.558-5.61 91.821 91.821 0 0 0 3.567-3.074 89.064 89.064 0 0 0 3.41-3.246 98.912 98.912 0 0 0 3.246-3.406 99.106 99.106 0 0 0 3.074-3.567c.996-1.21 1.961-2.449 2.895-3.71a94.58 94.58 0 0 0 2.71-3.848 97.48 97.48 0 0 0 2.52-3.977c.805-1.348 1.578-2.71 2.32-4.098a93.861 93.861 0 0 0 2.114-4.203 94.159 94.159 0 0 0 3.601-8.695 96.38 96.38 0 0 0 2.734-9.008c.38-1.52.723-3.05 1.032-4.59.305-1.539.574-3.086.805-4.64.23-1.551.422-3.11.574-4.672.156-1.559.27-3.125.348-4.692.078-1.57.117-3.136.117-4.707a99.321 99.321 0 0 0-.121-4.703 94.165 94.165 0 0 0-.352-4.695 93.989 93.989 0 0 0-.582-4.668c-.23-1.55-.5-3.098-.809-4.637a91.676 91.676 0 0 0-1.035-4.59 94.935 94.935 0 0 0-1.257-4.535c-.458-1.5-.95-2.988-1.477-4.465a96.151 96.151 0 0 0-1.7-4.39 94.002 94.002 0 0 0-4.027-8.504 94.031 94.031 0 0 0-2.32-4.094 92.006 92.006 0 0 0-2.52-3.976 93.325 93.325 0 0 0-2.71-3.844 94.535 94.535 0 0 0-5.97-7.274 92.096 92.096 0 0 0-3.245-3.406 95.463 95.463 0 0 0-14.524-11.926 93.413 93.413 0 0 0-3.976-2.52 91.782 91.782 0 0 0-4.094-2.32 89.942 89.942 0 0 0-4.203-2.117 95.951 95.951 0 0 0-26.918-8.187 98.87 98.87 0 0 0-4.668-.582 94.165 94.165 0 0 0-4.695-.352 99.321 99.321 0 0 0-4.704-.12Zm0 0"/></svg>