<svg xmlns="http://www.w3.org/2000/svg" xmlns:xlink="http://www.w3.org/1999/xlink" width="1024" zoomAndPan="magnify" viewBox="0 0 768 767.999994" height="1024" preserveAspectRatio="xMidYMid meet" version="1.0"><defs><clipPath id="7201637901"><path d="M 158.785156 432 L 239 432 L 239 608 L 158.785156 608 Z M 158.785156 432 " clip-rule="nonzero"/></clipPath></defs><g clip-path="url(#7201637901)"><path fill="#000000" d="M 230.714844 607.9375 L 166.777344 607.9375 C 166.253906 607.9375 165.734375 607.886719 165.21875 607.785156 C 164.703125 607.683594 164.203125 607.53125 163.71875 607.328125 C 163.234375 607.128906 162.773438 606.882812 162.339844 606.589844 C 161.902344 606.300781 161.5 605.96875 161.128906 605.597656 C 160.757812 605.226562 160.425781 604.824219 160.132812 604.386719 C 159.84375 603.949219 159.59375 603.488281 159.394531 603.003906 C 159.195312 602.519531 159.042969 602.019531 158.941406 601.503906 C 158.835938 600.992188 158.785156 600.472656 158.785156 599.945312 L 158.785156 440.105469 C 158.785156 439.582031 158.835938 439.0625 158.941406 438.546875 C 159.042969 438.03125 159.195312 437.53125 159.394531 437.046875 C 159.59375 436.5625 159.84375 436.101562 160.132812 435.664062 C 160.425781 435.230469 160.757812 434.824219 161.128906 434.453125 C 161.5 434.082031 161.902344 433.753906 162.339844 433.460938 C 162.773438 433.167969 163.234375 432.921875 163.71875 432.722656 C 164.203125 432.519531 164.703125 432.371094 165.21875 432.265625 C 165.734375 432.164062 166.253906 432.113281 166.777344 432.113281 L 230.714844 432.113281 C 231.238281 432.113281 231.757812 432.164062 232.273438 432.265625 C 232.789062 432.371094 233.289062 432.519531 233.773438 432.722656 C 234.257812 432.921875 234.71875 433.167969 235.15625 433.460938 C 235.589844 433.753906 235.996094 434.082031 236.367188 434.453125 C 236.738281 434.824219 237.066406 435.230469 237.359375 435.664062 C 237.652344 436.101562 237.898438 436.5625 238.097656 437.046875 C 238.300781 437.53125 238.449219 438.03125 238.554688 438.546875 C 238.65625 439.0625 238.707031 439.582031 238.707031 440.105469 L 238.707031 599.945312 C 238.707031 600.472656 238.65625 600.992188 238.554688 601.503906 C 238.449219 602.019531 238.300781 602.519531 238.097656 603.003906 C 237.898438 603.488281 237.652344 603.949219 237.359375 604.386719 C 237.066406 604.824219 236.738281 605.226562 236.367188 605.597656 C 235.996094 605.96875 235.589844 606.300781 235.15625 606.589844 C 234.71875 606.882812 234.257812 607.128906 233.773438 607.328125 C 233.289062 607.53125 232.789062 607.683594 232.273438 607.785156 C 231.757812 607.886719 231.238281 607.9375 230.714844 607.9375 Z M 174.769531 591.953125 L 222.722656 591.953125 L 222.722656 448.097656 L 174.769531 448.097656 Z M 174.769531 591.953125 " fill-opacity="1" fill-rule="nonzero"/></g><path fill="#000000" d="M 438.507812 528.019531 L 342.601562 528.019531 C 342.078125 528.019531 341.558594 527.964844 341.042969 527.863281 C 340.527344 527.761719 340.03125 527.609375 339.542969 527.410156 C 339.058594 527.207031 338.597656 526.960938 338.164062 526.671875 C 337.726562 526.378906 337.324219 526.046875 336.953125 525.675781 C 336.582031 525.304688 336.25 524.902344 335.957031 524.464844 C 335.667969 524.03125 335.421875 523.570312 335.21875 523.085938 C 335.019531 522.597656 334.867188 522.101562 334.765625 521.585938 C 334.664062 521.070312 334.609375 520.550781 334.609375 520.027344 C 334.609375 519.5 334.664062 518.980469 334.765625 518.464844 C 334.867188 517.953125 335.019531 517.453125 335.21875 516.96875 C 335.421875 516.484375 335.667969 516.023438 335.957031 515.585938 C 336.25 515.148438 336.582031 514.746094 336.953125 514.375 C 337.324219 514.003906 337.726562 513.671875 338.164062 513.378906 C 338.597656 513.089844 339.058594 512.84375 339.542969 512.640625 C 340.03125 512.441406 340.527344 512.289062 341.042969 512.1875 C 341.558594 512.085938 342.078125 512.035156 342.601562 512.035156 L 438.507812 512.035156 C 439.03125 512.03125 439.550781 511.980469 440.066406 511.878906 C 440.582031 511.777344 441.078125 511.625 441.5625 511.421875 C 442.046875 511.222656 442.507812 510.976562 442.945312 510.683594 C 443.382812 510.390625 443.785156 510.0625 444.15625 509.691406 C 444.527344 509.320312 444.859375 508.914062 445.148438 508.480469 C 445.441406 508.042969 445.6875 507.582031 445.886719 507.097656 C 446.089844 506.613281 446.242188 506.113281 446.34375 505.601562 C 446.445312 505.085938 446.5 504.566406 446.5 504.042969 C 446.496094 502.734375 446.433594 501.429688 446.300781 500.125 C 446.171875 498.824219 445.980469 497.53125 445.722656 496.25 C 445.46875 494.964844 445.148438 493.699219 444.769531 492.445312 C 444.386719 491.195312 443.945312 489.964844 443.445312 488.757812 C 442.945312 487.546875 442.382812 486.367188 441.765625 485.214844 C 441.148438 484.058594 440.476562 482.941406 439.75 481.851562 C 439.023438 480.765625 438.246094 479.714844 437.414062 478.703125 C 436.585938 477.691406 435.707031 476.726562 434.78125 475.800781 C 433.855469 474.875 432.886719 473.996094 431.875 473.167969 C 430.867188 472.335938 429.816406 471.558594 428.730469 470.832031 C 427.640625 470.101562 426.519531 469.429688 425.367188 468.8125 C 424.214844 468.195312 423.03125 467.636719 421.824219 467.136719 C 420.617188 466.632812 419.386719 466.195312 418.132812 465.8125 C 416.882812 465.433594 415.613281 465.113281 414.332031 464.855469 C 413.046875 464.601562 411.757812 464.40625 410.453125 464.277344 C 409.152344 464.148438 407.847656 464.082031 406.539062 464.082031 L 358.585938 464.082031 C 356.972656 464.082031 355.496094 463.632812 354.152344 462.738281 C 349.628906 460.230469 344.957031 458.03125 340.140625 456.140625 C 335.324219 454.25 330.402344 452.6875 325.378906 451.453125 C 320.355469 450.214844 315.269531 449.316406 310.125 448.753906 C 304.980469 448.191406 299.824219 447.972656 294.652344 448.097656 C 289.476562 447.957031 284.316406 448.160156 279.167969 448.714844 C 274.023438 449.265625 268.9375 450.160156 263.910156 451.398438 C 258.882812 452.632812 253.960938 454.203125 249.148438 456.101562 C 244.332031 458 239.664062 460.210938 235.148438 462.738281 C 234.710938 463.023438 234.25 463.265625 233.765625 463.460938 C 233.285156 463.65625 232.785156 463.800781 232.273438 463.898438 C 231.761719 463.996094 231.242188 464.042969 230.722656 464.042969 C 230.199219 464.039062 229.683594 463.984375 229.171875 463.878906 C 228.660156 463.773438 228.164062 463.621094 227.683594 463.417969 C 227.203125 463.21875 226.746094 462.972656 226.3125 462.679688 C 225.878906 462.386719 225.480469 462.058594 225.113281 461.6875 C 224.742188 461.320312 224.414062 460.917969 224.125 460.484375 C 223.835938 460.046875 223.589844 459.589844 223.390625 459.109375 C 223.191406 458.625 223.042969 458.128906 222.9375 457.617188 C 222.835938 457.105469 222.785156 456.589844 222.785156 456.070312 C 222.78125 455.546875 222.832031 455.03125 222.929688 454.519531 C 223.03125 454.003906 223.179688 453.507812 223.378906 453.027344 C 223.574219 452.542969 223.816406 452.082031 224.105469 451.648438 C 224.390625 451.210938 224.71875 450.808594 225.085938 450.4375 C 225.453125 450.066406 225.851562 449.734375 226.28125 449.441406 C 231.449219 446.46875 236.792969 443.863281 242.320312 441.621094 C 247.84375 439.382812 253.496094 437.53125 259.273438 436.066406 C 265.050781 434.601562 270.902344 433.539062 276.824219 432.878906 C 282.75 432.214844 288.691406 431.960938 294.652344 432.113281 C 300.394531 432.011719 306.117188 432.277344 311.824219 432.90625 C 317.535156 433.535156 323.179688 434.523438 328.761719 435.871094 C 334.34375 437.21875 339.816406 438.917969 345.183594 440.960938 C 350.546875 443.007812 355.761719 445.386719 360.824219 448.097656 L 406.539062 448.097656 C 408.371094 448.101562 410.199219 448.191406 412.019531 448.371094 C 413.84375 448.554688 415.652344 448.824219 417.449219 449.183594 C 419.246094 449.542969 421.019531 449.988281 422.773438 450.519531 C 424.523438 451.054688 426.246094 451.671875 427.9375 452.371094 C 429.628906 453.074219 431.285156 453.859375 432.898438 454.722656 C 434.515625 455.585938 436.082031 456.527344 437.605469 457.546875 C 439.128906 458.5625 440.597656 459.652344 442.011719 460.816406 C 443.429688 461.976562 444.785156 463.207031 446.078125 464.5 C 447.375 465.796875 448.601562 467.152344 449.765625 468.566406 C 450.925781 469.984375 452.019531 471.453125 453.035156 472.976562 C 454.054688 474.5 454.996094 476.066406 455.859375 477.683594 C 456.722656 479.296875 457.507812 480.949219 458.207031 482.640625 C 458.910156 484.335938 459.527344 486.054688 460.058594 487.808594 C 460.59375 489.5625 461.039062 491.335938 461.398438 493.132812 C 461.757812 494.929688 462.027344 496.738281 462.207031 498.558594 C 462.390625 500.382812 462.480469 502.210938 462.484375 504.042969 C 462.480469 504.828125 462.441406 505.609375 462.367188 506.390625 C 462.289062 507.171875 462.171875 507.949219 462.019531 508.71875 C 461.863281 509.488281 461.671875 510.246094 461.445312 511 C 461.214844 511.75 460.953125 512.488281 460.652344 513.214844 C 460.351562 513.9375 460.015625 514.648438 459.644531 515.339844 C 459.273438 516.03125 458.871094 516.703125 458.433594 517.355469 C 458 518.007812 457.53125 518.636719 457.03125 519.246094 C 456.535156 519.851562 456.007812 520.433594 455.453125 520.988281 C 454.898438 521.542969 454.316406 522.070312 453.710938 522.566406 C 453.105469 523.066406 452.472656 523.53125 451.820312 523.96875 C 451.167969 524.40625 450.496094 524.808594 449.804688 525.179688 C 449.113281 525.550781 448.402344 525.886719 447.679688 526.1875 C 446.953125 526.488281 446.214844 526.75 445.464844 526.980469 C 444.714844 527.207031 443.953125 527.398438 443.183594 527.554688 C 442.414062 527.707031 441.636719 527.820312 440.855469 527.898438 C 440.074219 527.976562 439.292969 528.015625 438.507812 528.019531 Z M 438.507812 528.019531 " fill-opacity="1" fill-rule="nonzero"/><path fill="#000000" d="M 425.242188 591.953125 L 230.714844 591.953125 C 230.191406 591.953125 229.671875 591.902344 229.15625 591.800781 C 228.640625 591.699219 228.140625 591.546875 227.65625 591.34375 C 227.171875 591.144531 226.710938 590.898438 226.273438 590.605469 C 225.839844 590.316406 225.433594 589.984375 225.0625 589.613281 C 224.691406 589.242188 224.359375 588.839844 224.070312 588.402344 C 223.777344 587.964844 223.53125 587.503906 223.332031 587.019531 C 223.128906 586.535156 222.980469 586.035156 222.875 585.519531 C 222.773438 585.007812 222.722656 584.488281 222.722656 583.960938 C 222.722656 583.4375 222.773438 582.917969 222.875 582.402344 C 222.980469 581.886719 223.128906 581.386719 223.332031 580.902344 C 223.53125 580.417969 223.777344 579.957031 224.070312 579.523438 C 224.359375 579.085938 224.691406 578.683594 225.0625 578.3125 C 225.433594 577.941406 225.839844 577.609375 226.273438 577.316406 C 226.710938 577.023438 227.171875 576.777344 227.65625 576.578125 C 228.140625 576.378906 228.640625 576.226562 229.15625 576.125 C 229.671875 576.019531 230.191406 575.96875 230.714844 575.96875 L 425.242188 575.96875 C 427.242188 575.96875 429.238281 575.863281 431.226562 575.648438 C 433.21875 575.4375 435.191406 575.117188 437.148438 574.6875 C 439.101562 574.261719 441.03125 573.734375 442.929688 573.101562 C 444.828125 572.464844 446.6875 571.734375 448.507812 570.898438 C 450.328125 570.066406 452.097656 569.136719 453.816406 568.113281 C 455.535156 567.089844 457.195312 565.976562 458.796875 564.777344 C 460.398438 563.574219 461.929688 562.289062 463.390625 560.921875 C 464.855469 559.554688 466.238281 558.113281 467.546875 556.597656 L 587.105469 418.175781 C 587.671875 417.527344 588.171875 416.832031 588.605469 416.085938 C 589.039062 415.34375 589.402344 414.5625 589.6875 413.75 C 589.972656 412.9375 590.183594 412.105469 590.3125 411.253906 C 590.441406 410.402344 590.488281 409.546875 590.453125 408.6875 C 590.421875 407.824219 590.308594 406.976562 590.113281 406.136719 C 589.921875 405.296875 589.648438 404.484375 589.300781 403.695312 C 588.953125 402.90625 588.535156 402.160156 588.042969 401.449219 C 587.554688 400.742188 587 400.085938 586.386719 399.480469 C 585.679688 398.792969 584.941406 398.136719 584.175781 397.515625 C 583.410156 396.894531 582.617188 396.304688 581.796875 395.753906 C 580.976562 395.203125 580.132812 394.691406 579.269531 394.214844 C 578.402344 393.738281 577.519531 393.300781 576.613281 392.90625 C 575.710938 392.507812 574.789062 392.152344 573.855469 391.839844 C 572.917969 391.527344 571.96875 391.253906 571.007812 391.023438 C 570.046875 390.796875 569.078125 390.609375 568.101562 390.46875 C 567.125 390.324219 566.144531 390.226562 565.15625 390.171875 C 564.171875 390.117188 563.183594 390.109375 562.199219 390.144531 C 561.210938 390.175781 560.226562 390.253906 559.246094 390.378906 C 558.265625 390.5 557.292969 390.664062 556.328125 390.875 C 555.363281 391.082031 554.410156 391.335938 553.46875 391.628906 C 552.527344 391.925781 551.597656 392.261719 550.6875 392.640625 C 549.773438 393.019531 548.878906 393.4375 548.003906 393.894531 C 547.128906 394.351562 546.277344 394.847656 545.445312 395.382812 C 544.617188 395.917969 543.8125 396.488281 543.03125 397.09375 L 444.695312 475.757812 C 444.289062 476.097656 443.851562 476.394531 443.382812 476.648438 C 442.914062 476.902344 442.425781 477.105469 441.917969 477.261719 C 441.410156 477.417969 440.890625 477.523438 440.363281 477.574219 C 439.832031 477.625 439.304688 477.625 438.773438 477.574219 C 438.246094 477.519531 437.726562 477.414062 437.21875 477.257812 C 436.710938 477.101562 436.222656 476.894531 435.757812 476.640625 C 435.289062 476.386719 434.851562 476.089844 434.445312 475.746094 C 434.035156 475.40625 433.667969 475.027344 433.335938 474.613281 C 433.003906 474.199219 432.714844 473.753906 432.472656 473.28125 C 432.226562 472.808594 432.035156 472.316406 431.886719 471.804688 C 431.742188 471.292969 431.648438 470.773438 431.609375 470.242188 C 431.566406 469.710938 431.578125 469.183594 431.640625 468.65625 C 431.707031 468.128906 431.824219 467.613281 431.988281 467.105469 C 432.15625 466.601562 432.371094 466.117188 432.636719 465.65625 C 432.898438 465.195312 433.207031 464.765625 433.554688 464.363281 C 433.90625 463.964844 434.292969 463.601562 434.714844 463.277344 L 533.015625 384.636719 C 534.167969 383.707031 535.359375 382.835938 536.59375 382.019531 C 537.824219 381.199219 539.089844 380.441406 540.394531 379.738281 C 541.695312 379.035156 543.027344 378.394531 544.386719 377.816406 C 545.746094 377.234375 547.128906 376.71875 548.539062 376.265625 C 549.945312 375.8125 551.371094 375.425781 552.816406 375.101562 C 554.257812 374.777344 555.714844 374.523438 557.179688 374.332031 C 558.648438 374.144531 560.121094 374.023438 561.597656 373.96875 C 563.074219 373.914062 564.550781 373.925781 566.027344 374.007812 C 567.507812 374.089844 568.976562 374.238281 570.4375 374.453125 C 571.902344 374.667969 573.351562 374.949219 574.789062 375.300781 C 576.226562 375.648438 577.644531 376.0625 579.042969 376.539062 C 580.445312 377.019531 581.820312 377.558594 583.167969 378.164062 C 584.519531 378.769531 585.835938 379.433594 587.125 380.160156 C 588.414062 380.882812 589.667969 381.667969 590.886719 382.507812 C 592.101562 383.347656 593.277344 384.242188 594.414062 385.191406 C 595.546875 386.136719 596.636719 387.136719 597.683594 388.183594 C 598.335938 388.839844 598.957031 389.527344 599.546875 390.242188 C 600.136719 390.957031 600.691406 391.699219 601.210938 392.464844 C 601.730469 393.234375 602.214844 394.023438 602.660156 394.835938 C 603.109375 395.648438 603.515625 396.480469 603.886719 397.328125 C 604.253906 398.179688 604.582031 399.046875 604.871094 399.925781 C 605.160156 400.804688 605.410156 401.699219 605.613281 402.601562 C 605.820312 403.507812 605.984375 404.417969 606.105469 405.335938 C 606.226562 406.257812 606.304688 407.179688 606.339844 408.105469 C 606.371094 409.03125 606.363281 409.957031 606.3125 410.882812 C 606.261719 411.808594 606.167969 412.730469 606.03125 413.644531 C 605.894531 414.5625 605.714844 415.472656 605.492188 416.371094 C 605.269531 417.273438 605.007812 418.160156 604.703125 419.035156 C 604.398438 419.910156 604.054688 420.769531 603.671875 421.613281 C 603.285156 422.457031 602.863281 423.28125 602.402344 424.085938 C 601.941406 424.890625 601.445312 425.671875 600.910156 426.429688 C 600.378906 427.1875 599.808594 427.917969 599.207031 428.621094 L 479.640625 567.050781 C 477.960938 568.996094 476.183594 570.851562 474.300781 572.605469 C 472.421875 574.363281 470.453125 576.015625 468.398438 577.558594 C 466.339844 579.105469 464.207031 580.535156 461.992188 581.851562 C 459.78125 583.167969 457.507812 584.359375 455.167969 585.429688 C 452.824219 586.503906 450.433594 587.445312 447.992188 588.261719 C 445.550781 589.074219 443.070312 589.757812 440.558594 590.304688 C 438.042969 590.851562 435.503906 591.265625 432.941406 591.539062 C 430.382812 591.816406 427.816406 591.953125 425.242188 591.953125 Z M 425.242188 591.953125 " fill-opacity="1" fill-rule="nonzero"/><path fill="#000000" d="M 382.5625 280.265625 C 381.777344 280.265625 380.996094 280.226562 380.214844 280.148438 C 379.429688 280.074219 378.65625 279.957031 377.886719 279.804688 C 377.117188 279.652344 376.355469 279.460938 375.601562 279.234375 C 374.851562 279.003906 374.113281 278.742188 373.386719 278.441406 C 372.664062 278.140625 371.953125 277.804688 371.261719 277.433594 C 370.566406 277.0625 369.894531 276.660156 369.242188 276.222656 C 368.589844 275.789062 367.960938 275.320312 367.351562 274.824219 C 366.746094 274.324219 366.164062 273.796875 365.609375 273.242188 C 365.054688 272.6875 364.527344 272.105469 364.03125 271.5 C 363.53125 270.890625 363.0625 270.261719 362.628906 269.609375 C 362.191406 268.957031 361.789062 268.285156 361.417969 267.589844 C 361.046875 266.898438 360.710938 266.191406 360.410156 265.464844 C 360.113281 264.738281 359.847656 264 359.621094 263.25 C 359.390625 262.496094 359.199219 261.738281 359.046875 260.964844 C 358.894531 260.195312 358.78125 259.421875 358.703125 258.640625 C 358.625 257.859375 358.585938 257.074219 358.585938 256.289062 C 358.585938 255.503906 358.625 254.71875 358.703125 253.9375 C 358.78125 253.15625 358.894531 252.382812 359.046875 251.613281 C 359.199219 250.839844 359.390625 250.082031 359.621094 249.328125 C 359.847656 248.578125 360.113281 247.839844 360.410156 247.113281 C 360.710938 246.386719 361.046875 245.679688 361.417969 244.988281 C 361.789062 244.292969 362.191406 243.621094 362.628906 242.96875 C 363.0625 242.316406 363.53125 241.6875 364.03125 241.078125 C 364.527344 240.472656 365.054688 239.890625 365.609375 239.335938 C 366.164062 238.78125 366.746094 238.253906 367.351562 237.753906 C 367.960938 237.257812 368.589844 236.789062 369.242188 236.355469 C 369.894531 235.917969 370.566406 235.515625 371.261719 235.144531 C 371.953125 234.773438 372.664062 234.4375 373.386719 234.136719 C 374.113281 233.835938 374.851562 233.574219 375.601562 233.34375 C 376.355469 233.117188 377.117188 232.925781 377.886719 232.773438 C 378.65625 232.621094 379.429688 232.503906 380.214844 232.429688 C 380.996094 232.351562 381.777344 232.3125 382.5625 232.3125 C 383.347656 232.3125 384.132812 232.351562 384.914062 232.429688 C 385.695312 232.503906 386.46875 232.621094 387.242188 232.773438 C 388.011719 232.925781 388.773438 233.117188 389.523438 233.34375 C 390.273438 233.574219 391.011719 233.835938 391.738281 234.136719 C 392.464844 234.4375 393.171875 234.773438 393.867188 235.144531 C 394.558594 235.515625 395.230469 235.917969 395.882812 236.355469 C 396.535156 236.789062 397.167969 237.257812 397.773438 237.753906 C 398.378906 238.253906 398.960938 238.78125 399.515625 239.335938 C 400.070312 239.890625 400.597656 240.472656 401.097656 241.078125 C 401.59375 241.6875 402.0625 242.316406 402.5 242.96875 C 402.933594 243.621094 403.339844 244.292969 403.707031 244.988281 C 404.078125 245.679688 404.414062 246.386719 404.714844 247.113281 C 405.015625 247.839844 405.277344 248.578125 405.507812 249.328125 C 405.734375 250.082031 405.925781 250.839844 406.078125 251.613281 C 406.230469 252.382812 406.347656 253.15625 406.421875 253.9375 C 406.5 254.71875 406.539062 255.503906 406.539062 256.289062 C 406.539062 256.8125 406.488281 257.332031 406.386719 257.847656 C 406.28125 258.363281 406.132812 258.863281 405.929688 259.347656 C 405.730469 259.832031 405.484375 260.292969 405.191406 260.730469 C 404.902344 261.164062 404.570312 261.570312 404.199219 261.941406 C 403.828125 262.3125 403.421875 262.644531 402.988281 262.933594 C 402.550781 263.226562 402.089844 263.472656 401.605469 263.671875 C 401.121094 263.875 400.621094 264.023438 400.105469 264.128906 C 399.589844 264.230469 399.070312 264.28125 398.546875 264.28125 C 398.023438 264.28125 397.503906 264.230469 396.988281 264.128906 C 396.472656 264.023438 395.972656 263.875 395.488281 263.671875 C 395.003906 263.472656 394.542969 263.226562 394.105469 262.933594 C 393.671875 262.644531 393.265625 262.3125 392.894531 261.941406 C 392.523438 261.570312 392.195312 261.164062 391.902344 260.730469 C 391.609375 260.292969 391.363281 259.832031 391.164062 259.347656 C 390.960938 258.863281 390.8125 258.363281 390.707031 257.847656 C 390.605469 257.332031 390.554688 256.8125 390.554688 256.289062 C 390.554688 255.765625 390.503906 255.246094 390.402344 254.730469 C 390.300781 254.214844 390.148438 253.714844 389.945312 253.230469 C 389.746094 252.746094 389.5 252.285156 389.207031 251.847656 C 388.917969 251.414062 388.585938 251.007812 388.214844 250.636719 C 387.84375 250.265625 387.441406 249.9375 387.003906 249.644531 C 386.566406 249.351562 386.105469 249.105469 385.621094 248.90625 C 385.136719 248.703125 384.636719 248.554688 384.121094 248.449219 C 383.609375 248.347656 383.085938 248.296875 382.5625 248.296875 C 382.039062 248.296875 381.519531 248.347656 381.003906 248.449219 C 380.488281 248.554688 379.988281 248.703125 379.503906 248.90625 C 379.019531 249.105469 378.558594 249.351562 378.121094 249.644531 C 377.6875 249.9375 377.28125 250.265625 376.910156 250.636719 C 376.539062 251.007812 376.210938 251.414062 375.917969 251.847656 C 375.625 252.285156 375.378906 252.746094 375.179688 253.230469 C 374.980469 253.714844 374.828125 254.214844 374.726562 254.730469 C 374.621094 255.246094 374.570312 255.765625 374.570312 256.289062 C 374.570312 256.8125 374.621094 257.332031 374.726562 257.847656 C 374.828125 258.363281 374.980469 258.863281 375.179688 259.347656 C 375.378906 259.832031 375.625 260.292969 375.917969 260.730469 C 376.210938 261.164062 376.539062 261.570312 376.910156 261.941406 C 377.28125 262.3125 377.6875 262.644531 378.121094 262.933594 C 378.558594 263.226562 379.019531 263.472656 379.503906 263.671875 C 379.988281 263.875 380.488281 264.023438 381.003906 264.128906 C 381.519531 264.230469 382.039062 264.28125 382.5625 264.28125 C 383.085938 264.28125 383.609375 264.332031 384.121094 264.433594 C 384.636719 264.535156 385.136719 264.6875 385.621094 264.890625 C 386.105469 265.089844 386.566406 265.335938 387.003906 265.628906 C 387.441406 265.917969 387.84375 266.25 388.214844 266.621094 C 388.585938 266.992188 388.917969 267.398438 389.207031 267.832031 C 389.5 268.269531 389.746094 268.730469 389.945312 269.214844 C 390.148438 269.699219 390.300781 270.199219 390.402344 270.714844 C 390.503906 271.230469 390.554688 271.75 390.554688 272.273438 C 390.554688 272.796875 390.503906 273.316406 390.402344 273.832031 C 390.300781 274.347656 390.148438 274.847656 389.945312 275.332031 C 389.746094 275.816406 389.5 276.277344 389.207031 276.714844 C 388.917969 277.148438 388.585938 277.554688 388.214844 277.925781 C 387.84375 278.296875 387.441406 278.625 387.003906 278.917969 C 386.566406 279.210938 386.105469 279.457031 385.621094 279.65625 C 385.136719 279.859375 384.636719 280.007812 384.121094 280.113281 C 383.609375 280.214844 383.085938 280.265625 382.5625 280.265625 Z M 382.5625 280.265625 " fill-opacity="1" fill-rule="nonzero"/><path fill="#000000" d="M 382.5625 312.234375 C 381.777344 312.234375 380.996094 312.191406 380.214844 312.117188 C 379.433594 312.039062 378.65625 311.921875 377.886719 311.769531 C 377.117188 311.613281 376.355469 311.421875 375.605469 311.195312 C 374.855469 310.964844 374.117188 310.703125 373.390625 310.402344 C 372.667969 310.101562 371.957031 309.765625 371.265625 309.394531 C 370.574219 309.023438 369.902344 308.621094 369.25 308.183594 C 368.597656 307.75 367.964844 307.28125 367.359375 306.78125 C 366.753906 306.285156 366.171875 305.757812 365.617188 305.203125 C 365.0625 304.648438 364.535156 304.066406 364.039062 303.460938 C 363.539062 302.855469 363.070312 302.222656 362.636719 301.570312 C 362.199219 300.917969 361.796875 300.246094 361.425781 299.554688 C 361.054688 298.863281 360.71875 298.152344 360.417969 297.429688 C 360.117188 296.703125 359.855469 295.964844 359.625 295.214844 C 359.398438 294.464844 359.207031 293.703125 359.050781 292.933594 C 358.898438 292.164062 358.78125 291.386719 358.703125 290.605469 C 358.628906 289.824219 358.585938 289.042969 358.585938 288.257812 C 358.585938 287.734375 358.636719 287.210938 358.742188 286.699219 C 358.84375 286.183594 358.996094 285.683594 359.195312 285.199219 C 359.394531 284.714844 359.640625 284.253906 359.933594 283.816406 C 360.226562 283.378906 360.558594 282.976562 360.929688 282.605469 C 361.300781 282.234375 361.703125 281.902344 362.140625 281.613281 C 362.574219 281.320312 363.035156 281.074219 363.519531 280.875 C 364.003906 280.671875 364.503906 280.519531 365.019531 280.417969 C 365.535156 280.316406 366.054688 280.265625 366.578125 280.265625 C 367.105469 280.265625 367.625 280.316406 368.136719 280.417969 C 368.652344 280.519531 369.152344 280.671875 369.636719 280.875 C 370.121094 281.074219 370.582031 281.320312 371.019531 281.613281 C 371.457031 281.902344 371.859375 282.234375 372.230469 282.605469 C 372.601562 282.976562 372.933594 283.378906 373.222656 283.816406 C 373.515625 284.253906 373.761719 284.714844 373.960938 285.199219 C 374.164062 285.683594 374.316406 286.183594 374.417969 286.699219 C 374.519531 287.210938 374.570312 287.734375 374.570312 288.257812 C 374.570312 288.78125 374.621094 289.300781 374.726562 289.816406 C 374.828125 290.332031 374.980469 290.832031 375.179688 291.316406 C 375.378906 291.800781 375.625 292.261719 375.917969 292.699219 C 376.210938 293.132812 376.539062 293.539062 376.910156 293.910156 C 377.28125 294.28125 377.6875 294.609375 378.121094 294.902344 C 378.558594 295.195312 379.019531 295.441406 379.503906 295.640625 C 379.988281 295.839844 380.488281 295.992188 381.003906 296.09375 C 381.519531 296.199219 382.039062 296.25 382.5625 296.25 C 383.085938 296.25 383.609375 296.199219 384.121094 296.09375 C 384.636719 295.992188 385.136719 295.839844 385.621094 295.640625 C 386.105469 295.441406 386.566406 295.195312 387.003906 294.902344 C 387.441406 294.609375 387.84375 294.28125 388.214844 293.910156 C 388.585938 293.539062 388.917969 293.132812 389.207031 292.699219 C 389.5 292.261719 389.746094 291.800781 389.945312 291.316406 C 390.148438 290.832031 390.300781 290.332031 390.402344 289.816406 C 390.503906 289.300781 390.554688 288.78125 390.554688 288.257812 C 390.554688 287.734375 390.503906 287.210938 390.402344 286.699219 C 390.300781 286.183594 390.148438 285.683594 389.945312 285.199219 C 389.746094 284.714844 389.5 284.253906 389.207031 283.816406 C 388.917969 283.378906 388.585938 282.976562 388.214844 282.605469 C 387.84375 282.234375 387.441406 281.902344 387.003906 281.613281 C 386.566406 281.320312 386.105469 281.074219 385.621094 280.875 C 385.136719 280.671875 384.636719 280.519531 384.121094 280.417969 C 383.609375 280.316406 383.085938 280.265625 382.5625 280.265625 C 382.039062 280.265625 381.519531 280.214844 381.003906 280.113281 C 380.488281 280.007812 379.988281 279.859375 379.503906 279.65625 C 379.019531 279.457031 378.558594 279.210938 378.121094 278.917969 C 377.6875 278.625 377.28125 278.296875 376.910156 277.925781 C 376.539062 277.554688 376.210938 277.148438 375.917969 276.714844 C 375.625 276.277344 375.378906 275.816406 375.179688 275.332031 C 374.980469 274.847656 374.828125 274.347656 374.726562 273.832031 C 374.621094 273.316406 374.570312 272.796875 374.570312 272.273438 C 374.570312 271.75 374.621094 271.230469 374.726562 270.714844 C 374.828125 270.199219 374.980469 269.699219 375.179688 269.214844 C 375.378906 268.730469 375.625 268.269531 375.917969 267.832031 C 376.210938 267.398438 376.539062 266.992188 376.910156 266.621094 C 377.28125 266.25 377.6875 265.917969 378.121094 265.628906 C 378.558594 265.335938 379.019531 265.089844 379.503906 264.890625 C 379.988281 264.6875 380.488281 264.535156 381.003906 264.433594 C 381.519531 264.332031 382.039062 264.28125 382.5625 264.28125 C 383.347656 264.28125 384.132812 264.320312 384.914062 264.398438 C 385.695312 264.472656 386.46875 264.589844 387.242188 264.742188 C 388.011719 264.894531 388.773438 265.085938 389.523438 265.3125 C 390.273438 265.542969 391.011719 265.804688 391.738281 266.105469 C 392.464844 266.40625 393.171875 266.742188 393.867188 267.113281 C 394.558594 267.480469 395.230469 267.886719 395.882812 268.320312 C 396.535156 268.757812 397.167969 269.226562 397.773438 269.722656 C 398.378906 270.222656 398.960938 270.75 399.515625 271.304688 C 400.070312 271.859375 400.597656 272.441406 401.097656 273.046875 C 401.59375 273.652344 402.0625 274.285156 402.5 274.9375 C 402.933594 275.589844 403.339844 276.261719 403.707031 276.953125 C 404.078125 277.648438 404.414062 278.355469 404.714844 279.082031 C 405.015625 279.808594 405.277344 280.546875 405.507812 281.296875 C 405.734375 282.046875 405.925781 282.808594 406.078125 283.578125 C 406.230469 284.351562 406.347656 285.125 406.421875 285.90625 C 406.5 286.6875 406.539062 287.472656 406.539062 288.257812 C 406.539062 289.042969 406.5 289.824219 406.421875 290.605469 C 406.347656 291.390625 406.230469 292.164062 406.078125 292.933594 C 405.925781 293.703125 405.734375 294.464844 405.507812 295.21875 C 405.277344 295.96875 405.015625 296.707031 404.714844 297.433594 C 404.414062 298.15625 404.078125 298.867188 403.707031 299.558594 C 403.339844 300.253906 402.933594 300.925781 402.5 301.578125 C 402.0625 302.230469 401.59375 302.859375 401.097656 303.46875 C 400.597656 304.074219 400.070312 304.65625 399.515625 305.210938 C 398.960938 305.765625 398.378906 306.292969 397.773438 306.789062 C 397.167969 307.289062 396.535156 307.757812 395.882812 308.191406 C 395.230469 308.628906 394.558594 309.03125 393.867188 309.402344 C 393.171875 309.773438 392.464844 310.109375 391.738281 310.410156 C 391.011719 310.707031 390.273438 310.972656 389.523438 311.199219 C 388.773438 311.429688 388.011719 311.621094 387.242188 311.773438 C 386.46875 311.925781 385.695312 312.039062 384.914062 312.117188 C 384.132812 312.195312 383.347656 312.234375 382.5625 312.234375 Z M 382.5625 312.234375 " fill-opacity="1" fill-rule="nonzero"/><path fill="#000000" d="M 382.5625 248.296875 C 382.039062 248.296875 381.519531 248.246094 381.003906 248.144531 C 380.488281 248.042969 379.988281 247.890625 379.503906 247.6875 C 379.019531 247.488281 378.558594 247.242188 378.121094 246.949219 C 377.6875 246.660156 377.28125 246.328125 376.910156 245.957031 C 376.539062 245.585938 376.210938 245.179688 375.917969 244.746094 C 375.625 244.308594 375.378906 243.847656 375.179688 243.363281 C 374.980469 242.878906 374.828125 242.378906 374.726562 241.863281 C 374.621094 241.347656 374.570312 240.828125 374.570312 240.304688 L 374.570312 232.3125 C 374.570312 231.789062 374.621094 231.269531 374.726562 230.753906 C 374.828125 230.238281 374.980469 229.738281 375.179688 229.253906 C 375.378906 228.769531 375.625 228.308594 375.917969 227.871094 C 376.210938 227.4375 376.539062 227.03125 376.910156 226.660156 C 377.28125 226.289062 377.6875 225.960938 378.121094 225.667969 C 378.558594 225.375 379.019531 225.128906 379.503906 224.929688 C 379.988281 224.730469 380.488281 224.578125 381.003906 224.476562 C 381.519531 224.371094 382.039062 224.320312 382.5625 224.320312 C 383.085938 224.320312 383.609375 224.371094 384.121094 224.476562 C 384.636719 224.578125 385.136719 224.730469 385.621094 224.929688 C 386.105469 225.128906 386.566406 225.375 387.003906 225.667969 C 387.441406 225.960938 387.84375 226.289062 388.214844 226.660156 C 388.585938 227.03125 388.917969 227.4375 389.207031 227.871094 C 389.5 228.308594 389.746094 228.769531 389.945312 229.253906 C 390.148438 229.738281 390.300781 230.238281 390.402344 230.753906 C 390.503906 231.269531 390.554688 231.789062 390.554688 232.3125 L 390.554688 240.304688 C 390.554688 240.828125 390.503906 241.347656 390.402344 241.863281 C 390.300781 242.378906 390.148438 242.878906 389.945312 243.363281 C 389.746094 243.847656 389.5 244.308594 389.207031 244.746094 C 388.917969 245.179688 388.585938 245.585938 388.214844 245.957031 C 387.84375 246.328125 387.441406 246.660156 387.003906 246.949219 C 386.566406 247.242188 386.105469 247.488281 385.621094 247.6875 C 385.136719 247.890625 384.636719 248.042969 384.121094 248.144531 C 383.609375 248.246094 383.085938 248.296875 382.5625 248.296875 Z M 382.5625 248.296875 " fill-opacity="1" fill-rule="nonzero"/><path fill="#000000" d="M 382.5625 320.226562 C 382.039062 320.226562 381.519531 320.175781 381.003906 320.070312 C 380.488281 319.96875 379.988281 319.816406 379.503906 319.617188 C 379.019531 319.417969 378.558594 319.171875 378.121094 318.878906 C 377.6875 318.585938 377.28125 318.253906 376.910156 317.882812 C 376.539062 317.511719 376.210938 317.109375 375.917969 316.671875 C 375.625 316.238281 375.378906 315.777344 375.179688 315.292969 C 374.980469 314.808594 374.828125 314.308594 374.726562 313.792969 C 374.621094 313.277344 374.570312 312.757812 374.570312 312.234375 L 374.570312 304.242188 C 374.570312 303.714844 374.621094 303.195312 374.726562 302.683594 C 374.828125 302.167969 374.980469 301.667969 375.179688 301.183594 C 375.378906 300.699219 375.625 300.238281 375.917969 299.800781 C 376.210938 299.363281 376.539062 298.960938 376.910156 298.589844 C 377.28125 298.21875 377.6875 297.886719 378.121094 297.597656 C 378.558594 297.304688 379.019531 297.058594 379.503906 296.859375 C 379.988281 296.65625 380.488281 296.503906 381.003906 296.402344 C 381.519531 296.300781 382.039062 296.25 382.5625 296.25 C 383.085938 296.25 383.609375 296.300781 384.121094 296.402344 C 384.636719 296.503906 385.136719 296.65625 385.621094 296.859375 C 386.105469 297.058594 386.566406 297.304688 387.003906 297.597656 C 387.441406 297.886719 387.84375 298.21875 388.214844 298.589844 C 388.585938 298.960938 388.917969 299.363281 389.207031 299.800781 C 389.5 300.238281 389.746094 300.699219 389.945312 301.183594 C 390.148438 301.667969 390.300781 302.167969 390.402344 302.683594 C 390.503906 303.195312 390.554688 303.714844 390.554688 304.242188 L 390.554688 312.234375 C 390.554688 312.757812 390.503906 313.277344 390.402344 313.792969 C 390.300781 314.308594 390.148438 314.808594 389.945312 315.292969 C 389.746094 315.777344 389.5 316.238281 389.207031 316.671875 C 388.917969 317.109375 388.585938 317.511719 388.214844 317.882812 C 387.84375 318.253906 387.441406 318.585938 387.003906 318.878906 C 386.566406 319.171875 386.105469 319.417969 385.621094 319.617188 C 385.136719 319.816406 384.636719 319.96875 384.121094 320.070312 C 383.609375 320.175781 383.085938 320.226562 382.5625 320.226562 Z M 382.5625 320.226562 " fill-opacity="1" fill-rule="nonzero"/><path fill="#000000" d="M 382.5625 352.195312 C 381.253906 352.195312 379.949219 352.160156 378.640625 352.097656 C 377.335938 352.03125 376.03125 351.9375 374.730469 351.808594 C 373.429688 351.679688 372.128906 351.519531 370.835938 351.328125 C 369.542969 351.136719 368.253906 350.914062 366.972656 350.65625 C 365.6875 350.402344 364.414062 350.117188 363.144531 349.796875 C 361.875 349.480469 360.613281 349.132812 359.363281 348.753906 C 358.113281 348.371094 356.871094 347.960938 355.640625 347.523438 C 354.40625 347.082031 353.1875 346.609375 351.980469 346.109375 C 350.769531 345.609375 349.574219 345.078125 348.394531 344.519531 C 347.210938 343.960938 346.042969 343.375 344.890625 342.757812 C 343.734375 342.140625 342.597656 341.496094 341.476562 340.824219 C 340.355469 340.152344 339.25 339.449219 338.160156 338.722656 C 337.074219 337.996094 336.003906 337.246094 334.953125 336.464844 C 333.902344 335.6875 332.875 334.882812 331.863281 334.050781 C 330.851562 333.222656 329.859375 332.367188 328.890625 331.488281 C 327.921875 330.613281 326.976562 329.710938 326.050781 328.785156 C 325.125 327.859375 324.222656 326.914062 323.347656 325.945312 C 322.46875 324.976562 321.613281 323.984375 320.785156 322.972656 C 319.953125 321.964844 319.148438 320.933594 318.371094 319.882812 C 317.589844 318.832031 316.839844 317.761719 316.113281 316.675781 C 315.386719 315.585938 314.6875 314.480469 314.011719 313.359375 C 313.339844 312.238281 312.695312 311.101562 312.078125 309.949219 C 311.464844 308.792969 310.875 307.625 310.316406 306.445312 C 309.757812 305.261719 309.226562 304.066406 308.726562 302.855469 C 308.226562 301.648438 307.753906 300.429688 307.316406 299.199219 C 306.875 297.964844 306.464844 296.722656 306.085938 295.472656 C 305.703125 294.222656 305.355469 292.960938 305.039062 291.691406 C 304.71875 290.421875 304.433594 289.148438 304.179688 287.863281 C 303.921875 286.582031 303.699219 285.292969 303.507812 284 C 303.316406 282.707031 303.15625 281.410156 303.027344 280.105469 C 302.898438 278.804688 302.804688 277.5 302.738281 276.195312 C 302.675781 274.886719 302.644531 273.582031 302.644531 272.273438 C 302.644531 270.964844 302.675781 269.65625 302.738281 268.351562 C 302.804688 267.046875 302.898438 265.742188 303.027344 264.441406 C 303.15625 263.136719 303.316406 261.839844 303.507812 260.546875 C 303.699219 259.253906 303.921875 257.964844 304.179688 256.679688 C 304.433594 255.398438 304.71875 254.121094 305.039062 252.855469 C 305.355469 251.585938 305.703125 250.324219 306.085938 249.074219 C 306.464844 247.820312 306.875 246.582031 307.316406 245.347656 C 307.753906 244.117188 308.226562 242.898438 308.726562 241.6875 C 309.226562 240.480469 309.757812 239.285156 310.316406 238.101562 C 310.875 236.921875 311.464844 235.753906 312.078125 234.597656 C 312.695312 233.445312 313.339844 232.308594 314.011719 231.1875 C 314.6875 230.0625 315.386719 228.960938 316.113281 227.871094 C 316.839844 226.785156 317.589844 225.714844 318.371094 224.664062 C 319.148438 223.613281 319.953125 222.582031 320.785156 221.574219 C 321.613281 220.5625 322.46875 219.570312 323.347656 218.601562 C 324.222656 217.632812 325.125 216.6875 326.050781 215.761719 C 326.976562 214.835938 327.921875 213.933594 328.890625 213.054688 C 329.859375 212.179688 330.851562 211.324219 331.863281 210.492188 C 332.875 209.664062 333.902344 208.859375 334.953125 208.082031 C 336.003906 207.300781 337.074219 206.546875 338.160156 205.820312 C 339.25 205.09375 340.355469 204.394531 341.476562 203.722656 C 342.597656 203.050781 343.734375 202.40625 344.890625 201.789062 C 346.042969 201.171875 347.210938 200.585938 348.394531 200.027344 C 349.574219 199.46875 350.769531 198.9375 351.980469 198.4375 C 353.1875 197.9375 354.40625 197.464844 355.640625 197.023438 C 356.871094 196.585938 358.113281 196.175781 359.363281 195.792969 C 360.613281 195.414062 361.875 195.066406 363.144531 194.75 C 364.414062 194.429688 365.6875 194.144531 366.972656 193.886719 C 368.253906 193.632812 369.542969 193.410156 370.835938 193.21875 C 372.128906 193.027344 373.429688 192.867188 374.730469 192.738281 C 376.03125 192.609375 377.335938 192.511719 378.640625 192.449219 C 379.949219 192.386719 381.253906 192.351562 382.5625 192.351562 C 383.871094 192.351562 385.179688 192.386719 386.484375 192.449219 C 387.789062 192.511719 389.09375 192.609375 390.398438 192.738281 C 391.699219 192.867188 392.996094 193.027344 394.289062 193.21875 C 395.582031 193.410156 396.871094 193.632812 398.15625 193.886719 C 399.4375 194.144531 400.714844 194.429688 401.980469 194.75 C 403.25 195.066406 404.511719 195.414062 405.761719 195.792969 C 407.015625 196.175781 408.253906 196.585938 409.488281 197.023438 C 410.71875 197.464844 411.9375 197.9375 413.148438 198.4375 C 414.355469 198.9375 415.550781 199.46875 416.734375 200.027344 C 417.914062 200.585938 419.082031 201.171875 420.238281 201.789062 C 421.390625 202.40625 422.527344 203.050781 423.648438 203.722656 C 424.773438 204.394531 425.875 205.09375 426.964844 205.820312 C 428.050781 206.546875 429.121094 207.300781 430.171875 208.082031 C 431.222656 208.859375 432.253906 209.664062 433.265625 210.492188 C 434.273438 211.324219 435.265625 212.179688 436.234375 213.054688 C 437.203125 213.933594 438.148438 214.835938 439.074219 215.761719 C 440 216.6875 440.902344 217.632812 441.78125 218.601562 C 442.660156 219.570312 443.511719 220.5625 444.34375 221.574219 C 445.171875 222.582031 445.976562 223.613281 446.753906 224.664062 C 447.535156 225.714844 448.289062 226.785156 449.015625 227.871094 C 449.742188 228.960938 450.441406 230.0625 451.113281 231.1875 C 451.785156 232.308594 452.429688 233.445312 453.046875 234.597656 C 453.664062 235.753906 454.25 236.921875 454.808594 238.101562 C 455.371094 239.285156 455.898438 240.480469 456.398438 241.6875 C 456.898438 242.898438 457.371094 244.117188 457.8125 245.347656 C 458.253906 246.582031 458.664062 247.820312 459.042969 249.074219 C 459.421875 250.324219 459.769531 251.585938 460.089844 252.855469 C 460.40625 254.121094 460.691406 255.398438 460.949219 256.679688 C 461.203125 257.964844 461.425781 259.253906 461.617188 260.546875 C 461.808594 261.839844 461.96875 263.136719 462.097656 264.441406 C 462.226562 265.742188 462.324219 267.046875 462.386719 268.351562 C 462.453125 269.65625 462.484375 270.964844 462.484375 272.273438 C 462.480469 273.582031 462.449219 274.886719 462.382812 276.195312 C 462.316406 277.5 462.21875 278.804688 462.089844 280.105469 C 461.960938 281.40625 461.800781 282.703125 461.605469 283.996094 C 461.414062 285.289062 461.1875 286.578125 460.933594 287.859375 C 460.675781 289.140625 460.390625 290.417969 460.070312 291.683594 C 459.753906 292.953125 459.402344 294.210938 459.023438 295.464844 C 458.640625 296.714844 458.230469 297.953125 457.789062 299.1875 C 457.347656 300.417969 456.878906 301.636719 456.375 302.84375 C 455.875 304.050781 455.34375 305.246094 454.785156 306.429688 C 454.226562 307.609375 453.636719 308.777344 453.019531 309.929688 C 452.402344 311.082031 451.757812 312.21875 451.085938 313.339844 C 450.414062 314.460938 449.714844 315.566406 448.988281 316.652344 C 448.261719 317.742188 447.507812 318.808594 446.726562 319.859375 C 445.949219 320.910156 445.144531 321.941406 444.316406 322.949219 C 443.484375 323.960938 442.632812 324.949219 441.753906 325.917969 C 440.875 326.886719 439.972656 327.835938 439.050781 328.757812 C 438.125 329.683594 437.179688 330.585938 436.210938 331.464844 C 435.242188 332.339844 434.25 333.195312 433.238281 334.023438 C 432.230469 334.855469 431.199219 335.660156 430.148438 336.4375 C 429.097656 337.21875 428.03125 337.96875 426.945312 338.695312 C 425.855469 339.425781 424.753906 340.125 423.632812 340.796875 C 422.507812 341.46875 421.371094 342.113281 420.21875 342.730469 C 419.066406 343.347656 417.898438 343.933594 416.71875 344.496094 C 415.535156 345.054688 414.339844 345.585938 413.132812 346.085938 C 411.925781 346.585938 410.707031 347.058594 409.476562 347.5 C 408.246094 347.941406 407.003906 348.351562 405.753906 348.730469 C 404.5 349.113281 403.242188 349.460938 401.972656 349.78125 C 400.707031 350.097656 399.429688 350.386719 398.148438 350.644531 C 396.867188 350.898438 395.578125 351.125 394.285156 351.316406 C 392.992188 351.511719 391.695312 351.671875 390.394531 351.800781 C 389.09375 351.929688 387.789062 352.027344 386.484375 352.09375 C 385.175781 352.160156 383.871094 352.191406 382.5625 352.195312 Z M 382.5625 208.335938 C 381.515625 208.335938 380.472656 208.363281 379.425781 208.414062 C 378.378906 208.464844 377.335938 208.542969 376.296875 208.644531 C 375.253906 208.746094 374.214844 208.875 373.183594 209.027344 C 372.148438 209.183594 371.117188 209.363281 370.089844 209.566406 C 369.0625 209.769531 368.042969 210 367.027344 210.253906 C 366.011719 210.507812 365.003906 210.785156 364.003906 211.089844 C 363.003906 211.394531 362.007812 211.722656 361.023438 212.074219 C 360.039062 212.425781 359.0625 212.804688 358.097656 213.203125 C 357.128906 213.605469 356.171875 214.027344 355.226562 214.476562 C 354.28125 214.921875 353.347656 215.394531 352.421875 215.886719 C 351.5 216.378906 350.589844 216.894531 349.691406 217.433594 C 348.796875 217.972656 347.910156 218.53125 347.042969 219.113281 C 346.171875 219.695312 345.316406 220.296875 344.476562 220.917969 C 343.636719 221.542969 342.8125 222.1875 342.003906 222.851562 C 341.195312 223.515625 340.402344 224.195312 339.625 224.898438 C 338.851562 225.601562 338.09375 226.324219 337.351562 227.0625 C 336.613281 227.804688 335.890625 228.5625 335.191406 229.335938 C 334.488281 230.113281 333.804688 230.902344 333.140625 231.710938 C 332.476562 232.519531 331.832031 233.347656 331.210938 234.1875 C 330.585938 235.027344 329.984375 235.882812 329.402344 236.753906 C 328.820312 237.621094 328.261719 238.507812 327.722656 239.402344 C 327.183594 240.300781 326.667969 241.210938 326.175781 242.132812 C 325.683594 243.058594 325.210938 243.992188 324.765625 244.9375 C 324.316406 245.882812 323.894531 246.839844 323.492188 247.804688 C 323.09375 248.773438 322.71875 249.75 322.363281 250.734375 C 322.011719 251.71875 321.683594 252.710938 321.378906 253.714844 C 321.078125 254.714844 320.796875 255.722656 320.542969 256.738281 C 320.289062 257.753906 320.058594 258.773438 319.855469 259.800781 C 319.652344 260.824219 319.472656 261.855469 319.320312 262.890625 C 319.164062 263.925781 319.039062 264.964844 318.933594 266.007812 C 318.832031 267.046875 318.753906 268.089844 318.703125 269.136719 C 318.652344 270.179688 318.625 271.226562 318.625 272.273438 C 318.625 273.320312 318.652344 274.367188 318.703125 275.410156 C 318.753906 276.457031 318.832031 277.5 318.933594 278.539062 C 319.039062 279.582031 319.164062 280.621094 319.320312 281.65625 C 319.472656 282.691406 319.652344 283.71875 319.855469 284.746094 C 320.058594 285.773438 320.289062 286.792969 320.542969 287.808594 C 320.796875 288.824219 321.078125 289.832031 321.378906 290.832031 C 321.683594 291.835938 322.011719 292.828125 322.363281 293.8125 C 322.71875 294.796875 323.09375 295.773438 323.492188 296.742188 C 323.894531 297.707031 324.316406 298.664062 324.765625 299.609375 C 325.210938 300.554688 325.683594 301.488281 326.175781 302.414062 C 326.667969 303.335938 327.183594 304.246094 327.722656 305.144531 C 328.261719 306.039062 328.820312 306.925781 329.402344 307.792969 C 329.984375 308.664062 330.585938 309.519531 331.210938 310.359375 C 331.832031 311.199219 332.476562 312.023438 333.140625 312.832031 C 333.804688 313.644531 334.488281 314.433594 335.191406 315.210938 C 335.890625 315.984375 336.613281 316.742188 337.351562 317.484375 C 338.09375 318.222656 338.851562 318.945312 339.625 319.648438 C 340.402344 320.347656 341.195312 321.03125 342.003906 321.695312 C 342.8125 322.359375 343.636719 323.003906 344.476562 323.628906 C 345.316406 324.25 346.171875 324.851562 347.042969 325.433594 C 347.910156 326.015625 348.796875 326.574219 349.691406 327.113281 C 350.589844 327.652344 351.5 328.167969 352.421875 328.660156 C 353.347656 329.152344 354.28125 329.625 355.226562 330.070312 C 356.171875 330.519531 357.128906 330.941406 358.097656 331.34375 C 359.0625 331.742188 360.039062 332.121094 361.023438 332.472656 C 362.007812 332.824219 363.003906 333.152344 364.003906 333.457031 C 365.003906 333.761719 366.011719 334.039062 367.027344 334.292969 C 368.042969 334.546875 369.0625 334.777344 370.089844 334.980469 C 371.117188 335.183594 372.148438 335.363281 373.183594 335.515625 C 374.214844 335.671875 375.253906 335.800781 376.296875 335.902344 C 377.335938 336.003906 378.378906 336.082031 379.425781 336.132812 C 380.472656 336.183594 381.515625 336.210938 382.5625 336.210938 C 383.609375 336.210938 384.65625 336.183594 385.699219 336.132812 C 386.746094 336.082031 387.789062 336.003906 388.828125 335.902344 C 389.871094 335.800781 390.910156 335.671875 391.945312 335.515625 C 392.980469 335.363281 394.011719 335.183594 395.035156 334.980469 C 396.0625 334.777344 397.082031 334.546875 398.097656 334.292969 C 399.113281 334.039062 400.121094 333.761719 401.121094 333.457031 C 402.125 333.152344 403.117188 332.824219 404.101562 332.472656 C 405.085938 332.121094 406.0625 331.742188 407.03125 331.34375 C 407.996094 330.941406 408.953125 330.519531 409.898438 330.070312 C 410.84375 329.625 411.78125 329.152344 412.703125 328.660156 C 413.625 328.167969 414.535156 327.652344 415.433594 327.113281 C 416.332031 326.574219 417.214844 326.015625 418.085938 325.433594 C 418.953125 324.851562 419.808594 324.25 420.648438 323.628906 C 421.492188 323.003906 422.316406 322.359375 423.125 321.695312 C 423.933594 321.03125 424.726562 320.347656 425.5 319.648438 C 426.273438 318.945312 427.03125 318.222656 427.773438 317.484375 C 428.511719 316.742188 429.234375 315.984375 429.9375 315.210938 C 430.640625 314.433594 431.324219 313.644531 431.988281 312.832031 C 432.648438 312.023438 433.292969 311.199219 433.917969 310.359375 C 434.539062 309.519531 435.144531 308.664062 435.722656 307.792969 C 436.304688 306.925781 436.863281 306.039062 437.402344 305.144531 C 437.941406 304.246094 438.457031 303.335938 438.949219 302.414062 C 439.441406 301.488281 439.914062 300.554688 440.359375 299.609375 C 440.808594 298.664062 441.230469 297.707031 441.632812 296.742188 C 442.03125 295.773438 442.410156 294.796875 442.761719 293.8125 C 443.113281 292.828125 443.441406 291.835938 443.746094 290.832031 C 444.050781 289.832031 444.328125 288.824219 444.582031 287.808594 C 444.835938 286.792969 445.066406 285.773438 445.269531 284.746094 C 445.476562 283.71875 445.652344 282.691406 445.808594 281.65625 C 445.960938 280.621094 446.089844 279.582031 446.191406 278.539062 C 446.292969 277.5 446.371094 276.457031 446.421875 275.410156 C 446.472656 274.367188 446.5 273.320312 446.5 272.273438 C 446.5 271.226562 446.472656 270.183594 446.417969 269.136719 C 446.367188 268.09375 446.289062 267.050781 446.183594 266.007812 C 446.082031 264.96875 445.953125 263.929688 445.796875 262.894531 C 445.644531 261.859375 445.464844 260.832031 445.257812 259.804688 C 445.054688 258.777344 444.824219 257.757812 444.570312 256.746094 C 444.3125 255.730469 444.035156 254.722656 443.730469 253.722656 C 443.425781 252.722656 443.097656 251.726562 442.742188 250.742188 C 442.390625 249.757812 442.015625 248.785156 441.613281 247.816406 C 441.210938 246.851562 440.789062 245.894531 440.339844 244.949219 C 439.890625 244.003906 439.421875 243.070312 438.929688 242.148438 C 438.433594 241.226562 437.917969 240.316406 437.378906 239.417969 C 436.84375 238.523438 436.28125 237.640625 435.703125 236.769531 C 435.121094 235.898438 434.519531 235.046875 433.894531 234.207031 C 433.269531 233.363281 432.628906 232.539062 431.964844 231.730469 C 431.300781 230.921875 430.617188 230.132812 429.914062 229.355469 C 429.210938 228.582031 428.492188 227.824219 427.75 227.085938 C 427.011719 226.34375 426.253906 225.625 425.480469 224.921875 C 424.703125 224.21875 423.914062 223.535156 423.105469 222.871094 C 422.296875 222.207031 421.472656 221.566406 420.632812 220.941406 C 419.792969 220.320312 418.9375 219.714844 418.066406 219.136719 C 417.195312 218.554688 416.3125 217.992188 415.417969 217.457031 C 414.519531 216.917969 413.609375 216.402344 412.6875 215.90625 C 411.765625 215.414062 410.832031 214.945312 409.886719 214.496094 C 408.941406 214.046875 407.984375 213.625 407.019531 213.222656 C 406.054688 212.824219 405.078125 212.445312 404.09375 212.09375 C 403.109375 211.738281 402.117188 211.410156 401.113281 211.105469 C 400.113281 210.800781 399.105469 210.523438 398.089844 210.269531 C 397.078125 210.011719 396.058594 209.78125 395.03125 209.578125 C 394.003906 209.371094 392.976562 209.191406 391.941406 209.039062 C 390.90625 208.882812 389.867188 208.753906 388.828125 208.652344 C 387.785156 208.546875 386.742188 208.46875 385.699219 208.417969 C 384.65625 208.363281 383.609375 208.339844 382.5625 208.335938 Z M 382.5625 208.335938 " fill-opacity="1" fill-rule="nonzero"/><path fill="#000000" d="M 382.5625 384.160156 C 380.730469 384.160156 378.902344 384.117188 377.074219 384.027344 C 375.242188 383.9375 373.417969 383.800781 371.597656 383.621094 C 369.773438 383.441406 367.957031 383.21875 366.144531 382.949219 C 364.335938 382.683594 362.53125 382.367188 360.734375 382.011719 C 358.9375 381.65625 357.152344 381.253906 355.375 380.808594 C 353.601562 380.363281 351.835938 379.875 350.082031 379.34375 C 348.332031 378.8125 346.59375 378.238281 344.867188 377.621094 C 343.144531 377.003906 341.4375 376.34375 339.746094 375.644531 C 338.054688 374.945312 336.378906 374.203125 334.726562 373.417969 C 333.070312 372.636719 331.433594 371.8125 329.820312 370.949219 C 328.203125 370.085938 326.613281 369.183594 325.039062 368.242188 C 323.46875 367.300781 321.921875 366.320312 320.402344 365.304688 C 318.878906 364.289062 317.382812 363.234375 315.910156 362.144531 C 314.441406 361.050781 312.996094 359.925781 311.582031 358.765625 C 310.167969 357.601562 308.78125 356.40625 307.421875 355.175781 C 306.066406 353.945312 304.742188 352.683594 303.445312 351.390625 C 302.152344 350.09375 300.890625 348.769531 299.660156 347.414062 C 298.429688 346.054688 297.234375 344.667969 296.070312 343.253906 C 294.910156 341.839844 293.785156 340.394531 292.695312 338.925781 C 291.601562 337.453125 290.546875 335.957031 289.53125 334.433594 C 288.515625 332.914062 287.535156 331.367188 286.59375 329.796875 C 285.652344 328.226562 284.75 326.632812 283.886719 325.015625 C 283.023438 323.402344 282.199219 321.765625 281.417969 320.113281 C 280.632812 318.457031 279.890625 316.78125 279.191406 315.089844 C 278.492188 313.398438 277.832031 311.691406 277.214844 309.96875 C 276.597656 308.242188 276.023438 306.503906 275.492188 304.753906 C 274.960938 303 274.472656 301.234375 274.027344 299.460938 C 273.582031 297.683594 273.183594 295.898438 272.824219 294.101562 C 272.46875 292.304688 272.15625 290.5 271.886719 288.691406 C 271.617188 286.878906 271.394531 285.0625 271.214844 283.238281 C 271.035156 281.417969 270.898438 279.59375 270.808594 277.761719 C 270.71875 275.933594 270.675781 274.105469 270.675781 272.273438 C 270.675781 270.441406 270.71875 268.613281 270.808594 266.78125 C 270.898438 264.953125 271.035156 263.128906 271.214844 261.304688 C 271.394531 259.484375 271.617188 257.667969 271.886719 255.855469 C 272.15625 254.042969 272.46875 252.242188 272.824219 250.445312 C 273.183594 248.648438 273.582031 246.863281 274.027344 245.085938 C 274.472656 243.308594 274.960938 241.546875 275.492188 239.792969 C 276.023438 238.042969 276.597656 236.304688 277.214844 234.578125 C 277.832031 232.855469 278.492188 231.148438 279.191406 229.457031 C 279.890625 227.761719 280.632812 226.089844 281.417969 224.433594 C 282.199219 222.78125 283.023438 221.144531 283.886719 219.53125 C 284.75 217.914062 285.652344 216.320312 286.59375 214.75 C 287.535156 213.179688 288.515625 211.632812 289.53125 210.113281 C 290.546875 208.589844 291.601562 207.09375 292.695312 205.621094 C 293.785156 204.152344 294.910156 202.707031 296.070312 201.292969 C 297.234375 199.875 298.429688 198.492188 299.660156 197.132812 C 300.890625 195.777344 302.152344 194.449219 303.445312 193.15625 C 304.742188 191.863281 306.066406 190.597656 307.421875 189.371094 C 308.78125 188.140625 310.167969 186.945312 311.582031 185.78125 C 312.996094 184.621094 314.441406 183.496094 315.910156 182.402344 C 317.382812 181.3125 318.878906 180.257812 320.402344 179.242188 C 321.921875 178.222656 323.46875 177.246094 325.039062 176.304688 C 326.613281 175.363281 328.203125 174.460938 329.820312 173.597656 C 331.433594 172.734375 333.070312 171.910156 334.726562 171.128906 C 336.378906 170.34375 338.054688 169.601562 339.746094 168.902344 C 341.4375 168.199219 343.144531 167.542969 344.867188 166.925781 C 346.59375 166.308594 348.332031 165.734375 350.082031 165.203125 C 351.835938 164.671875 353.601562 164.183594 355.375 163.738281 C 357.152344 163.292969 358.9375 162.890625 360.734375 162.535156 C 362.53125 162.175781 364.335938 161.863281 366.144531 161.597656 C 367.957031 161.328125 369.773438 161.101562 371.597656 160.921875 C 373.417969 160.746094 375.242188 160.609375 377.074219 160.519531 C 378.902344 160.429688 380.730469 160.386719 382.5625 160.386719 C 384.394531 160.386719 386.222656 160.429688 388.054688 160.519531 C 389.882812 160.609375 391.707031 160.746094 393.53125 160.921875 C 395.351562 161.101562 397.167969 161.328125 398.980469 161.597656 C 400.792969 161.863281 402.59375 162.175781 404.390625 162.535156 C 406.1875 162.890625 407.972656 163.292969 409.75 163.738281 C 411.527344 164.183594 413.289062 164.671875 415.042969 165.203125 C 416.792969 165.734375 418.53125 166.308594 420.257812 166.925781 C 421.980469 167.542969 423.6875 168.199219 425.378906 168.902344 C 427.074219 169.601562 428.746094 170.34375 430.402344 171.128906 C 432.058594 171.910156 433.691406 172.734375 435.308594 173.597656 C 436.921875 174.460938 438.515625 175.363281 440.085938 176.304688 C 441.65625 177.246094 443.203125 178.222656 444.726562 179.242188 C 446.246094 180.257812 447.742188 181.3125 449.214844 182.402344 C 450.6875 183.496094 452.128906 184.621094 453.542969 185.78125 C 454.960938 186.945312 456.347656 188.140625 457.703125 189.371094 C 459.058594 190.597656 460.386719 191.863281 461.679688 193.15625 C 462.976562 194.449219 464.238281 195.777344 465.46875 197.132812 C 466.695312 198.492188 467.890625 199.875 469.054688 201.292969 C 470.214844 202.707031 471.339844 204.152344 472.433594 205.621094 C 473.523438 207.09375 474.578125 208.589844 475.59375 210.113281 C 476.613281 211.632812 477.589844 213.179688 478.53125 214.75 C 479.472656 216.320312 480.375 217.914062 481.238281 219.53125 C 482.101562 221.144531 482.925781 222.78125 483.707031 224.433594 C 484.492188 226.089844 485.234375 227.761719 485.933594 229.457031 C 486.636719 231.148438 487.292969 232.855469 487.910156 234.578125 C 488.527344 236.304688 489.101562 238.042969 489.632812 239.792969 C 490.164062 241.546875 490.652344 243.308594 491.097656 245.085938 C 491.542969 246.863281 491.945312 248.648438 492.300781 250.445312 C 492.660156 252.242188 492.972656 254.042969 493.242188 255.855469 C 493.507812 257.667969 493.734375 259.484375 493.914062 261.304688 C 494.09375 263.128906 494.226562 264.953125 494.316406 266.78125 C 494.40625 268.613281 494.453125 270.441406 494.453125 272.273438 C 494.449219 274.105469 494.402344 275.933594 494.3125 277.761719 C 494.21875 279.589844 494.082031 281.414062 493.902344 283.234375 C 493.71875 285.058594 493.496094 286.875 493.222656 288.683594 C 492.953125 290.496094 492.640625 292.296875 492.28125 294.09375 C 491.921875 295.886719 491.519531 297.671875 491.074219 299.449219 C 490.628906 301.222656 490.136719 302.988281 489.605469 304.738281 C 489.074219 306.488281 488.496094 308.226562 487.878906 309.949219 C 487.261719 311.671875 486.601562 313.378906 485.902344 315.070312 C 485.199219 316.761719 484.457031 318.433594 483.671875 320.089844 C 482.890625 321.742188 482.066406 323.378906 481.203125 324.992188 C 480.339844 326.605469 479.4375 328.199219 478.496094 329.769531 C 477.554688 331.335938 476.574219 332.882812 475.554688 334.40625 C 474.539062 335.925781 473.484375 337.421875 472.394531 338.894531 C 471.304688 340.363281 470.175781 341.804688 469.015625 343.21875 C 467.855469 344.636719 466.660156 346.019531 465.429688 347.378906 C 464.199219 348.734375 462.9375 350.058594 461.644531 351.351562 C 460.347656 352.648438 459.023438 353.910156 457.667969 355.140625 C 456.3125 356.367188 454.925781 357.5625 453.511719 358.726562 C 452.09375 359.886719 450.652344 361.011719 449.183594 362.105469 C 447.710938 363.195312 446.21875 364.25 444.695312 365.265625 C 443.171875 366.285156 441.628906 367.261719 440.058594 368.203125 C 438.488281 369.148438 436.894531 370.050781 435.28125 370.914062 C 433.667969 371.777344 432.035156 372.601562 430.378906 373.382812 C 428.726562 374.167969 427.050781 374.910156 425.363281 375.609375 C 423.671875 376.3125 421.964844 376.972656 420.242188 377.589844 C 418.515625 378.207031 416.78125 378.78125 415.027344 379.316406 C 413.277344 379.847656 411.515625 380.335938 409.738281 380.785156 C 407.964844 381.230469 406.179688 381.632812 404.382812 381.992188 C 402.585938 382.347656 400.785156 382.664062 398.972656 382.933594 C 397.164062 383.203125 395.347656 383.429688 393.527344 383.609375 C 391.703125 383.792969 389.878906 383.929688 388.050781 384.019531 C 386.222656 384.113281 384.394531 384.160156 382.5625 384.160156 Z M 382.5625 176.367188 C 380.992188 176.367188 379.425781 176.40625 377.855469 176.484375 C 376.289062 176.5625 374.726562 176.675781 373.164062 176.832031 C 371.601562 176.984375 370.042969 177.175781 368.492188 177.40625 C 366.9375 177.636719 365.390625 177.90625 363.851562 178.210938 C 362.3125 178.519531 360.78125 178.863281 359.261719 179.242188 C 357.738281 179.625 356.226562 180.042969 354.722656 180.5 C 353.222656 180.953125 351.730469 181.445312 350.253906 181.976562 C 348.777344 182.503906 347.3125 183.070312 345.863281 183.667969 C 344.410156 184.269531 342.976562 184.90625 341.558594 185.578125 C 340.140625 186.246094 338.738281 186.953125 337.355469 187.691406 C 335.96875 188.433594 334.605469 189.207031 333.257812 190.011719 C 331.914062 190.820312 330.585938 191.660156 329.28125 192.53125 C 327.976562 193.402344 326.695312 194.308594 325.433594 195.242188 C 324.171875 196.175781 322.933594 197.140625 321.722656 198.136719 C 320.507812 199.132812 319.320312 200.160156 318.15625 201.210938 C 316.996094 202.265625 315.859375 203.347656 314.75 204.457031 C 313.640625 205.570312 312.558594 206.703125 311.503906 207.867188 C 310.449219 209.03125 309.421875 210.21875 308.429688 211.433594 C 307.433594 212.644531 306.46875 213.882812 305.53125 215.144531 C 304.597656 216.402344 303.695312 217.6875 302.820312 218.992188 C 301.949219 220.296875 301.109375 221.621094 300.304688 222.96875 C 299.496094 224.316406 298.722656 225.679688 297.984375 227.0625 C 297.242188 228.449219 296.539062 229.851562 295.867188 231.269531 C 295.195312 232.6875 294.558594 234.121094 293.960938 235.570312 C 293.359375 237.023438 292.792969 238.484375 292.265625 239.964844 C 291.734375 241.441406 291.242188 242.933594 290.789062 244.433594 C 290.332031 245.9375 289.914062 247.449219 289.53125 248.96875 C 289.152344 250.492188 288.808594 252.023438 288.5 253.5625 C 288.195312 255.101562 287.925781 256.648438 287.695312 258.199219 C 287.464844 259.753906 287.273438 261.3125 287.121094 262.871094 C 286.96875 264.433594 286.851562 266 286.773438 267.566406 C 286.699219 269.136719 286.660156 270.703125 286.660156 272.273438 C 286.660156 273.84375 286.699219 275.410156 286.773438 276.980469 C 286.851562 278.546875 286.96875 280.113281 287.121094 281.671875 C 287.273438 283.234375 287.464844 284.792969 287.695312 286.34375 C 287.925781 287.898438 288.195312 289.445312 288.5 290.984375 C 288.808594 292.523438 289.152344 294.054688 289.53125 295.574219 C 289.914062 297.097656 290.332031 298.609375 290.789062 300.113281 C 291.242188 301.613281 291.734375 303.105469 292.265625 304.582031 C 292.792969 306.058594 293.359375 307.523438 293.960938 308.972656 C 294.558594 310.425781 295.195312 311.859375 295.867188 313.277344 C 296.539062 314.695312 297.242188 316.097656 297.984375 317.480469 C 298.722656 318.867188 299.496094 320.230469 300.304688 321.578125 C 301.109375 322.925781 301.949219 324.25 302.820312 325.554688 C 303.695312 326.859375 304.597656 328.144531 305.53125 329.402344 C 306.46875 330.664062 307.433594 331.902344 308.429688 333.113281 C 309.421875 334.328125 310.449219 335.515625 311.503906 336.679688 C 312.558594 337.839844 313.640625 338.976562 314.75 340.085938 C 315.859375 341.199219 316.996094 342.28125 318.15625 343.332031 C 319.320312 344.386719 320.507812 345.414062 321.722656 346.40625 C 322.933594 347.402344 324.171875 348.371094 325.433594 349.304688 C 326.695312 350.238281 327.976562 351.144531 329.28125 352.015625 C 330.585938 352.886719 331.914062 353.726562 333.257812 354.53125 C 334.605469 355.339844 335.96875 356.113281 337.355469 356.851562 C 338.738281 357.59375 340.140625 358.296875 341.558594 358.96875 C 342.976562 359.640625 344.410156 360.277344 345.863281 360.878906 C 347.3125 361.476562 348.777344 362.042969 350.253906 362.570312 C 351.730469 363.101562 353.222656 363.59375 354.722656 364.046875 C 356.226562 364.503906 357.738281 364.921875 359.261719 365.304688 C 360.78125 365.683594 362.3125 366.027344 363.851562 366.335938 C 365.390625 366.640625 366.9375 366.910156 368.492188 367.140625 C 370.042969 367.371094 371.601562 367.5625 373.164062 367.714844 C 374.726562 367.871094 376.289062 367.984375 377.855469 368.0625 C 379.425781 368.140625 380.992188 368.175781 382.5625 368.175781 C 384.132812 368.175781 385.703125 368.140625 387.269531 368.0625 C 388.835938 367.984375 390.402344 367.871094 391.964844 367.714844 C 393.523438 367.5625 395.082031 367.371094 396.636719 367.140625 C 398.1875 366.910156 399.734375 366.640625 401.273438 366.335938 C 402.8125 366.027344 404.34375 365.683594 405.867188 365.304688 C 407.386719 364.921875 408.902344 364.503906 410.402344 364.046875 C 411.90625 363.59375 413.394531 363.101562 414.871094 362.570312 C 416.351562 362.042969 417.8125 361.476562 419.265625 360.878906 C 420.714844 360.277344 422.148438 359.640625 423.566406 358.96875 C 424.984375 358.296875 426.386719 357.59375 427.773438 356.851562 C 429.15625 356.113281 430.519531 355.339844 431.867188 354.53125 C 433.214844 353.726562 434.539062 352.886719 435.84375 352.015625 C 437.148438 351.144531 438.433594 350.238281 439.691406 349.304688 C 440.953125 348.371094 442.191406 347.402344 443.402344 346.40625 C 444.617188 345.414062 445.804688 344.386719 446.96875 343.332031 C 448.132812 342.28125 449.269531 341.199219 450.378906 340.085938 C 451.488281 338.976562 452.570312 337.839844 453.625 336.679688 C 454.675781 335.515625 455.703125 334.328125 456.699219 333.113281 C 457.695312 331.902344 458.660156 330.664062 459.59375 329.402344 C 460.527344 328.144531 461.433594 326.859375 462.304688 325.554688 C 463.175781 324.25 464.015625 322.925781 464.824219 321.578125 C 465.628906 320.230469 466.402344 318.867188 467.144531 317.480469 C 467.882812 316.097656 468.589844 314.695312 469.257812 313.277344 C 469.929688 311.859375 470.566406 310.425781 471.167969 308.972656 C 471.769531 307.523438 472.332031 306.058594 472.859375 304.582031 C 473.390625 303.105469 473.882812 301.613281 474.335938 300.113281 C 474.792969 298.609375 475.210938 297.097656 475.59375 295.574219 C 475.972656 294.054688 476.316406 292.523438 476.625 290.984375 C 476.929688 289.445312 477.199219 287.898438 477.429688 286.34375 C 477.660156 284.792969 477.851562 283.234375 478.003906 281.671875 C 478.160156 280.113281 478.273438 278.546875 478.351562 276.980469 C 478.429688 275.410156 478.46875 273.84375 478.46875 272.273438 C 478.464844 270.703125 478.425781 269.136719 478.347656 267.570312 C 478.269531 266 478.152344 264.4375 477.996094 262.875 C 477.839844 261.316406 477.648438 259.757812 477.414062 258.207031 C 477.183594 256.65625 476.914062 255.109375 476.605469 253.570312 C 476.300781 252.03125 475.953125 250.5 475.570312 248.980469 C 475.1875 247.457031 474.769531 245.945312 474.3125 244.445312 C 473.855469 242.945312 473.363281 241.457031 472.835938 239.980469 C 472.304688 238.5 471.738281 237.039062 471.136719 235.589844 C 470.535156 234.140625 469.898438 232.707031 469.230469 231.289062 C 468.558594 229.871094 467.851562 228.46875 467.109375 227.085938 C 466.371094 225.703125 465.597656 224.339844 464.789062 222.992188 C 463.984375 221.648438 463.144531 220.320312 462.269531 219.015625 C 461.398438 217.714844 460.496094 216.429688 459.558594 215.171875 C 458.625 213.910156 457.660156 212.675781 456.664062 211.460938 C 455.667969 210.25 454.644531 209.0625 453.589844 207.898438 C 452.535156 206.734375 451.457031 205.601562 450.34375 204.492188 C 449.234375 203.382812 448.101562 202.300781 446.9375 201.246094 C 445.773438 200.191406 444.585938 199.167969 443.375 198.171875 C 442.160156 197.175781 440.925781 196.210938 439.664062 195.277344 C 438.40625 194.339844 437.125 193.4375 435.820312 192.566406 C 434.515625 191.691406 433.191406 190.855469 431.84375 190.046875 C 430.5 189.238281 429.132812 188.464844 427.75 187.726562 C 426.367188 186.984375 424.964844 186.277344 423.546875 185.609375 C 422.128906 184.9375 420.695312 184.300781 419.246094 183.699219 C 417.796875 183.097656 416.335938 182.53125 414.859375 182.003906 C 413.378906 181.472656 411.890625 180.980469 410.390625 180.523438 C 408.890625 180.066406 407.378906 179.648438 405.855469 179.265625 C 404.335938 178.882812 402.804688 178.539062 401.265625 178.230469 C 399.726562 177.921875 398.179688 177.652344 396.628906 177.421875 C 395.078125 177.191406 393.519531 176.996094 391.960938 176.839844 C 390.398438 176.683594 388.835938 176.566406 387.265625 176.488281 C 385.699219 176.410156 384.132812 176.371094 382.5625 176.367188 Z M 382.5625 176.367188 " fill-opacity="1" fill-rule="nonzero"/></svg>