<svg xmlns="http://www.w3.org/2000/svg" width="1024" viewBox="0 0 768 768" height="1024" version="1.0"><path d="M545.98 284.27a9.008 9.008 0 0 0 3.48-.688 9.035 9.035 0 0 0 2.958-1.969l48.055-48.054a9.075 9.075 0 0 0 2.66-6.43 8.933 8.933 0 0 0-.691-3.477 9.106 9.106 0 0 0-1.969-2.953l-53.258-53.254a9.402 9.402 0 0 0-1.395-1.086 9.516 9.516 0 0 0-3.273-1.297 9.508 9.508 0 0 0-3.52 0 9.516 9.516 0 0 0-3.273 1.297c-.5.32-.965.68-1.399 1.086L486.32 215.5a8.94 8.94 0 0 0-1.976 2.953 8.977 8.977 0 0 0-.696 3.484v49.473l-80.882 80.883-71.88-71.898a84.95 84.95 0 0 0 1.934-5.586 84.23 84.23 0 0 0 2.692-11.508c.312-1.946.558-3.899.734-5.863.18-1.965.29-3.934.332-5.903a85.18 85.18 0 0 0-.086-5.91 82.674 82.674 0 0 0-.492-5.895 85.401 85.401 0 0 0-3.91-17.27 84.933 84.933 0 0 0-4.567-10.897 84.344 84.344 0 0 0-2.84-5.184 84.017 84.017 0 0 0-3.19-4.977 85.258 85.258 0 0 0-7.384-9.226 84.36 84.36 0 0 0-4.156-4.203 84.41 84.41 0 0 0-9.133-7.496 84.066 84.066 0 0 0-4.937-3.254 84.338 84.338 0 0 0-5.149-2.903 84.442 84.442 0 0 0-10.843-4.699 85.805 85.805 0 0 0-5.641-1.773 85.31 85.31 0 0 0-11.578-2.348 85.213 85.213 0 0 0-17.703-.469 87.057 87.057 0 0 0-5.871.668c-1.953.29-3.891.649-5.817 1.074a82.476 82.476 0 0 0-5.722 1.473 9.103 9.103 0 0 0-2.149.945 8.768 8.768 0 0 0-1.832 1.465 9.212 9.212 0 0 0-.762.895 9.467 9.467 0 0 0-1.145 2.05 9.32 9.32 0 0 0-.581 2.274c-.047.39-.067.781-.063 1.172a8.869 8.869 0 0 0 .32 2.324 9.076 9.076 0 0 0 .906 2.164c.196.34.415.668.653.977.242.312.5.605.778.886l37.285 37.301-5.457 32.922-32.883 5.457-37.395-37.215a9.198 9.198 0 0 0-2.91-1.953 9.36 9.36 0 0 0-2.262-.62 9.097 9.097 0 0 0-5.68 1.062 8.508 8.508 0 0 0-.987.636 8.7 8.7 0 0 0-.899.758c-.281.27-.547.563-.793.867a9.62 9.62 0 0 0-.672.961 9.313 9.313 0 0 0-.95 2.145 85.49 85.49 0 0 0-1.476 5.726 83.674 83.674 0 0 0-1.074 5.817 82.136 82.136 0 0 0-.668 5.875 82.75 82.75 0 0 0-.258 5.906c-.02 1.973.032 3.941.153 5.91.12 1.969.308 3.93.562 5.887.258 1.953.582 3.898.973 5.832a87.864 87.864 0 0 0 1.375 5.75 85.804 85.804 0 0 0 1.773 5.64 84.135 84.135 0 0 0 2.16 5.504 84.494 84.494 0 0 0 8.692 15.43 85.747 85.747 0 0 0 3.59 4.7 86.017 86.017 0 0 0 8.113 8.593 84.183 84.183 0 0 0 4.488 3.852 83.349 83.349 0 0 0 4.743 3.53 84.077 84.077 0 0 0 4.976 3.196 86.488 86.488 0 0 0 5.184 2.84 82.385 82.385 0 0 0 5.375 2.469 84.084 84.084 0 0 0 11.191 3.797 85.402 85.402 0 0 0 11.61 2.207c1.96.23 3.921.394 5.894.492 1.969.094 3.938.121 5.91.078a85.2 85.2 0 0 0 5.906-.328c1.961-.18 3.918-.426 5.864-.742a84.23 84.23 0 0 0 17.094-4.633l26.628 26.719-19.879 19.808a9.095 9.095 0 0 0-1.98 2.953 8.959 8.959 0 0 0-.516 1.707 9.05 9.05 0 0 0 0 3.555 8.959 8.959 0 0 0 1.36 3.281c.332.5.71.957 1.136 1.38l2.762 2.75a11.149 11.149 0 0 1 2.43 3.62c.281.68.492 1.375.637 2.098a11.031 11.031 0 0 1 .003 4.36c-.14.718-.351 1.417-.632 2.097a11.209 11.209 0 0 1-2.418 3.629c-.52.52-1.082.984-1.692 1.39a11.052 11.052 0 0 1-4.027 1.672c-.719.145-1.445.22-2.18.22-.734 0-1.46-.071-2.18-.212a11.191 11.191 0 0 1-5.727-3.055l-2.784-2.78a9.01 9.01 0 0 0-2.953-1.981 9.03 9.03 0 0 0-3.485-.692 9.06 9.06 0 0 0-6.438 2.652l-72.28 72.317a73.771 73.771 0 0 0-4.813 5.316 73.137 73.137 0 0 0-7.95 11.915 74.379 74.379 0 0 0-1.612 3.203A73.9 73.9 0 0 0 169.778 507a70.7 70.7 0 0 0-.954 3.457 70.793 70.793 0 0 0-.785 3.5 71.695 71.695 0 0 0-1.05 7.09 73.076 73.076 0 0 0-.259 10.746c.06 1.195.145 2.387.262 3.578.117 1.192.266 2.375.442 3.559.175 1.183.379 2.36.613 3.53.234 1.177.496 2.34.785 3.5a70.92 70.92 0 0 0 2.086 6.863 73.75 73.75 0 0 0 1.289 3.345c.457 1.105.941 2.2 1.453 3.277a74.379 74.379 0 0 0 1.613 3.203 70.284 70.284 0 0 0 1.77 3.122 71.815 71.815 0 0 0 1.918 3.027 69.505 69.505 0 0 0 2.066 2.933c.711.961 1.446 1.903 2.203 2.829a77.27 77.27 0 0 0 2.344 2.714c.805.887 1.63 1.75 2.473 2.598.844.844 1.71 1.668 2.598 2.473a73.771 73.771 0 0 0 8.472 6.613 71.947 71.947 0 0 0 3.031 1.918 76.373 76.373 0 0 0 3.122 1.77 69.93 69.93 0 0 0 3.199 1.609 72.009 72.009 0 0 0 6.625 2.746 73.897 73.897 0 0 0 10.36 2.871 71.924 71.924 0 0 0 7.094 1.05 72.93 72.93 0 0 0 21.413-1.042 76.699 76.699 0 0 0 3.5-.785c1.16-.29 2.312-.61 3.457-.957a70.813 70.813 0 0 0 6.75-2.41c1.105-.457 2.2-.942 3.281-1.454a76.64 76.64 0 0 0 3.203-1.609 74.344 74.344 0 0 0 3.121-1.766 74.562 74.562 0 0 0 5.965-3.98 73.256 73.256 0 0 0 8.14-7.016l72.302-72.3a9.131 9.131 0 0 0 2.496-4.66 9.05 9.05 0 0 0 0-3.555 9.095 9.095 0 0 0-2.496-4.66l-2.766-2.766c-.52-.52-.984-1.082-1.39-1.695a11.052 11.052 0 0 1-1.672-4.028 11.027 11.027 0 0 1-.215-2.18 11.096 11.096 0 0 1 .851-4.277c.282-.68.625-1.324 1.035-1.933.407-.61.872-1.176 1.391-1.692a11.412 11.412 0 0 1 1.707-1.355c.613-.395 1.258-.73 1.938-1.004a11.369 11.369 0 0 1 4.257-.824 11.369 11.369 0 0 1 4.258.824c.68.273 1.324.61 1.938 1.004.613.398 1.18.847 1.707 1.355l2.785 2.762c.422.422.879.797 1.375 1.129a9.167 9.167 0 0 0 3.273 1.351 9.001 9.001 0 0 0 3.54 0 9.167 9.167 0 0 0 3.273-1.352 9.106 9.106 0 0 0 1.379-1.128l19.804-19.86 26.63 26.645a85.71 85.71 0 0 0-3.473 11.293 85.811 85.811 0 0 0-1.871 11.66 85.08 85.08 0 0 0 2.468 29.305 84.078 84.078 0 0 0 1.707 5.656 85.356 85.356 0 0 0 7.406 16.078 83.924 83.924 0 0 0 3.192 4.973 83.26 83.26 0 0 0 3.531 4.738 84.027 84.027 0 0 0 8.004 8.688 85.2 85.2 0 0 0 14.063 10.75 86.467 86.467 0 0 0 5.148 2.902 86.552 86.552 0 0 0 5.336 2.54 86.295 86.295 0 0 0 5.5 2.16c1.86.656 3.738 1.25 5.637 1.773 1.898.527 3.816.988 5.746 1.379a85.123 85.123 0 0 0 11.71 1.547c1.97.12 3.938.171 5.911.156a85.089 85.089 0 0 0 11.773-.91c1.954-.29 3.891-.645 5.813-1.07a82.554 82.554 0 0 0 5.726-1.47c.375-.109.747-.246 1.106-.402.36-.16.707-.34 1.043-.543.336-.203.656-.426.96-.672a9.212 9.212 0 0 0 1.633-1.688 9.055 9.055 0 0 0 1.141-2.05c.149-.363.27-.734.367-1.117.094-.379.168-.766.215-1.156a9.028 9.028 0 0 0-.02-2.344 9.558 9.558 0 0 0-.234-1.152c-.105-.38-.234-.75-.382-1.114a9.748 9.748 0 0 0-.524-1.05c-.2-.34-.418-.665-.656-.977a8.748 8.748 0 0 0-.774-.883l-37.289-37.305 5.457-32.921 32.887-5.457 37.305 37.285c.277.277.57.539.883.777.308.238.636.457.972.656.34.196.692.371 1.055.524.36.148.73.277 1.11.383a9.57 9.57 0 0 0 1.152.238 9.067 9.067 0 0 0 2.344.02 8.987 8.987 0 0 0 2.273-.579 9.097 9.097 0 0 0 2.945-1.898c.281-.274.547-.563.793-.867a9.4 9.4 0 0 0 1.219-2.004c.156-.36.293-.727.402-1.106a84.774 84.774 0 0 0 2.551-11.539c.293-1.95.516-3.91.672-5.875.152-1.965.238-3.933.258-5.906a85.213 85.213 0 0 0-.157-5.91 82.421 82.421 0 0 0-.562-5.887 84.855 84.855 0 0 0-6.281-22.73 84.394 84.394 0 0 0-5.438-10.493 84.652 84.652 0 0 0-3.254-4.933 83.835 83.835 0 0 0-3.59-4.7 84.338 84.338 0 0 0-3.906-4.437 86.151 86.151 0 0 0-4.207-4.156 84.1 84.1 0 0 0-4.484-3.852 86.806 86.806 0 0 0-4.742-3.535 85.603 85.603 0 0 0-15.535-8.504 84.996 84.996 0 0 0-5.532-2.09 83.58 83.58 0 0 0-5.664-1.703 83.083 83.083 0 0 0-5.765-1.304 86.845 86.845 0 0 0-5.844-.903 87.383 87.383 0 0 0-5.89-.492 87.833 87.833 0 0 0-5.915-.082 85.093 85.093 0 0 0-5.902.332c-1.965.18-3.922.426-5.867.738-1.946.317-3.88.7-5.801 1.149a85.786 85.786 0 0 0-11.293 3.484l-71.88-71.894 80.884-80.887ZM385.594 459.969a29.914 29.914 0 0 0-9.254-4.14 29.893 29.893 0 0 0-15.113.054 30.292 30.292 0 0 0-4.793 1.707 30.097 30.097 0 0 0-8.38 5.707 29.033 29.033 0 0 0-3.277 3.918 29.039 29.039 0 0 0-2.555 4.426 28.83 28.83 0 0 0-.976 2.359c-.293.8-.55 1.613-.773 2.438a29.235 29.235 0 0 0-.89 5.031 27.949 27.949 0 0 0-.118 2.554c0 .852.035 1.704.105 2.555.075.852.184 1.695.328 2.535.145.84.329 1.672.547 2.5.215.825.47 1.637.758 2.442.29.8.613 1.59.969 2.363a29.6 29.6 0 0 0 2.535 4.438l-66.187 66.187a55.784 55.784 0 0 1-3.551 3.242c-1.23 1.028-2.508 2-3.824 2.918a55.561 55.561 0 0 1-4.063 2.57 54.509 54.509 0 0 1-8.723 4.028 55.766 55.766 0 0 1-4.593 1.43c-1.551.406-3.118.746-4.7 1.015a54.388 54.388 0 0 1-9.578.785 54.798 54.798 0 0 1-9.566-.898 54.993 54.993 0 0 1-9.262-2.555 54.49 54.49 0 0 1-8.676-4.133 54.383 54.383 0 0 1-4.035-2.62l77.156-77.173a8.889 8.889 0 0 0 1.165-1.375 9.018 9.018 0 0 0 1.609-5.086 8.94 8.94 0 0 0-.676-3.523 8.89 8.89 0 0 0-.844-1.594 9.507 9.507 0 0 0-1.14-1.394 9.507 9.507 0 0 0-1.395-1.14 8.89 8.89 0 0 0-1.594-.845 8.94 8.94 0 0 0-3.523-.676 9.063 9.063 0 0 0-6.46 2.773l-77.173 77.192a53.674 53.674 0 0 1-2.64-4.027 54.657 54.657 0 0 1-4.164-8.676 54.943 54.943 0 0 1-1.497-4.578 54.778 54.778 0 0 1-1.992-14.27 54.986 54.986 0 0 1 .79-9.59 55.508 55.508 0 0 1 1.023-4.706c.414-1.551.89-3.086 1.437-4.594a54.629 54.629 0 0 1 6.645-12.79 54.818 54.818 0 0 1 6.2-7.36l66.186-66.202c.7.489 1.418.946 2.16 1.372.739.43 1.497.82 2.27 1.183a29.83 29.83 0 0 0 4.805 1.746 30.7 30.7 0 0 0 2.5.551 29.124 29.124 0 0 0 5.094.445 29.433 29.433 0 0 0 12.398-2.75 29.08 29.08 0 0 0 2.27-1.183c.742-.426 1.46-.883 2.16-1.375.699-.489 1.375-1.008 2.031-1.559a30.299 30.299 0 0 0 1.887-1.726 30.363 30.363 0 0 0 1.73-1.887 29.593 29.593 0 0 0 4.117-6.457c.36-.774.688-1.563.98-2.363.294-.805.548-1.618.77-2.442.223-.824.407-1.656.555-2.5a29.036 29.036 0 0 0 .45-5.094 29.406 29.406 0 0 0-1.759-10.035c-.293-.8-.617-1.59-.98-2.363-.36-.774-.75-1.531-1.18-2.274a30.486 30.486 0 0 0-1.37-2.16l13.769-13.765 58.312 58.308 19.387 19.336Zm103.765-3.93a67.688 67.688 0 0 1 3.93-1.73 69.968 69.968 0 0 1 4.031-1.473 68.075 68.075 0 0 1 8.305-2.152c1.406-.27 2.82-.493 4.238-.672a65.291 65.291 0 0 1 4.274-.399c1.43-.086 2.86-.129 4.293-.125 1.43.004 2.86.055 4.289.153a67.346 67.346 0 0 1 8.504 1.129 68.98 68.98 0 0 1 4.18.972c1.386.367 2.753.781 4.113 1.238a67.116 67.116 0 0 1 11.734 5.258 65.05 65.05 0 0 1 3.66 2.242 67.032 67.032 0 0 1 10.012 8.066 67.397 67.397 0 0 1 5.734 6.384 67.41 67.41 0 0 1 4.867 7.066 67.636 67.636 0 0 1 3.922 7.633 68.843 68.843 0 0 1 1.586 3.988 66.173 66.173 0 0 1 2.383 8.242c.313 1.399.574 2.805.793 4.22a67.83 67.83 0 0 1 .52 4.26c.125 1.427.207 2.852.242 4.286.035 1.43.027 2.86-.032 4.29l-28.19-28.153a8.75 8.75 0 0 0-1.696-1.336 8.819 8.819 0 0 0-1.961-.899 9.073 9.073 0 0 0-2.117-.414 9.06 9.06 0 0 0-2.157.102l-43.906 7.402a9.085 9.085 0 0 0-4.937 2.54 9.093 9.093 0 0 0-1.653 2.269 9.069 9.069 0 0 0-.886 2.664L490.03 547a9.017 9.017 0 0 0-.097 2.152 9.083 9.083 0 0 0 2.645 5.777l28.136 28.192a67.948 67.948 0 0 1-13.703-.969 68.124 68.124 0 0 1-36.168-18.566 66.364 66.364 0 0 1-6.664-7.809 64.912 64.912 0 0 1-2.864-4.261 65.387 65.387 0 0 1-2.53-4.473 65.393 65.393 0 0 1-2.177-4.652 65.904 65.904 0 0 1-1.816-4.805 67.18 67.18 0 0 1-2.5-9.953 67.778 67.778 0 0 1-.668-5.094 66.127 66.127 0 0 1-.277-5.129c-.028-1.71.011-3.426.117-5.133a67.082 67.082 0 0 1 2.695-15.14 66.557 66.557 0 0 1 1.664-4.86 68.084 68.084 0 0 1 2.031-4.718 8.966 8.966 0 0 0 .79-2.672 8.978 8.978 0 0 0-.06-2.782 8.994 8.994 0 0 0-.894-2.636 9.222 9.222 0 0 0-1.652-2.242L290.727 311.844a9.001 9.001 0 0 0-2.247-1.66 9.141 9.141 0 0 0-2.64-.899 9.147 9.147 0 0 0-2.79-.055 9.03 9.03 0 0 0-2.675.793 64.97 64.97 0 0 1-3.926 1.727 64.572 64.572 0 0 1-4.031 1.473 66.805 66.805 0 0 1-8.305 2.152c-1.402.27-2.816.496-4.238.676a71.046 71.046 0 0 1-4.27.398 68.186 68.186 0 0 1-8.578-.027 67.79 67.79 0 0 1-8.504-1.129 66.762 66.762 0 0 1-4.18-.969 68.11 68.11 0 0 1-4.109-1.238 67.117 67.117 0 0 1-11.734-5.254 64.95 64.95 0 0 1-3.656-2.242 66.56 66.56 0 0 1-6.852-5.16 65.422 65.422 0 0 1-3.16-2.903 65.455 65.455 0 0 1-5.734-6.379 66.657 66.657 0 0 1-4.871-7.062 64.931 64.931 0 0 1-2.082-3.75 66.176 66.176 0 0 1-3.426-7.863 65.434 65.434 0 0 1-1.328-4.082 66.087 66.087 0 0 1-1.856-8.375 67.723 67.723 0 0 1-.523-4.258 71.222 71.222 0 0 1-.246-4.285c-.036-1.43-.024-2.86.03-4.29l28.192 28.157a9.189 9.189 0 0 0 1.696 1.336 9.274 9.274 0 0 0 1.96.898 9.06 9.06 0 0 0 4.273.309l43.907-7.403a9.007 9.007 0 0 0 2.66-.886 9.093 9.093 0 0 0 4.797-6.586l7.422-43.906a9.058 9.058 0 0 0 .098-2.157 9.113 9.113 0 0 0-1.309-4.082 9.163 9.163 0 0 0-1.336-1.691l-28.136-28.195a68.234 68.234 0 0 1 13.699.996 68.215 68.215 0 0 1 13.222 3.71 68.073 68.073 0 0 1 12.215 6.278 67.91 67.91 0 0 1 10.719 8.59 66.333 66.333 0 0 1 3.48 3.773 64.682 64.682 0 0 1 3.184 4.031 66.558 66.558 0 0 1 2.867 4.262 67.03 67.03 0 0 1 2.528 4.473c.789 1.52 1.515 3.07 2.18 4.648a65.904 65.904 0 0 1 1.816 4.805 67.746 67.746 0 0 1 2.504 9.957c.289 1.688.511 3.387.668 5.094a66.025 66.025 0 0 1 .164 10.261 68.022 68.022 0 0 1-.508 5.114 67.1 67.1 0 0 1-2.188 10.027 68.535 68.535 0 0 1-1.66 4.863 66.932 66.932 0 0 1-2.031 4.715 9.034 9.034 0 0 0-.79 2.672 9.125 9.125 0 0 0 .953 5.418 9.147 9.147 0 0 0 1.653 2.242l165.352 165.352a9.06 9.06 0 0 0 2.242 1.637 9.07 9.07 0 0 0 5.406.933 9.068 9.068 0 0 0 2.664-.789Zm12.477-230.336 38.941-38.96 40.395 40.398-38.957 38.941h-40.38Zm0 0"/></svg>