<svg xmlns="http://www.w3.org/2000/svg" xmlns:xlink="http://www.w3.org/1999/xlink" width="1024" zoomAndPan="magnify" viewBox="0 0 768 767.999994" height="1024" preserveAspectRatio="xMidYMid meet" version="1.0"><path fill="#000000" d="M 545.980469 284.269531 C 547.1875 284.269531 548.347656 284.042969 549.460938 283.582031 C 550.578125 283.121094 551.5625 282.464844 552.417969 281.613281 L 600.472656 233.558594 C 600.894531 233.136719 601.269531 232.679688 601.601562 232.183594 C 601.933594 231.683594 602.214844 231.160156 602.441406 230.609375 C 602.671875 230.058594 602.84375 229.488281 602.960938 228.902344 C 603.074219 228.320312 603.132812 227.726562 603.132812 227.128906 C 603.132812 226.535156 603.074219 225.941406 602.960938 225.355469 C 602.84375 224.769531 602.671875 224.203125 602.441406 223.652344 C 602.214844 223.097656 601.933594 222.574219 601.601562 222.078125 C 601.269531 221.582031 600.894531 221.121094 600.472656 220.699219 L 547.214844 167.445312 C 546.785156 167.039062 546.320312 166.679688 545.820312 166.359375 C 545.320312 166.042969 544.792969 165.777344 544.246094 165.558594 C 543.695312 165.339844 543.128906 165.175781 542.546875 165.0625 C 541.964844 164.953125 541.378906 164.898438 540.785156 164.898438 C 540.195312 164.898438 539.609375 164.953125 539.027344 165.0625 C 538.445312 165.175781 537.878906 165.339844 537.328125 165.558594 C 536.777344 165.777344 536.253906 166.042969 535.753906 166.359375 C 535.253906 166.679688 534.789062 167.039062 534.355469 167.445312 L 486.320312 215.5 C 485.464844 216.351562 484.804688 217.335938 484.34375 218.453125 C 483.878906 219.570312 483.648438 220.730469 483.648438 221.9375 L 483.648438 271.410156 L 402.765625 352.292969 L 330.886719 280.394531 C 331.59375 278.554688 332.242188 276.695312 332.820312 274.808594 C 333.402344 272.925781 333.917969 271.023438 334.367188 269.101562 C 334.816406 267.183594 335.195312 265.25 335.511719 263.300781 C 335.824219 261.355469 336.070312 259.402344 336.246094 257.4375 C 336.425781 255.472656 336.535156 253.503906 336.578125 251.535156 C 336.617188 249.5625 336.589844 247.59375 336.492188 245.625 C 336.398438 243.652344 336.234375 241.691406 336 239.730469 C 335.765625 237.773438 335.464844 235.828125 335.097656 233.890625 C 334.730469 231.953125 334.292969 230.03125 333.792969 228.125 C 333.289062 226.214844 332.722656 224.328125 332.089844 222.460938 C 331.457031 220.59375 330.757812 218.753906 329.996094 216.933594 C 329.234375 215.113281 328.410156 213.324219 327.523438 211.5625 C 326.636719 209.800781 325.691406 208.074219 324.683594 206.378906 C 323.679688 204.683594 322.613281 203.023438 321.492188 201.402344 C 320.371094 199.78125 319.191406 198.199219 317.960938 196.660156 C 316.730469 195.121094 315.445312 193.625 314.109375 192.175781 C 312.773438 190.726562 311.386719 189.324219 309.953125 187.972656 C 308.519531 186.617188 307.042969 185.316406 305.515625 184.0625 C 303.992188 182.8125 302.425781 181.617188 300.820312 180.476562 C 299.210938 179.332031 297.566406 178.25 295.882812 177.222656 C 294.199219 176.195312 292.484375 175.226562 290.734375 174.320312 C 288.984375 173.410156 287.203125 172.566406 285.394531 171.78125 C 283.585938 170.996094 281.75 170.277344 279.890625 169.621094 C 278.03125 168.964844 276.152344 168.375 274.25 167.847656 C 272.351562 167.324219 270.433594 166.863281 268.503906 166.472656 C 266.570312 166.078125 264.625 165.753906 262.671875 165.5 C 260.714844 165.242188 258.753906 165.050781 256.785156 164.933594 C 254.816406 164.8125 252.847656 164.761719 250.875 164.777344 C 248.90625 164.792969 246.9375 164.878906 244.96875 165.03125 C 243.003906 165.1875 241.046875 165.410156 239.097656 165.699219 C 237.144531 165.988281 235.207031 166.347656 233.28125 166.773438 C 231.355469 167.195312 229.449219 167.6875 227.558594 168.246094 C 227.179688 168.355469 226.8125 168.492188 226.453125 168.648438 C 226.09375 168.808594 225.746094 168.988281 225.410156 169.191406 C 225.074219 169.394531 224.753906 169.621094 224.445312 169.863281 C 224.140625 170.109375 223.847656 170.371094 223.578125 170.65625 C 223.304688 170.9375 223.050781 171.238281 222.816406 171.550781 C 222.582031 171.867188 222.371094 172.195312 222.179688 172.539062 C 221.988281 172.882812 221.820312 173.234375 221.671875 173.601562 C 221.527344 173.964844 221.40625 174.339844 221.308594 174.71875 C 221.210938 175.097656 221.140625 175.484375 221.089844 175.875 C 221.042969 176.265625 221.023438 176.65625 221.027344 177.046875 C 221.027344 177.441406 221.058594 177.832031 221.109375 178.21875 C 221.164062 178.609375 221.242188 178.992188 221.347656 179.371094 C 221.453125 179.75 221.578125 180.121094 221.730469 180.484375 C 221.882812 180.84375 222.054688 181.195312 222.253906 181.535156 C 222.449219 181.875 222.667969 182.203125 222.90625 182.511719 C 223.148438 182.824219 223.40625 183.117188 223.683594 183.398438 L 260.96875 220.699219 L 255.511719 253.621094 L 222.628906 259.078125 L 185.234375 221.863281 C 184.957031 221.585938 184.660156 221.328125 184.351562 221.089844 C 184.039062 220.851562 183.714844 220.632812 183.375 220.433594 C 183.035156 220.238281 182.683594 220.0625 182.324219 219.910156 C 181.960938 219.757812 181.589844 219.632812 181.210938 219.527344 C 180.832031 219.421875 180.449219 219.34375 180.0625 219.289062 C 179.671875 219.234375 179.28125 219.207031 178.890625 219.203125 C 178.496094 219.199219 178.105469 219.222656 177.714844 219.269531 C 177.328125 219.316406 176.941406 219.386719 176.5625 219.484375 C 176.179688 219.582031 175.808594 219.703125 175.445312 219.847656 C 175.078125 219.992188 174.726562 220.160156 174.382812 220.351562 C 174.039062 220.539062 173.710938 220.753906 173.394531 220.988281 C 173.078125 221.21875 172.78125 221.472656 172.496094 221.746094 C 172.214844 222.015625 171.949219 222.308594 171.703125 222.613281 C 171.460938 222.917969 171.234375 223.242188 171.03125 223.574219 C 170.828125 223.910156 170.644531 224.257812 170.488281 224.617188 C 170.328125 224.976562 170.195312 225.34375 170.082031 225.71875 C 169.523438 227.613281 169.03125 229.519531 168.605469 231.445312 C 168.179688 233.371094 167.820312 235.308594 167.53125 237.261719 C 167.238281 239.210938 167.015625 241.167969 166.863281 243.136719 C 166.707031 245.101562 166.621094 247.070312 166.605469 249.042969 C 166.585938 251.015625 166.636719 252.984375 166.757812 254.953125 C 166.878906 256.921875 167.066406 258.882812 167.320312 260.839844 C 167.578125 262.792969 167.902344 264.738281 168.292969 266.671875 C 168.6875 268.605469 169.144531 270.519531 169.667969 272.421875 C 170.195312 274.324219 170.785156 276.203125 171.441406 278.0625 C 172.097656 279.921875 172.816406 281.757812 173.601562 283.566406 C 174.382812 285.378906 175.230469 287.15625 176.136719 288.910156 C 177.046875 290.660156 178.011719 292.375 179.039062 294.058594 C 180.066406 295.742188 181.152344 297.390625 182.292969 298.996094 C 183.4375 300.605469 184.632812 302.171875 185.882812 303.695312 C 187.136719 305.21875 188.4375 306.699219 189.792969 308.132812 C 191.144531 309.566406 192.546875 310.953125 193.996094 312.289062 C 195.449219 313.625 196.941406 314.910156 198.484375 316.140625 C 200.023438 317.375 201.605469 318.550781 203.226562 319.671875 C 204.847656 320.796875 206.507812 321.859375 208.203125 322.867188 C 209.898438 323.871094 211.625 324.820312 213.386719 325.707031 C 215.148438 326.59375 216.941406 327.417969 218.761719 328.175781 C 220.578125 328.9375 222.421875 329.636719 224.289062 330.269531 C 226.15625 330.902344 228.046875 331.472656 229.953125 331.972656 C 231.859375 332.472656 233.78125 332.910156 235.71875 333.277344 C 237.65625 333.644531 239.605469 333.945312 241.5625 334.179688 C 243.523438 334.410156 245.484375 334.574219 247.457031 334.671875 C 249.425781 334.765625 251.394531 334.792969 253.367188 334.75 C 255.339844 334.710938 257.308594 334.597656 259.273438 334.421875 C 261.234375 334.242188 263.191406 333.996094 265.136719 333.679688 C 267.085938 333.367188 269.019531 332.984375 270.9375 332.535156 C 272.859375 332.085938 274.761719 331.570312 276.644531 330.988281 C 278.53125 330.40625 280.390625 329.757812 282.230469 329.046875 L 308.859375 355.765625 L 288.980469 375.574219 C 288.554688 375.996094 288.175781 376.457031 287.84375 376.953125 C 287.511719 377.449219 287.230469 377.972656 287 378.527344 C 286.773438 379.078125 286.597656 379.648438 286.484375 380.234375 C 286.367188 380.820312 286.308594 381.414062 286.308594 382.011719 C 286.308594 382.609375 286.367188 383.203125 286.484375 383.789062 C 286.597656 384.375 286.773438 384.945312 287 385.496094 C 287.230469 386.050781 287.511719 386.574219 287.84375 387.070312 C 288.175781 387.570312 288.554688 388.027344 288.980469 388.449219 L 291.742188 391.199219 C 292.261719 391.714844 292.726562 392.28125 293.136719 392.890625 C 293.542969 393.5 293.890625 394.144531 294.171875 394.820312 C 294.453125 395.5 294.664062 396.195312 294.808594 396.917969 C 294.953125 397.636719 295.027344 398.363281 295.027344 399.097656 C 295.027344 399.832031 294.957031 400.558594 294.8125 401.277344 C 294.671875 401.996094 294.460938 402.695312 294.179688 403.375 C 293.898438 404.050781 293.558594 404.695312 293.148438 405.308594 C 292.742188 405.917969 292.28125 406.484375 291.761719 407.003906 C 291.242188 407.523438 290.679688 407.988281 290.070312 408.394531 C 289.460938 408.804688 288.816406 409.148438 288.140625 409.429688 C 287.460938 409.710938 286.761719 409.925781 286.042969 410.066406 C 285.324219 410.210938 284.597656 410.285156 283.863281 410.285156 C 283.128906 410.285156 282.402344 410.214844 281.683594 410.074219 C 280.960938 409.929688 280.261719 409.71875 279.585938 409.441406 C 278.90625 409.160156 278.261719 408.816406 277.652344 408.410156 C 277.039062 408.003906 276.476562 407.539062 275.957031 407.019531 L 273.171875 404.238281 C 272.320312 403.382812 271.335938 402.722656 270.21875 402.257812 C 269.105469 401.796875 267.941406 401.566406 266.734375 401.566406 C 265.527344 401.5625 264.367188 401.792969 263.25 402.25 C 262.136719 402.710938 261.152344 403.367188 260.296875 404.21875 L 188.015625 476.535156 C 187.171875 477.382812 186.347656 478.25 185.542969 479.136719 C 184.742188 480.023438 183.960938 480.925781 183.203125 481.851562 C 182.445312 482.777344 181.710938 483.71875 181 484.679688 C 180.289062 485.640625 179.601562 486.617188 178.9375 487.613281 C 178.273438 488.609375 177.632812 489.617188 177.019531 490.644531 C 176.40625 491.667969 175.816406 492.710938 175.253906 493.765625 C 174.691406 494.820312 174.152344 495.886719 173.640625 496.96875 C 173.132812 498.050781 172.648438 499.144531 172.191406 500.246094 C 171.734375 501.351562 171.304688 502.46875 170.902344 503.59375 C 170.5 504.71875 170.125 505.855469 169.777344 507 C 169.429688 508.144531 169.113281 509.296875 168.824219 510.457031 C 168.53125 511.617188 168.273438 512.78125 168.039062 513.957031 C 167.804688 515.128906 167.601562 516.304688 167.425781 517.488281 C 167.25 518.671875 167.105469 519.859375 166.988281 521.046875 C 166.871094 522.238281 166.785156 523.429688 166.726562 524.625 C 166.667969 525.820312 166.640625 527.015625 166.640625 528.210938 C 166.640625 529.40625 166.667969 530.601562 166.730469 531.792969 C 166.789062 532.988281 166.875 534.179688 166.992188 535.371094 C 167.109375 536.5625 167.257812 537.746094 167.433594 538.929688 C 167.609375 540.113281 167.8125 541.289062 168.046875 542.460938 C 168.28125 543.636719 168.542969 544.800781 168.832031 545.960938 C 169.125 547.121094 169.445312 548.273438 169.789062 549.417969 C 170.136719 550.5625 170.511719 551.695312 170.917969 552.824219 C 171.320312 553.949219 171.75 555.0625 172.207031 556.167969 C 172.664062 557.273438 173.148438 558.367188 173.660156 559.445312 C 174.171875 560.527344 174.710938 561.59375 175.273438 562.648438 C 175.835938 563.703125 176.425781 564.742188 177.042969 565.769531 C 177.65625 566.792969 178.296875 567.804688 178.960938 568.796875 C 179.625 569.792969 180.3125 570.769531 181.027344 571.730469 C 181.738281 572.691406 182.472656 573.632812 183.230469 574.558594 C 183.992188 575.480469 184.769531 576.386719 185.574219 577.273438 C 186.378906 578.160156 187.203125 579.023438 188.046875 579.871094 C 188.890625 580.714844 189.757812 581.539062 190.644531 582.34375 C 191.53125 583.144531 192.433594 583.925781 193.359375 584.683594 C 194.285156 585.445312 195.226562 586.179688 196.1875 586.890625 C 197.148438 587.605469 198.125 588.292969 199.117188 588.957031 C 200.113281 589.621094 201.121094 590.261719 202.148438 590.875 C 203.171875 591.488281 204.214844 592.078125 205.269531 592.644531 C 206.320312 593.207031 207.390625 593.746094 208.46875 594.253906 C 209.550781 594.765625 210.644531 595.25 211.75 595.710938 C 212.851562 596.167969 213.96875 596.597656 215.09375 597 C 216.21875 597.402344 217.355469 597.777344 218.5 598.125 C 219.644531 598.472656 220.796875 598.792969 221.957031 599.082031 C 223.113281 599.375 224.28125 599.636719 225.453125 599.871094 C 226.625 600.101562 227.804688 600.308594 228.988281 600.484375 C 230.167969 600.660156 231.355469 600.804688 232.546875 600.921875 C 233.734375 601.039062 234.929688 601.128906 236.121094 601.1875 C 237.316406 601.246094 238.511719 601.277344 239.707031 601.277344 C 240.902344 601.277344 242.097656 601.25 243.292969 601.191406 C 244.488281 601.132812 245.679688 601.042969 246.867188 600.925781 C 248.058594 600.8125 249.246094 600.664062 250.425781 600.488281 C 251.609375 600.316406 252.789062 600.109375 253.960938 599.878906 C 255.132812 599.644531 256.300781 599.382812 257.460938 599.09375 C 258.621094 598.804688 259.773438 598.484375 260.917969 598.136719 C 262.0625 597.792969 263.195312 597.417969 264.324219 597.015625 C 265.449219 596.613281 266.5625 596.183594 267.667969 595.726562 C 268.773438 595.269531 269.867188 594.785156 270.949219 594.273438 C 272.027344 593.761719 273.097656 593.226562 274.152344 592.664062 C 275.207031 592.101562 276.246094 591.511719 277.273438 590.898438 C 278.296875 590.285156 279.308594 589.644531 280.304688 588.980469 C 281.296875 588.316406 282.277344 587.628906 283.238281 586.917969 C 284.195312 586.207031 285.140625 585.46875 286.066406 584.710938 C 286.988281 583.953125 287.894531 583.175781 288.78125 582.371094 C 289.667969 581.570312 290.535156 580.746094 291.378906 579.902344 L 363.679688 507.601562 C 364.101562 507.179688 364.480469 506.71875 364.8125 506.222656 C 365.144531 505.726562 365.425781 505.203125 365.65625 504.648438 C 365.886719 504.097656 366.058594 503.527344 366.175781 502.941406 C 366.292969 502.355469 366.351562 501.761719 366.351562 501.164062 C 366.351562 500.566406 366.292969 499.972656 366.175781 499.386719 C 366.058594 498.800781 365.886719 498.230469 365.65625 497.679688 C 365.425781 497.125 365.144531 496.601562 364.8125 496.105469 C 364.480469 495.605469 364.101562 495.148438 363.679688 494.726562 L 360.914062 491.960938 C 360.394531 491.441406 359.929688 490.878906 359.523438 490.265625 C 359.113281 489.65625 358.769531 489.011719 358.488281 488.335938 C 358.207031 487.65625 357.996094 486.957031 357.851562 486.238281 C 357.707031 485.519531 357.636719 484.792969 357.636719 484.058594 C 357.636719 483.324219 357.707031 482.597656 357.851562 481.875 C 357.996094 481.15625 358.207031 480.457031 358.488281 479.78125 C 358.769531 479.101562 359.113281 478.457031 359.523438 477.847656 C 359.929688 477.238281 360.394531 476.671875 360.914062 476.15625 C 361.441406 475.648438 362.007812 475.199219 362.621094 474.800781 C 363.234375 474.40625 363.878906 474.070312 364.558594 473.796875 C 365.234375 473.523438 365.929688 473.320312 366.648438 473.179688 C 367.363281 473.042969 368.085938 472.972656 368.816406 472.972656 C 369.546875 472.972656 370.269531 473.042969 370.984375 473.179688 C 371.703125 473.320312 372.398438 473.523438 373.074219 473.796875 C 373.753906 474.070312 374.398438 474.40625 375.011719 474.800781 C 375.625 475.199219 376.191406 475.648438 376.71875 476.15625 L 379.503906 478.917969 C 379.925781 479.339844 380.382812 479.714844 380.878906 480.046875 C 381.375 480.375 381.898438 480.65625 382.449219 480.882812 C 383 481.109375 383.566406 481.28125 384.152344 481.398438 C 384.738281 481.515625 385.328125 481.574219 385.921875 481.574219 C 386.519531 481.574219 387.109375 481.515625 387.691406 481.398438 C 388.277344 481.28125 388.84375 481.109375 389.394531 480.882812 C 389.945312 480.65625 390.46875 480.375 390.964844 480.046875 C 391.460938 479.714844 391.921875 479.339844 392.34375 478.917969 L 412.148438 459.058594 L 438.777344 485.703125 C 438.070312 487.542969 437.425781 489.40625 436.847656 491.289062 C 436.265625 493.171875 435.753906 495.074219 435.304688 496.996094 C 434.859375 498.914062 434.480469 500.847656 434.167969 502.792969 C 433.855469 504.738281 433.609375 506.695312 433.433594 508.65625 C 433.257812 510.621094 433.148438 512.585938 433.109375 514.558594 C 433.070312 516.527344 433.097656 518.5 433.195312 520.46875 C 433.292969 522.4375 433.457031 524.398438 433.691406 526.355469 C 433.925781 528.3125 434.226562 530.261719 434.597656 532.195312 C 434.964844 534.132812 435.402344 536.054688 435.902344 537.960938 C 436.40625 539.867188 436.972656 541.75 437.609375 543.617188 C 438.242188 545.484375 438.941406 547.328125 439.703125 549.144531 C 440.464844 550.960938 441.289062 552.75 442.175781 554.511719 C 443.0625 556.273438 444.007812 558 445.015625 559.695312 C 446.019531 561.390625 447.085938 563.046875 448.207031 564.667969 C 449.328125 566.289062 450.503906 567.867188 451.738281 569.40625 C 452.96875 570.945312 454.25 572.441406 455.585938 573.890625 C 456.921875 575.339844 458.308594 576.742188 459.742188 578.09375 C 461.171875 579.449219 462.652344 580.75 464.175781 582 C 465.699219 583.25 467.265625 584.449219 468.871094 585.589844 C 470.476562 586.730469 472.121094 587.816406 473.804688 588.84375 C 475.488281 589.871094 477.203125 590.835938 478.953125 591.746094 C 480.703125 592.652344 482.480469 593.5 484.289062 594.285156 C 486.097656 595.066406 487.929688 595.789062 489.789062 596.445312 C 491.648438 597.101562 493.527344 597.695312 495.425781 598.21875 C 497.324219 598.746094 499.242188 599.207031 501.171875 599.597656 C 503.105469 599.992188 505.046875 600.316406 507 600.574219 C 508.957031 600.832031 510.917969 601.023438 512.882812 601.144531 C 514.851562 601.265625 516.820312 601.316406 518.792969 601.300781 C 520.761719 601.285156 522.730469 601.203125 524.695312 601.050781 C 526.660156 600.898438 528.617188 600.675781 530.566406 600.390625 C 532.519531 600.101562 534.457031 599.746094 536.378906 599.320312 C 538.304688 598.898438 540.214844 598.410156 542.105469 597.851562 C 542.480469 597.742188 542.851562 597.605469 543.210938 597.449219 C 543.570312 597.289062 543.917969 597.109375 544.253906 596.90625 C 544.589844 596.703125 544.910156 596.480469 545.214844 596.234375 C 545.523438 595.988281 545.8125 595.726562 546.085938 595.441406 C 546.359375 595.160156 546.613281 594.859375 546.847656 594.546875 C 547.082031 594.230469 547.292969 593.902344 547.484375 593.558594 C 547.675781 593.214844 547.84375 592.863281 547.988281 592.496094 C 548.136719 592.132812 548.257812 591.761719 548.355469 591.378906 C 548.449219 591 548.523438 590.613281 548.570312 590.222656 C 548.617188 589.835938 548.640625 589.441406 548.636719 589.050781 C 548.632812 588.65625 548.605469 588.265625 548.550781 587.878906 C 548.496094 587.488281 548.417969 587.105469 548.316406 586.726562 C 548.210938 586.347656 548.082031 585.976562 547.933594 585.613281 C 547.78125 585.253906 547.605469 584.902344 547.410156 584.5625 C 547.210938 584.222656 546.992188 583.898438 546.753906 583.585938 C 546.515625 583.273438 546.257812 582.980469 545.980469 582.703125 L 508.691406 545.398438 L 514.148438 512.476562 L 547.035156 507.019531 L 584.339844 544.304688 C 584.617188 544.582031 584.910156 544.84375 585.222656 545.082031 C 585.53125 545.320312 585.859375 545.539062 586.195312 545.738281 C 586.535156 545.933594 586.886719 546.109375 587.25 546.261719 C 587.609375 546.410156 587.980469 546.539062 588.359375 546.644531 C 588.738281 546.746094 589.121094 546.828125 589.511719 546.882812 C 589.898438 546.933594 590.289062 546.964844 590.683594 546.96875 C 591.074219 546.972656 591.464844 546.949219 591.855469 546.902344 C 592.246094 546.855469 592.628906 546.785156 593.011719 546.6875 C 593.390625 546.589844 593.761719 546.46875 594.128906 546.324219 C 594.492188 546.179688 594.847656 546.011719 595.191406 545.820312 C 595.53125 545.628906 595.863281 545.417969 596.175781 545.183594 C 596.492188 544.949219 596.792969 544.699219 597.074219 544.425781 C 597.355469 544.152344 597.621094 543.863281 597.867188 543.558594 C 598.113281 543.25 598.335938 542.929688 598.539062 542.59375 C 598.742188 542.257812 598.925781 541.914062 599.085938 541.554688 C 599.242188 541.195312 599.378906 540.828125 599.488281 540.449219 C 600.046875 538.558594 600.539062 536.652344 600.964844 534.726562 C 601.390625 532.800781 601.75 530.859375 602.039062 528.910156 C 602.332031 526.960938 602.554688 525 602.710938 523.035156 C 602.863281 521.070312 602.949219 519.101562 602.96875 517.128906 C 602.984375 515.15625 602.933594 513.1875 602.8125 511.21875 C 602.695312 509.25 602.507812 507.285156 602.25 505.332031 C 601.992188 503.375 601.667969 501.433594 601.277344 499.5 C 600.886719 497.566406 600.425781 495.648438 599.902344 493.75 C 599.378906 491.847656 598.785156 489.96875 598.128906 488.109375 C 597.472656 486.246094 596.753906 484.414062 595.96875 482.601562 C 595.1875 480.792969 594.339844 479.011719 593.433594 477.261719 C 592.527344 475.511719 591.558594 473.792969 590.53125 472.109375 C 589.503906 470.425781 588.417969 468.78125 587.277344 467.175781 C 586.136719 465.566406 584.9375 464 583.6875 462.476562 C 582.4375 460.949219 581.132812 459.472656 579.78125 458.039062 C 578.425781 456.605469 577.023438 455.21875 575.574219 453.882812 C 574.125 452.546875 572.628906 451.261719 571.089844 450.03125 C 569.546875 448.796875 567.96875 447.621094 566.347656 446.496094 C 564.722656 445.375 563.066406 444.3125 561.371094 443.304688 C 559.671875 442.296875 557.945312 441.351562 556.183594 440.464844 C 554.421875 439.578125 552.628906 438.753906 550.8125 437.992188 C 548.992188 437.230469 547.148438 436.535156 545.28125 435.902344 C 543.414062 435.269531 541.527344 434.699219 539.617188 434.199219 C 537.710938 433.695312 535.789062 433.261719 533.851562 432.894531 C 531.914062 432.527344 529.964844 432.226562 528.007812 431.992188 C 526.050781 431.761719 524.085938 431.597656 522.117188 431.5 C 520.144531 431.40625 518.175781 431.378906 516.203125 431.417969 C 514.230469 431.460938 512.265625 431.570312 510.300781 431.75 C 508.335938 431.929688 506.378906 432.175781 504.433594 432.488281 C 502.488281 432.804688 500.554688 433.1875 498.632812 433.636719 C 496.710938 434.085938 494.808594 434.601562 492.925781 435.183594 C 491.042969 435.765625 489.179688 436.410156 487.339844 437.121094 L 415.460938 365.226562 L 496.34375 284.339844 Z M 385.59375 459.96875 C 384.179688 459.019531 382.699219 458.199219 381.144531 457.503906 C 379.589844 456.808594 377.988281 456.25 376.339844 455.828125 C 374.691406 455.402344 373.019531 455.125 371.324219 454.984375 C 369.628906 454.847656 367.933594 454.851562 366.238281 455.003906 C 364.542969 455.152344 362.871094 455.445312 361.226562 455.882812 C 359.582031 456.316406 357.984375 456.886719 356.433594 457.589844 C 354.886719 458.296875 353.410156 459.128906 352.003906 460.085938 C 350.59375 461.042969 349.28125 462.113281 348.054688 463.296875 C 347.453125 463.898438 346.878906 464.527344 346.328125 465.183594 C 345.78125 465.835938 345.265625 466.515625 344.777344 467.214844 C 344.285156 467.914062 343.828125 468.632812 343.402344 469.371094 C 342.976562 470.109375 342.582031 470.867188 342.222656 471.640625 C 341.863281 472.414062 341.535156 473.199219 341.246094 474 C 340.953125 474.800781 340.695312 475.613281 340.472656 476.4375 C 340.253906 477.261719 340.066406 478.09375 339.917969 478.933594 C 339.769531 479.773438 339.65625 480.621094 339.582031 481.46875 C 339.503906 482.320312 339.464844 483.171875 339.464844 484.023438 C 339.464844 484.875 339.5 485.726562 339.570312 486.578125 C 339.644531 487.429688 339.753906 488.273438 339.898438 489.113281 C 340.042969 489.953125 340.226562 490.785156 340.445312 491.613281 C 340.660156 492.4375 340.914062 493.25 341.203125 494.054688 C 341.492188 494.855469 341.816406 495.644531 342.171875 496.417969 C 342.53125 497.191406 342.921875 497.949219 343.34375 498.691406 C 343.765625 499.433594 344.222656 500.152344 344.707031 500.855469 L 278.519531 567.042969 C 277.382812 568.175781 276.199219 569.253906 274.96875 570.285156 C 273.738281 571.3125 272.460938 572.285156 271.144531 573.203125 C 269.828125 574.117188 268.472656 574.976562 267.082031 575.773438 C 265.691406 576.570312 264.265625 577.308594 262.808594 577.980469 C 261.351562 578.652344 259.867188 579.261719 258.359375 579.800781 C 256.847656 580.34375 255.316406 580.820312 253.765625 581.230469 C 252.214844 581.636719 250.648438 581.976562 249.066406 582.246094 C 247.484375 582.519531 245.894531 582.71875 244.292969 582.851562 C 242.695312 582.980469 241.09375 583.042969 239.488281 583.03125 C 237.882812 583.023438 236.28125 582.941406 234.683594 582.792969 C 233.085938 582.644531 231.5 582.421875 229.921875 582.132812 C 228.34375 581.84375 226.78125 581.484375 225.234375 581.058594 C 223.6875 580.632812 222.160156 580.140625 220.660156 579.578125 C 219.15625 579.019531 217.679688 578.390625 216.230469 577.703125 C 214.78125 577.011719 213.367188 576.261719 211.984375 575.445312 C 210.601562 574.632812 209.257812 573.757812 207.949219 572.824219 L 285.105469 495.652344 C 285.539062 495.234375 285.929688 494.773438 286.269531 494.277344 C 286.613281 493.78125 286.90625 493.253906 287.144531 492.699219 C 287.382812 492.144531 287.5625 491.574219 287.6875 490.980469 C 287.8125 490.390625 287.875 489.792969 287.878906 489.191406 C 287.886719 488.585938 287.832031 487.988281 287.71875 487.394531 C 287.605469 486.800781 287.433594 486.226562 287.203125 485.667969 C 286.976562 485.109375 286.695312 484.578125 286.359375 484.074219 C 286.023438 483.574219 285.644531 483.109375 285.21875 482.679688 C 284.789062 482.253906 284.324219 481.875 283.824219 481.539062 C 283.320312 481.203125 282.789062 480.921875 282.230469 480.695312 C 281.671875 480.464844 281.097656 480.292969 280.503906 480.179688 C 279.910156 480.066406 279.3125 480.011719 278.707031 480.019531 C 278.105469 480.023438 277.507812 480.085938 276.917969 480.210938 C 276.324219 480.335938 275.753906 480.515625 275.199219 480.753906 C 274.644531 480.992188 274.117188 481.285156 273.621094 481.628906 C 273.125 481.96875 272.664062 482.359375 272.246094 482.792969 L 195.074219 559.984375 C 194.132812 558.679688 193.253906 557.339844 192.433594 555.957031 C 191.613281 554.574219 190.855469 553.160156 190.160156 551.710938 C 189.464844 550.261719 188.832031 548.785156 188.269531 547.28125 C 187.703125 545.777344 187.207031 544.253906 186.773438 542.703125 C 186.34375 541.15625 185.984375 539.59375 185.691406 538.011719 C 185.398438 536.433594 185.175781 534.84375 185.023438 533.242188 C 184.875 531.644531 184.792969 530.039062 184.78125 528.433594 C 184.773438 526.828125 184.832031 525.222656 184.964844 523.621094 C 185.097656 522.019531 185.296875 520.425781 185.570312 518.84375 C 185.84375 517.261719 186.183594 515.691406 186.59375 514.136719 C 187.007812 512.585938 187.484375 511.050781 188.03125 509.542969 C 188.578125 508.03125 189.1875 506.546875 189.867188 505.089844 C 190.542969 503.632812 191.285156 502.207031 192.085938 500.816406 C 192.890625 499.425781 193.753906 498.070312 194.675781 496.753906 C 195.597656 495.441406 196.578125 494.167969 197.613281 492.9375 C 198.648438 491.710938 199.734375 490.527344 200.875 489.394531 L 267.0625 423.191406 C 267.761719 423.679688 268.480469 424.136719 269.222656 424.5625 C 269.960938 424.992188 270.71875 425.382812 271.492188 425.746094 C 272.265625 426.105469 273.054688 426.429688 273.859375 426.722656 C 274.660156 427.015625 275.472656 427.269531 276.296875 427.492188 C 277.125 427.710938 277.957031 427.894531 278.796875 428.042969 C 279.636719 428.191406 280.484375 428.304688 281.335938 428.378906 C 282.1875 428.453125 283.039062 428.488281 283.890625 428.488281 C 284.746094 428.488281 285.597656 428.449219 286.449219 428.375 C 287.300781 428.300781 288.144531 428.1875 288.984375 428.039062 C 289.828125 427.890625 290.660156 427.707031 291.484375 427.488281 C 292.308594 427.265625 293.121094 427.007812 293.925781 426.71875 C 294.726562 426.425781 295.515625 426.097656 296.289062 425.738281 C 297.0625 425.375 297.820312 424.984375 298.558594 424.554688 C 299.300781 424.128906 300.019531 423.671875 300.71875 423.179688 C 301.417969 422.691406 302.09375 422.171875 302.75 421.621094 C 303.402344 421.074219 304.03125 420.496094 304.636719 419.894531 C 305.242188 419.289062 305.816406 418.660156 306.367188 418.007812 C 306.914062 417.355469 307.433594 416.675781 307.925781 415.976562 C 308.414062 415.277344 308.875 414.558594 309.300781 413.820312 C 309.726562 413.082031 310.121094 412.324219 310.484375 411.550781 C 310.84375 410.777344 311.171875 409.988281 311.464844 409.1875 C 311.757812 408.382812 312.011719 407.570312 312.234375 406.746094 C 312.457031 405.921875 312.640625 405.089844 312.789062 404.246094 C 312.9375 403.40625 313.050781 402.5625 313.125 401.710938 C 313.199219 400.859375 313.238281 400.007812 313.238281 399.152344 C 313.238281 398.300781 313.203125 397.449219 313.128906 396.597656 C 313.054688 395.746094 312.945312 394.898438 312.796875 394.058594 C 312.648438 393.21875 312.464844 392.386719 312.246094 391.558594 C 312.027344 390.734375 311.769531 389.921875 311.480469 389.117188 C 311.1875 388.316406 310.863281 387.527344 310.5 386.753906 C 310.140625 385.980469 309.75 385.222656 309.320312 384.480469 C 308.894531 383.742188 308.4375 383.023438 307.949219 382.320312 L 321.71875 368.554688 L 380.03125 426.863281 L 399.417969 446.199219 Z M 489.359375 456.039062 C 490.648438 455.421875 491.960938 454.84375 493.289062 454.308594 C 494.617188 453.777344 495.960938 453.285156 497.320312 452.835938 C 498.679688 452.390625 500.050781 451.988281 501.4375 451.628906 C 502.824219 451.269531 504.21875 450.953125 505.625 450.683594 C 507.03125 450.414062 508.445312 450.191406 509.863281 450.011719 C 511.285156 449.832031 512.707031 449.699219 514.136719 449.613281 C 515.566406 449.527344 516.996094 449.484375 518.429688 449.488281 C 519.859375 449.492188 521.289062 449.542969 522.71875 449.640625 C 524.144531 449.738281 525.570312 449.878906 526.988281 450.070312 C 528.40625 450.257812 529.820312 450.492188 531.222656 450.769531 C 532.628906 451.050781 534.019531 451.375 535.402344 451.742188 C 536.789062 452.109375 538.15625 452.523438 539.515625 452.980469 C 540.871094 453.4375 542.210938 453.9375 543.535156 454.480469 C 544.859375 455.023438 546.164062 455.605469 547.453125 456.234375 C 548.738281 456.859375 550.003906 457.527344 551.25 458.238281 C 552.492188 458.945312 553.714844 459.691406 554.910156 460.480469 C 556.105469 461.265625 557.273438 462.089844 558.417969 462.953125 C 559.558594 463.816406 560.675781 464.710938 561.757812 465.644531 C 562.84375 466.578125 563.898438 467.546875 564.921875 468.546875 C 565.945312 469.550781 566.933594 470.582031 567.890625 471.648438 C 568.847656 472.710938 569.769531 473.808594 570.65625 474.929688 C 571.539062 476.054688 572.390625 477.207031 573.203125 478.386719 C 574.015625 479.566406 574.789062 480.769531 575.523438 481.996094 C 576.257812 483.226562 576.953125 484.476562 577.605469 485.75 C 578.261719 487.023438 578.871094 488.316406 579.445312 489.628906 C 580.015625 490.941406 580.542969 492.269531 581.03125 493.617188 C 581.515625 494.964844 581.957031 496.324219 582.355469 497.699219 C 582.753906 499.074219 583.105469 500.460938 583.414062 501.859375 C 583.726562 503.257812 583.988281 504.664062 584.207031 506.078125 C 584.425781 507.492188 584.597656 508.914062 584.726562 510.339844 C 584.851562 511.765625 584.933594 513.191406 584.96875 514.625 C 585.003906 516.054688 584.996094 517.484375 584.9375 518.914062 L 556.746094 490.761719 C 556.234375 490.246094 555.671875 489.800781 555.050781 489.425781 C 554.433594 489.046875 553.78125 488.746094 553.089844 488.527344 C 552.402344 488.304688 551.695312 488.167969 550.972656 488.113281 C 550.25 488.0625 549.53125 488.09375 548.816406 488.214844 L 504.910156 495.617188 C 503.976562 495.773438 503.085938 496.066406 502.242188 496.5 C 501.402344 496.933594 500.644531 497.484375 499.972656 498.15625 C 499.304688 498.828125 498.753906 499.582031 498.320312 500.425781 C 497.886719 501.269531 497.589844 502.15625 497.433594 503.089844 L 490.03125 547 C 489.914062 547.710938 489.878906 548.429688 489.933594 549.152344 C 489.984375 549.875 490.121094 550.582031 490.34375 551.273438 C 490.566406 551.960938 490.863281 552.617188 491.242188 553.234375 C 491.621094 553.851562 492.066406 554.417969 492.578125 554.929688 L 520.714844 583.121094 C 516.113281 583.261719 511.546875 582.9375 507.011719 582.152344 C 502.476562 581.367188 498.066406 580.136719 493.78125 578.457031 C 489.496094 576.777344 485.421875 574.6875 481.558594 572.183594 C 477.695312 569.679688 474.125 566.8125 470.84375 563.585938 C 469.632812 562.371094 468.472656 561.113281 467.359375 559.808594 C 466.25 558.507812 465.1875 557.164062 464.179688 555.777344 C 463.167969 554.394531 462.214844 552.972656 461.316406 551.515625 C 460.414062 550.058594 459.570312 548.566406 458.785156 547.042969 C 458 545.519531 457.273438 543.972656 456.609375 542.390625 C 455.941406 540.8125 455.335938 539.210938 454.792969 537.585938 C 454.25 535.960938 453.769531 534.320312 453.351562 532.65625 C 452.9375 530.996094 452.582031 529.320312 452.292969 527.632812 C 452.007812 525.941406 451.78125 524.246094 451.625 522.539062 C 451.464844 520.832031 451.375 519.125 451.347656 517.410156 C 451.320312 515.699219 451.359375 513.984375 451.464844 512.277344 C 451.570312 510.566406 451.738281 508.863281 451.976562 507.164062 C 452.210938 505.46875 452.511719 503.78125 452.875 502.109375 C 453.242188 500.433594 453.667969 498.777344 454.160156 497.136719 C 454.652344 495.496094 455.207031 493.875 455.824219 492.277344 C 456.441406 490.675781 457.121094 489.105469 457.855469 487.558594 C 458.257812 486.710938 458.519531 485.820312 458.644531 484.886719 C 458.769531 483.957031 458.75 483.03125 458.585938 482.105469 C 458.425781 481.179688 458.125 480.300781 457.691406 479.46875 C 457.253906 478.636719 456.703125 477.890625 456.039062 477.226562 L 290.726562 311.84375 C 290.0625 311.171875 289.316406 310.621094 288.480469 310.183594 C 287.648438 309.75 286.765625 309.449219 285.839844 309.285156 C 284.914062 309.125 283.984375 309.105469 283.050781 309.230469 C 282.117188 309.355469 281.226562 309.621094 280.375 310.023438 C 279.085938 310.640625 277.777344 311.21875 276.449219 311.75 C 275.121094 312.285156 273.777344 312.777344 272.417969 313.222656 C 271.058594 313.671875 269.6875 314.074219 268.300781 314.433594 C 266.914062 314.792969 265.519531 315.105469 264.113281 315.375 C 262.710938 315.644531 261.296875 315.871094 259.875 316.050781 C 258.457031 316.226562 257.03125 316.359375 255.605469 316.449219 C 254.175781 316.535156 252.746094 316.578125 251.316406 316.570312 C 249.882812 316.566406 248.453125 316.515625 247.027344 316.421875 C 245.597656 316.324219 244.175781 316.179688 242.757812 315.992188 C 241.339844 315.804688 239.925781 315.570312 238.523438 315.292969 C 237.121094 315.015625 235.726562 314.691406 234.34375 314.324219 C 232.960938 313.953125 231.589844 313.542969 230.234375 313.085938 C 228.878906 312.628906 227.539062 312.128906 226.214844 311.585938 C 224.890625 311.042969 223.585938 310.460938 222.296875 309.832031 C 221.011719 309.207031 219.746094 308.539062 218.5 307.832031 C 217.257812 307.125 216.039062 306.378906 214.84375 305.589844 C 213.648438 304.804688 212.476562 303.980469 211.335938 303.121094 C 210.191406 302.257812 209.078125 301.363281 207.992188 300.429688 C 206.90625 299.496094 205.851562 298.527344 204.832031 297.527344 C 203.808594 296.527344 202.816406 295.496094 201.859375 294.429688 C 200.902344 293.367188 199.984375 292.273438 199.097656 291.148438 C 198.210938 290.023438 197.359375 288.875 196.546875 287.695312 C 195.734375 286.515625 194.960938 285.316406 194.226562 284.085938 C 193.492188 282.859375 192.796875 281.609375 192.144531 280.335938 C 191.488281 279.0625 190.875 277.769531 190.304688 276.460938 C 189.730469 275.148438 189.203125 273.816406 188.71875 272.472656 C 188.230469 271.125 187.789062 269.765625 187.390625 268.390625 C 186.992188 267.015625 186.636719 265.632812 186.328125 264.234375 C 186.019531 262.835938 185.753906 261.429688 185.535156 260.015625 C 185.316406 258.601562 185.140625 257.183594 185.011719 255.757812 C 184.886719 254.332031 184.804688 252.90625 184.765625 251.472656 C 184.730469 250.042969 184.742188 248.613281 184.796875 247.183594 L 212.988281 275.339844 C 213.5 275.851562 214.066406 276.296875 214.683594 276.675781 C 215.300781 277.050781 215.957031 277.351562 216.644531 277.574219 C 217.335938 277.792969 218.039062 277.929688 218.761719 277.984375 C 219.484375 278.035156 220.203125 278.003906 220.917969 277.882812 L 264.824219 270.480469 C 265.757812 270.324219 266.644531 270.027344 267.484375 269.59375 C 268.328125 269.160156 269.082031 268.605469 269.75 267.9375 C 270.417969 267.265625 270.96875 266.511719 271.402344 265.667969 C 271.832031 264.828125 272.128906 263.941406 272.28125 263.007812 L 279.703125 219.101562 C 279.820312 218.386719 279.855469 217.667969 279.800781 216.945312 C 279.75 216.222656 279.613281 215.515625 279.390625 214.828125 C 279.167969 214.136719 278.871094 213.484375 278.492188 212.863281 C 278.113281 212.246094 277.667969 211.683594 277.15625 211.171875 L 249.019531 182.976562 C 253.617188 182.847656 258.183594 183.179688 262.71875 183.972656 C 267.25 184.765625 271.65625 186 275.941406 187.683594 C 280.222656 189.363281 284.296875 191.457031 288.15625 193.960938 C 292.019531 196.460938 295.589844 199.324219 298.875 202.550781 C 300.082031 203.761719 301.242188 205.019531 302.355469 206.324219 C 303.46875 207.625 304.53125 208.96875 305.539062 210.355469 C 306.550781 211.738281 307.503906 213.160156 308.40625 214.617188 C 309.304688 216.074219 310.148438 217.566406 310.933594 219.089844 C 311.722656 220.609375 312.449219 222.160156 313.113281 223.738281 C 313.78125 225.316406 314.386719 226.917969 314.929688 228.542969 C 315.472656 230.167969 315.953125 231.8125 316.371094 233.472656 C 316.789062 235.136719 317.144531 236.8125 317.433594 238.5 C 317.722656 240.1875 317.945312 241.886719 318.101562 243.59375 C 318.261719 245.296875 318.355469 247.007812 318.382812 248.722656 C 318.410156 250.433594 318.371094 252.144531 318.265625 253.855469 C 318.160156 255.566406 317.992188 257.269531 317.757812 258.96875 C 317.519531 260.664062 317.222656 262.351562 316.855469 264.023438 C 316.492188 265.699219 316.0625 267.355469 315.570312 268.996094 C 315.078125 270.640625 314.523438 272.257812 313.910156 273.859375 C 313.292969 275.457031 312.617188 277.027344 311.878906 278.574219 C 311.476562 279.425781 311.214844 280.316406 311.089844 281.246094 C 310.964844 282.175781 310.984375 283.105469 311.148438 284.03125 C 311.3125 284.953125 311.609375 285.832031 312.042969 286.664062 C 312.480469 287.496094 313.03125 288.246094 313.695312 288.90625 L 479.046875 454.257812 C 479.710938 454.917969 480.457031 455.464844 481.289062 455.894531 C 482.121094 456.324219 482.996094 456.621094 483.921875 456.78125 C 484.84375 456.9375 485.769531 456.957031 486.695312 456.828125 C 487.625 456.703125 488.511719 456.4375 489.359375 456.039062 Z M 501.835938 225.703125 L 540.777344 186.742188 L 581.171875 227.140625 L 542.214844 266.082031 L 501.835938 266.082031 Z M 501.835938 225.703125 " fill-opacity="1" fill-rule="nonzero"/></svg>