<svg xmlns="http://www.w3.org/2000/svg" xmlns:xlink="http://www.w3.org/1999/xlink" width="1024" zoomAndPan="magnify" viewBox="0 0 768 767.999994" height="1024" preserveAspectRatio="xMidYMid meet" version="1.0"><defs><clipPath id="f3c29ae53b"><path d="M 153.601562 192.191406 L 614 192.191406 L 614 575.441406 L 153.601562 575.441406 Z M 153.601562 192.191406 " clip-rule="nonzero"/></clipPath></defs><path fill="#100f0d" d="M 199.832031 498.792969 L 184.496094 498.792969 L 184.496094 544.78125 L 199.832031 544.78125 L 199.832031 498.792969 " fill-opacity="1" fill-rule="nonzero"/><path fill="#100f0d" d="M 230.503906 498.792969 L 215.167969 498.792969 L 215.167969 514.121094 L 230.503906 514.121094 L 230.503906 498.792969 " fill-opacity="1" fill-rule="nonzero"/><path fill="#100f0d" d="M 230.503906 529.453125 L 215.167969 529.453125 L 215.167969 544.78125 L 230.503906 544.78125 L 230.503906 529.453125 " fill-opacity="1" fill-rule="nonzero"/><path fill="#100f0d" d="M 383.851562 261.175781 C 425.976562 261.175781 452.855469 274.796875 452.855469 284.171875 C 452.855469 293.546875 425.976562 307.167969 383.851562 307.167969 C 341.722656 307.167969 314.84375 293.546875 314.84375 284.171875 C 314.84375 274.796875 341.722656 261.175781 383.851562 261.175781 Z M 326.785156 312.96875 C 342.152344 319.113281 362.417969 322.496094 383.851562 322.496094 C 405.285156 322.496094 425.550781 319.113281 440.914062 312.96875 C 458.507812 305.9375 468.191406 295.707031 468.191406 284.171875 C 468.191406 272.636719 458.507812 262.410156 440.914062 255.375 C 425.550781 249.230469 405.285156 245.847656 383.851562 245.847656 C 362.417969 245.847656 342.152344 249.230469 326.785156 255.375 C 309.195312 262.410156 299.507812 272.636719 299.507812 284.171875 C 299.507812 295.707031 309.195312 305.9375 326.785156 312.96875 " fill-opacity="1" fill-rule="nonzero"/><g clip-path="url(#f3c29ae53b)"><path fill="#100f0d" d="M 598.535156 514.121094 C 598.535156 539.484375 577.902344 560.113281 552.53125 560.113281 L 261.171875 560.113281 L 261.171875 483.460938 L 284.175781 483.460938 L 284.175781 498.792969 L 299.507812 498.792969 L 299.507812 483.460938 L 322.511719 483.460938 L 322.511719 498.792969 L 337.84375 498.792969 L 337.84375 483.460938 L 360.847656 483.460938 L 360.847656 529.453125 L 376.183594 529.453125 L 376.183594 483.460938 L 399.183594 483.460938 L 399.183594 498.792969 L 414.519531 498.792969 L 414.519531 483.460938 L 437.523438 483.460938 L 437.523438 498.792969 L 452.855469 498.792969 L 452.855469 483.460938 L 475.859375 483.460938 L 475.859375 529.453125 L 491.195312 529.453125 L 491.195312 483.460938 L 514.195312 483.460938 L 514.195312 498.792969 L 529.53125 498.792969 L 529.53125 483.460938 L 552.53125 483.460938 L 552.53125 498.792969 L 567.867188 498.792969 L 567.867188 481.523438 C 579.921875 478.410156 590.539062 471.707031 598.535156 462.636719 Z M 279.113281 444.386719 C 252.710938 429.867188 238.167969 411.078125 238.167969 391.480469 L 238.167969 323.839844 C 246.320312 333.71875 257.59375 342.742188 271.722656 350.507812 C 275.707031 352.695312 279.863281 354.753906 284.175781 356.679688 L 284.175781 391.480469 L 299.507812 391.480469 L 299.507812 362.75 C 306.863281 365.308594 314.550781 367.515625 322.511719 369.363281 L 322.511719 391.480469 L 337.84375 391.480469 L 337.84375 372.414062 C 345.339844 373.667969 353.027344 374.609375 360.847656 375.234375 L 360.847656 422.140625 L 376.183594 422.140625 L 376.183594 376.050781 C 378.726562 376.117188 381.285156 376.152344 383.851562 376.152344 L 399.183594 376.152344 L 399.183594 391.480469 L 414.519531 391.480469 L 414.519531 376.152344 L 437.523438 376.152344 L 437.523438 391.480469 L 452.855469 391.480469 L 452.855469 376.152344 L 475.859375 376.152344 L 475.859375 422.140625 L 491.195312 422.140625 L 491.195312 376.152344 L 514.195312 376.152344 L 514.195312 391.480469 L 529.53125 391.480469 L 529.53125 376.152344 L 552.53125 376.152344 L 552.53125 391.480469 L 567.867188 391.480469 L 567.867188 378.789062 C 585.714844 385.117188 598.535156 402.15625 598.535156 422.140625 C 598.535156 447.503906 577.902344 468.132812 552.53125 468.132812 L 383.851562 468.132812 C 344.160156 468.132812 306.960938 459.699219 279.113281 444.386719 Z M 279.113281 231.269531 C 306.960938 215.953125 344.160156 207.523438 383.851562 207.523438 C 423.539062 207.523438 460.738281 215.953125 488.585938 231.269531 C 514.988281 245.789062 529.53125 264.570312 529.53125 284.171875 C 529.53125 303.773438 514.988281 322.558594 488.585938 337.074219 C 460.738281 352.390625 423.539062 360.820312 383.851562 360.820312 C 344.160156 360.820312 306.960938 352.390625 279.113281 337.074219 C 252.710938 322.558594 238.167969 303.773438 238.167969 284.171875 C 238.167969 264.570312 252.710938 245.789062 279.113281 231.269531 Z M 529.53125 360.820312 L 473.476562 360.820312 C 481.441406 357.796875 488.976562 354.359375 495.976562 350.507812 C 510.105469 342.742188 521.378906 333.71875 529.53125 323.839844 Z M 245.835938 560.113281 L 169.164062 560.113281 L 169.164062 483.460938 L 245.835938 483.460938 Z M 552.53125 360.820312 L 544.863281 360.820312 L 544.863281 284.171875 C 544.863281 258.730469 527.503906 235.167969 495.976562 217.835938 C 465.898438 201.296875 426.082031 192.191406 383.851562 192.191406 C 341.621094 192.191406 301.800781 201.296875 271.722656 217.835938 C 240.195312 235.167969 222.835938 258.730469 222.835938 284.171875 L 222.835938 391.480469 C 222.835938 416.925781 240.195312 440.484375 271.722656 457.816406 C 278.722656 461.667969 286.257812 465.109375 294.222656 468.132812 L 161.496094 468.132812 C 157.261719 468.132812 153.828125 471.5625 153.828125 475.796875 L 153.828125 567.777344 C 153.828125 572.011719 157.261719 575.441406 161.496094 575.441406 L 552.53125 575.441406 C 586.355469 575.441406 613.871094 547.933594 613.871094 514.121094 L 613.871094 422.140625 C 613.871094 388.332031 586.355469 360.820312 552.53125 360.820312 " fill-opacity="1" fill-rule="nonzero"/></g></svg>