<svg xmlns="http://www.w3.org/2000/svg" width="1024" viewBox="0 0 768 768" height="1024" version="1.0"><defs><clipPath id="a"><path d="M153.602 192.191H614v383.25H153.602Zm0 0"/></clipPath></defs><path fill="#100f0d" d="M199.832 498.793h-15.336v45.988h15.336v-45.988M230.504 498.793h-15.336v15.328h15.336v-15.328M230.504 529.453h-15.336v15.328h15.336v-15.328M383.852 261.176c42.125 0 69.003 13.62 69.003 22.996 0 9.375-26.878 22.996-69.003 22.996-42.13 0-69.008-13.621-69.008-22.996 0-9.375 26.879-22.996 69.008-22.996Zm-57.067 51.793c15.367 6.144 35.633 9.527 57.067 9.527 21.433 0 41.699-3.383 57.062-9.527 17.594-7.031 27.277-17.262 27.277-28.797s-9.683-21.762-27.277-28.797c-15.363-6.145-35.629-9.527-57.062-9.527-21.434 0-41.7 3.382-57.067 9.527-17.59 7.035-27.277 17.262-27.277 28.797s9.687 21.765 27.277 28.797"/><g clip-path="url(#a)"><path fill="#100f0d" d="M598.535 514.121c0 25.363-20.633 45.992-46.004 45.992h-291.36v-76.652h23.005v15.332h15.332v-15.332h23.004v15.332h15.332v-15.332h23.004v45.992h15.336v-45.992h23v15.332h15.336v-15.332h23.003v15.332h15.332v-15.332h23.004v45.992h15.336v-45.992h23v15.332h15.336v-15.332h23v15.332h15.336v-17.27c12.055-3.113 22.672-9.816 30.668-18.886Zm-319.422-69.734c-26.402-14.52-40.945-33.309-40.945-52.907v-67.64c8.152 9.879 19.426 18.902 33.555 26.668a169.413 169.413 0 0 0 12.453 6.172v34.8h15.332v-28.73c7.355 2.559 15.043 4.766 23.004 6.613v22.117h15.332v-19.066a269.88 269.88 0 0 0 23.004 2.82v46.907h15.336v-46.09c2.543.066 5.101.101 7.668.101h15.332v15.328h15.336v-15.328h23.003v15.328h15.332v-15.328h23.004v45.989h15.336v-45.989h23v15.328h15.336v-15.328h23v15.328h15.336v-12.69c17.848 6.327 30.668 23.366 30.668 43.35 0 25.364-20.633 45.993-46.004 45.993h-168.68c-39.69 0-76.89-8.434-104.738-23.746Zm0-213.117c27.848-15.317 65.047-23.747 104.739-23.747 39.687 0 76.886 8.43 104.734 23.747 26.402 14.52 40.945 33.3 40.945 52.902 0 19.601-14.543 38.387-40.945 52.902-27.848 15.317-65.047 23.746-104.734 23.746-39.692 0-76.891-8.43-104.739-23.746-26.402-14.515-40.945-33.3-40.945-52.902 0-19.602 14.543-38.383 40.945-52.902Zm250.418 129.55h-56.054c7.964-3.023 15.5-6.46 22.5-10.312 14.128-7.766 25.402-16.79 33.554-26.668ZM245.836 560.113h-76.672v-76.652h76.672ZM552.53 360.82h-7.668v-76.648c0-25.442-17.36-49.004-48.886-66.336-30.079-16.54-69.895-25.645-112.125-25.645-42.23 0-82.051 9.106-112.13 25.645-31.527 17.332-48.886 40.894-48.886 66.336V391.48c0 25.446 17.36 49.004 48.887 66.336 7 3.852 14.535 7.293 22.5 10.317H161.496a7.665 7.665 0 0 0-7.668 7.664v91.98a7.665 7.665 0 0 0 7.668 7.664h391.035c33.824 0 61.34-27.507 61.34-61.32v-91.98c0-33.809-27.516-61.32-61.34-61.32"/></g></svg>