<svg xmlns="http://www.w3.org/2000/svg" width="1024" viewBox="0 0 768 768" height="1024" version="1.0"><defs><clipPath id="a"><path d="M157.344 154H610v460.102H157.344Zm0 0"/></clipPath><clipPath id="b"><path d="M157.344 192H173v16h-15.656Zm0 0"/></clipPath></defs><path d="M338.625 320.164c-62.336 0-113.047 50.715-113.047 113.05 0 62.34 50.711 113.056 113.047 113.056s113.047-50.715 113.047-113.055c0-62.336-50.711-113.05-113.047-113.05Zm55.34 193.824-7.356-12.746-13.054 7.54 7.336 12.69a97.218 97.218 0 0 1-34.715 9.34v-22.226h-15.074v22.226a96.993 96.993 0 0 1-34.711-9.34l7.332-12.69-13.055-7.54-7.356 12.746a98.849 98.849 0 0 1-25.433-25.437l12.742-7.356-7.535-13.054-12.691 7.336a97.218 97.218 0 0 1-9.34-34.715h22.203v-15.075h-22.223a96.929 96.929 0 0 1 9.336-34.714l12.691 7.332 7.54-13.051-12.747-7.36a98.788 98.788 0 0 1 25.438-25.433l7.355 12.742 13.051-7.535-7.332-12.691c10.664-5.125 22.352-8.391 34.715-9.34v22.21h15.07v-22.226a96.933 96.933 0 0 1 34.715 9.34l-7.332 12.691 13.05 7.536 7.356-12.743a98.803 98.803 0 0 1 25.438 25.438l-12.746 7.355 7.539 13.051 12.691-7.332a97.133 97.133 0 0 1 9.336 34.715h-22.21v15.074h22.226a96.929 96.929 0 0 1-9.336 34.715l-12.692-7.336-7.539 13.055 12.747 7.355a98.468 98.468 0 0 1-25.43 25.453Zm0 0"/><path d="M346.16 372.922h-15.07v60.293a7.527 7.527 0 0 0 3.652 6.46l37.684 22.61 7.754-12.926-34.02-20.41Zm0 0"/><g clip-path="url(#a)"><path d="M516.488 155.86a7.521 7.521 0 0 0-7.89-.715 7.548 7.548 0 0 0-4.168 6.746v30.148H218.04v15.074h293.925a7.53 7.53 0 0 0 7.535-7.539v-22.61l70.762 53.067L519.5 289v-29.129a7.53 7.53 0 0 0-7.535-7.539h-173.34c-99.73 0-180.879 81.148-180.879 180.883 0 99.734 81.149 180.887 180.879 180.887v-7.54l.156 7.54.93-.008V599.02l-1.117.007c-91.41-.015-165.774-74.39-165.774-165.812 0-91.43 74.38-165.809 165.805-165.809H504.43v37.684a7.528 7.528 0 0 0 4.34 6.82 7.518 7.518 0 0 0 8.02-1.031l90.437-75.367a7.56 7.56 0 0 0 2.707-5.985 7.524 7.524 0 0 0-3.016-5.836Zm0 0"/></g><path d="M415.813 596.848a187.377 187.377 0 0 0 13.898-7.325l-7.598-13.03a174.627 174.627 0 0 1-12.758 6.737ZM434.219 568.715l8.71 12.305a185.204 185.204 0 0 0 12.423-9.618l-9.73-11.507a173.493 173.493 0 0 1-11.403 8.82ZM498.867 475.973l14.559 3.89c1.351-5.027 2.48-10.199 3.386-15.363l-14.855-2.59a166.192 166.192 0 0 1-3.09 14.063ZM503.813 447.613l15.011 1.293c.453-5.199.676-10.48.676-15.691h-15.07c0 4.789-.203 9.625-.618 14.398ZM474.695 527.984l12.356 8.653a174.483 174.483 0 0 0 8.441-13.297l-13.07-7.504a159.579 159.579 0 0 1-7.727 12.148ZM489.047 503.05l13.672 6.348a183.08 183.08 0 0 0 6-14.53l-14.164-5.157a163.8 163.8 0 0 1-5.508 13.34ZM371.023 611.207l-2.691-14.84c-4.64.844-9.45 1.5-14.281 1.95l1.402 15.015a183.92 183.92 0 0 0 15.57-2.125ZM396.105 588.8a168.124 168.124 0 0 1-13.722 4.4l3.972 14.546a182.871 182.871 0 0 0 14.957-4.8ZM456.219 550.105l10.687 10.641a185.542 185.542 0 0 0 10.594-11.621l-11.566-9.668a169.519 169.519 0 0 1-9.715 10.648Zm0 0"/><g clip-path="url(#b)"><path d="M157.746 192.04h15.074v15.073h-15.074Zm0 0"/></g><path d="M187.895 192.04h15.07v15.073h-15.07Zm0 0"/></svg>