<svg xmlns="http://www.w3.org/2000/svg" xmlns:xlink="http://www.w3.org/1999/xlink" width="1024" zoomAndPan="magnify" viewBox="0 0 768 767.999994" height="1024" preserveAspectRatio="xMidYMid meet" version="1.0"><defs><clipPath id="3ce921fe27"><path d="M 157.34375 154 L 610 154 L 610 614.101562 L 157.34375 614.101562 Z M 157.34375 154 " clip-rule="nonzero"/></clipPath><clipPath id="6b87d71d49"><path d="M 157.34375 192 L 173 192 L 173 208 L 157.34375 208 Z M 157.34375 192 " clip-rule="nonzero"/></clipPath></defs><path fill="#000000" d="M 338.625 320.164062 C 276.289062 320.164062 225.578125 370.878906 225.578125 433.214844 C 225.578125 495.554688 276.289062 546.269531 338.625 546.269531 C 400.960938 546.269531 451.671875 495.554688 451.671875 433.214844 C 451.671875 370.878906 400.960938 320.164062 338.625 320.164062 Z M 393.964844 513.988281 L 386.609375 501.242188 L 373.554688 508.78125 L 380.890625 521.472656 C 370.226562 526.597656 358.535156 529.859375 346.175781 530.8125 L 346.175781 508.585938 L 331.101562 508.585938 L 331.101562 530.8125 C 318.742188 529.859375 307.046875 526.605469 296.390625 521.472656 L 303.722656 508.78125 L 290.667969 501.242188 L 283.3125 513.988281 C 273.359375 507.144531 264.730469 498.515625 257.878906 488.550781 L 270.621094 481.195312 L 263.085938 468.140625 L 250.394531 475.476562 C 245.269531 464.8125 242.007812 453.121094 241.054688 440.761719 L 263.257812 440.761719 L 263.257812 425.6875 L 241.035156 425.6875 C 241.984375 413.328125 245.238281 401.628906 250.371094 390.972656 L 263.0625 398.304688 L 270.601562 385.253906 L 257.855469 377.894531 C 264.699219 367.941406 273.328125 359.308594 283.292969 352.460938 L 290.648438 365.203125 L 303.699219 357.667969 L 296.367188 344.976562 C 307.03125 339.851562 318.71875 336.585938 331.082031 335.636719 L 331.082031 357.847656 L 346.152344 357.847656 L 346.152344 335.621094 C 358.511719 336.570312 370.210938 339.828125 380.867188 344.960938 L 373.535156 357.652344 L 386.585938 365.1875 L 393.941406 352.445312 C 403.898438 359.289062 412.527344 367.917969 419.378906 377.882812 L 406.632812 385.238281 L 414.171875 398.289062 L 426.863281 390.957031 C 431.988281 401.621094 435.25 413.3125 436.199219 425.671875 L 413.988281 425.671875 L 413.988281 440.746094 L 436.214844 440.746094 C 435.265625 453.105469 432.011719 464.804688 426.878906 475.460938 L 414.1875 468.125 L 406.648438 481.179688 L 419.394531 488.535156 C 412.550781 498.515625 403.921875 507.144531 393.964844 513.988281 Z M 393.964844 513.988281 " fill-opacity="1" fill-rule="nonzero"/><path fill="#000000" d="M 346.160156 372.921875 L 331.089844 372.921875 L 331.089844 433.214844 C 331.089844 435.871094 332.480469 438.320312 334.742188 439.675781 L 372.425781 462.285156 L 380.179688 449.359375 L 346.160156 428.949219 Z M 346.160156 372.921875 " fill-opacity="1" fill-rule="nonzero"/><g clip-path="url(#3ce921fe27)"><path fill="#000000" d="M 516.488281 155.859375 C 514.203125 154.136719 511.144531 153.871094 508.597656 155.144531 C 506.042969 156.425781 504.429688 159.035156 504.429688 161.890625 L 504.429688 192.039062 L 218.039062 192.039062 L 218.039062 207.113281 L 511.964844 207.113281 C 516.132812 207.113281 519.5 203.742188 519.5 199.574219 L 519.5 176.964844 L 590.261719 230.03125 L 519.5 289 L 519.5 259.871094 C 519.5 255.703125 516.132812 252.332031 511.964844 252.332031 L 338.625 252.332031 C 238.894531 252.332031 157.746094 333.480469 157.746094 433.214844 C 157.746094 532.949219 238.894531 614.101562 338.625 614.101562 L 338.625 606.5625 L 338.78125 614.101562 L 339.710938 614.09375 L 339.710938 599.019531 L 338.59375 599.027344 C 247.183594 599.011719 172.820312 524.636719 172.820312 433.214844 C 172.820312 341.785156 247.199219 267.40625 338.625 267.40625 L 504.429688 267.40625 L 504.429688 305.089844 C 504.429688 308.015625 506.125 310.675781 508.769531 311.910156 C 511.40625 313.15625 514.542969 312.753906 516.789062 310.878906 L 607.226562 235.511719 C 608.992188 234.03125 609.992188 231.832031 609.933594 229.527344 C 609.871094 227.21875 608.765625 225.070312 606.917969 223.691406 Z M 516.488281 155.859375 " fill-opacity="1" fill-rule="nonzero"/></g><path fill="#000000" d="M 415.8125 596.847656 C 420.578125 594.585938 425.25 592.121094 429.710938 589.523438 L 422.113281 576.492188 C 418.023438 578.878906 413.734375 581.140625 409.355469 583.230469 Z M 415.8125 596.847656 " fill-opacity="1" fill-rule="nonzero"/><path fill="#000000" d="M 434.21875 568.714844 L 442.929688 581.019531 C 447.179688 578.007812 451.363281 574.773438 455.351562 571.402344 L 445.621094 559.894531 C 441.964844 562.976562 438.128906 565.941406 434.21875 568.714844 Z M 434.21875 568.714844 " fill-opacity="1" fill-rule="nonzero"/><path fill="#000000" d="M 498.867188 475.972656 L 513.425781 479.863281 C 514.777344 474.835938 515.90625 469.664062 516.8125 464.5 L 501.957031 461.910156 C 501.128906 466.640625 500.09375 471.367188 498.867188 475.972656 Z M 498.867188 475.972656 " fill-opacity="1" fill-rule="nonzero"/><path fill="#000000" d="M 503.8125 447.613281 L 518.824219 448.90625 C 519.277344 443.707031 519.5 438.425781 519.5 433.214844 L 504.429688 433.214844 C 504.429688 438.003906 504.226562 442.839844 503.8125 447.613281 Z M 503.8125 447.613281 " fill-opacity="1" fill-rule="nonzero"/><path fill="#000000" d="M 474.695312 527.984375 L 487.050781 536.636719 C 490.019531 532.402344 492.859375 527.929688 495.492188 523.339844 L 482.421875 515.835938 C 480.011719 520.03125 477.410156 524.117188 474.695312 527.984375 Z M 474.695312 527.984375 " fill-opacity="1" fill-rule="nonzero"/><path fill="#000000" d="M 489.046875 503.050781 L 502.71875 509.398438 C 504.917969 504.648438 506.945312 499.765625 508.71875 494.867188 L 494.554688 489.710938 C 492.929688 494.203125 491.074219 498.695312 489.046875 503.050781 Z M 489.046875 503.050781 " fill-opacity="1" fill-rule="nonzero"/><path fill="#000000" d="M 371.023438 611.207031 L 368.332031 596.367188 C 363.691406 597.210938 358.882812 597.867188 354.050781 598.316406 L 355.453125 613.332031 C 360.714844 612.839844 365.953125 612.125 371.023438 611.207031 Z M 371.023438 611.207031 " fill-opacity="1" fill-rule="nonzero"/><path fill="#000000" d="M 396.105469 588.800781 C 391.589844 590.464844 386.980469 591.941406 382.382812 593.199219 L 386.355469 607.746094 C 391.371094 606.367188 396.40625 604.761719 401.3125 602.945312 Z M 396.105469 588.800781 " fill-opacity="1" fill-rule="nonzero"/><path fill="#000000" d="M 456.21875 550.105469 L 466.90625 560.746094 C 470.558594 557.070312 474.125 553.15625 477.5 549.125 L 465.933594 539.457031 C 462.835938 543.15625 459.570312 546.734375 456.21875 550.105469 Z M 456.21875 550.105469 " fill-opacity="1" fill-rule="nonzero"/><g clip-path="url(#6b87d71d49)"><path fill="#000000" d="M 157.746094 192.039062 L 172.820312 192.039062 L 172.820312 207.113281 L 157.746094 207.113281 Z M 157.746094 192.039062 " fill-opacity="1" fill-rule="nonzero"/></g><path fill="#000000" d="M 187.894531 192.039062 L 202.964844 192.039062 L 202.964844 207.113281 L 187.894531 207.113281 Z M 187.894531 192.039062 " fill-opacity="1" fill-rule="nonzero"/></svg>