<svg xmlns="http://www.w3.org/2000/svg" xmlns:xlink="http://www.w3.org/1999/xlink" width="1024" zoomAndPan="magnify" viewBox="0 0 768 767.999994" height="1024" preserveAspectRatio="xMidYMid meet" version="1.0"><defs><clipPath id="a37ef011e4"><path d="M 163.519531 203 L 550 203 L 550 492 L 163.519531 492 Z M 163.519531 203 " clip-rule="nonzero"/></clipPath><clipPath id="8cc9444912"><path d="M 558 281 L 604.519531 281 L 604.519531 297 L 558 297 Z M 558 281 " clip-rule="nonzero"/></clipPath><clipPath id="6a87b59b7f"><path d="M 456 147.875 L 471 147.875 L 471 195 L 456 195 Z M 456 147.875 " clip-rule="nonzero"/></clipPath><clipPath id="a22ce12e1f"><path d="M 274 555 L 325 555 L 325 620.375 L 274 620.375 Z M 274 555 " clip-rule="nonzero"/></clipPath><clipPath id="310eec6937"><path d="M 361 555 L 412 555 L 412 620.375 L 361 620.375 Z M 361 555 " clip-rule="nonzero"/></clipPath></defs><g clip-path="url(#a37ef011e4)"><path fill="#000000" d="M 549.011719 289.0625 C 549.011719 241.832031 510.628906 203.410156 463.453125 203.410156 C 421.875 203.410156 386.804688 232.816406 379.308594 273.558594 C 364.105469 258.832031 343.539062 250.09375 321.691406 250.09375 C 278.453125 250.09375 242.828125 283.273438 238.96875 325.507812 C 196.699219 329.421875 163.535156 365.011719 163.535156 408.320312 C 163.535156 454.148438 200.773438 491.449219 246.632812 491.449219 L 440.039062 491.449219 C 485.523438 491.074219 522.546875 453.824219 522.546875 408.320312 C 522.546875 391.355469 517.300781 375.339844 508.277344 361.9375 C 533.785156 346.195312 549.011719 318.960938 549.011719 289.0625 Z M 392.410156 289.0625 C 392.410156 288.023438 392.40625 286.984375 392.515625 285.804688 C 394.183594 247.808594 425.34375 218.042969 463.453125 218.042969 C 502.59375 218.042969 534.4375 249.902344 534.4375 289.0625 C 534.4375 313.976562 521.085938 337.390625 499.585938 350.164062 C 499.402344 350.273438 499.28125 350.429688 499.113281 350.554688 C 490.195312 341.304688 479.195312 334.054688 466.667969 329.742188 C 462.542969 304.660156 440.789062 285.792969 414.859375 285.792969 C 407.253906 285.792969 399.859375 287.453125 393 290.617188 C 392.792969 290.269531 392.570312 289.953125 392.359375 289.613281 C 392.367188 289.425781 392.410156 289.253906 392.410156 289.0625 Z M 439.984375 475.371094 L 246.632812 475.371094 C 246.578125 475.371094 246.578125 475.371094 246.523438 475.371094 C 209.613281 475.316406 179.609375 445.25 179.609375 408.320312 C 179.609375 371.335938 209.664062 341.214844 246.632812 341.214844 C 255.523438 341.214844 264.152344 342.929688 272.292969 346.304688 C 276.417969 348.019531 281.132812 346.089844 282.796875 341.960938 C 284.507812 337.890625 282.582031 333.171875 278.453125 331.457031 C 271.007812 328.347656 263.132812 326.417969 255.097656 325.5625 C 258.902344 292.167969 287.296875 266.171875 321.691406 266.171875 C 345.585938 266.171875 367.660156 279.039062 379.550781 299.457031 C 374.355469 304.175781 370.121094 309.964844 367.125 316.394531 C 365.300781 320.46875 367.070312 325.238281 371.085938 327.0625 C 375.105469 328.9375 379.875 327.167969 381.75 323.148438 C 382.714844 320.953125 383.945312 318.914062 385.390625 316.988281 C 387.375 314.144531 389.839844 311.625 392.625 309.484375 C 393.210938 309.054688 393.75 308.625 394.339844 308.25 C 400.445312 304.066406 407.519531 301.871094 414.859375 301.871094 C 434.199219 301.871094 450.164062 316.988281 451.234375 336.28125 C 451.449219 339.765625 453.804688 342.714844 457.128906 343.625 C 467.898438 346.574219 477.488281 352.09375 485.308594 359.4375 C 487.773438 361.738281 490.023438 364.207031 492.113281 366.886719 C 501.167969 378.410156 506.472656 392.882812 506.472656 408.316406 C 506.472656 444.980469 476.628906 475.105469 439.984375 475.371094 Z M 439.984375 475.371094 " fill-opacity="1" fill-rule="nonzero"/></g><g clip-path="url(#8cc9444912)"><path fill="#000000" d="M 597.265625 281.761719 L 565.703125 281.761719 C 561.683594 281.761719 558.410156 285.039062 558.410156 289.058594 C 558.410156 293.082031 561.683594 296.355469 565.703125 296.355469 L 597.265625 296.355469 C 601.289062 296.355469 604.558594 293.082031 604.558594 289.058594 C 604.558594 285.039062 601.289062 281.761719 597.265625 281.761719 Z M 597.265625 281.761719 " fill-opacity="1" fill-rule="nonzero"/></g><g clip-path="url(#6a87b59b7f)"><path fill="#000000" d="M 463.4375 194.042969 C 467.460938 194.042969 470.734375 190.765625 470.734375 186.746094 L 470.734375 155.171875 C 470.734375 151.148438 467.460938 147.875 463.4375 147.875 C 459.417969 147.875 456.144531 151.148438 456.144531 155.171875 L 456.144531 186.746094 C 456.144531 190.765625 459.417969 194.042969 463.4375 194.042969 Z M 463.4375 194.042969 " fill-opacity="1" fill-rule="nonzero"/></g><path fill="#000000" d="M 535.753906 224.011719 C 537.699219 224.011719 539.527344 223.25 540.90625 221.871094 L 563.226562 199.546875 C 564.605469 198.164062 565.363281 196.332031 565.363281 194.386719 C 565.363281 192.4375 564.605469 190.605469 563.226562 189.226562 C 560.46875 186.46875 555.671875 186.46875 552.914062 189.226562 L 530.597656 211.554688 C 527.753906 214.398438 527.753906 219.027344 530.597656 221.871094 C 531.976562 223.25 533.804688 224.011719 535.753906 224.011719 Z M 535.753906 224.011719 " fill-opacity="1" fill-rule="nonzero"/><path fill="#000000" d="M 540.90625 356.246094 C 538.152344 353.488281 533.351562 353.488281 530.597656 356.242188 C 529.21875 357.621094 528.457031 359.453125 528.457031 361.40625 C 528.457031 363.355469 529.21875 365.1875 530.597656 366.5625 L 552.910156 388.886719 C 554.285156 390.269531 556.117188 391.027344 558.070312 391.027344 C 560.019531 391.027344 561.851562 390.269531 563.226562 388.890625 C 564.605469 387.511719 565.363281 385.679688 565.363281 383.730469 C 565.363281 381.78125 564.605469 379.949219 563.226562 378.570312 Z M 540.90625 356.246094 " fill-opacity="1" fill-rule="nonzero"/><path fill="#000000" d="M 385.96875 221.875 C 387.351562 223.25 389.183594 224.011719 391.125 224.011719 C 393.070312 224.011719 394.898438 223.25 396.28125 221.871094 C 397.660156 220.492188 398.417969 218.660156 398.417969 216.714844 C 398.417969 214.765625 397.660156 212.933594 396.28125 211.554688 L 373.964844 189.226562 C 371.207031 186.46875 366.410156 186.46875 363.648438 189.226562 C 362.269531 190.605469 361.511719 192.4375 361.511719 194.386719 C 361.511719 196.332031 362.269531 198.164062 363.648438 199.546875 Z M 385.96875 221.875 " fill-opacity="1" fill-rule="nonzero"/><path fill="#000000" d="M 256.679688 565.691406 C 242.824219 565.691406 231.554688 554.417969 231.554688 540.558594 C 231.554688 528.328125 249.039062 506.496094 252.546875 502.242188 C 254.582031 499.773438 258.777344 499.769531 260.8125 502.242188 C 264.316406 506.496094 281.804688 528.328125 281.804688 540.558594 C 281.804688 554.417969 270.53125 565.691406 256.679688 565.691406 Z M 256.683594 514.324219 C 249.738281 523.554688 242.269531 535.414062 242.269531 540.558594 C 242.269531 548.507812 248.734375 554.972656 256.679688 554.972656 C 264.625 554.972656 271.089844 548.507812 271.089844 540.558594 C 271.089844 535.40625 263.621094 523.550781 256.683594 514.324219 Z M 256.683594 514.324219 " fill-opacity="1" fill-rule="nonzero"/><path fill="#000000" d="M 343.015625 565.691406 C 329.160156 565.691406 317.886719 554.417969 317.886719 540.558594 C 317.886719 528.328125 335.375 506.496094 338.882812 502.242188 C 340.917969 499.773438 345.113281 499.773438 347.148438 502.242188 C 350.652344 506.496094 368.140625 528.328125 368.140625 540.558594 C 368.140625 554.417969 356.867188 565.691406 343.015625 565.691406 Z M 343.015625 514.324219 C 336.070312 523.554688 328.601562 535.414062 328.601562 540.558594 C 328.601562 548.507812 335.066406 554.972656 343.015625 554.972656 C 350.960938 554.972656 357.425781 548.507812 357.425781 540.558594 C 357.425781 535.40625 349.957031 523.550781 343.015625 514.324219 Z M 343.015625 514.324219 " fill-opacity="1" fill-rule="nonzero"/><path fill="#000000" d="M 429.347656 565.691406 C 415.496094 565.691406 404.222656 554.417969 404.222656 540.558594 C 404.222656 528.328125 421.710938 506.496094 425.214844 502.242188 C 427.253906 499.773438 431.449219 499.773438 433.484375 502.242188 C 436.988281 506.496094 454.476562 528.328125 454.476562 540.558594 C 454.476562 554.417969 443.203125 565.691406 429.347656 565.691406 Z M 429.347656 514.324219 C 422.40625 523.554688 414.9375 535.414062 414.9375 540.558594 C 414.9375 548.507812 421.402344 554.972656 429.347656 554.972656 C 437.296875 554.972656 443.761719 548.507812 443.761719 540.558594 C 443.761719 535.40625 436.292969 523.550781 429.347656 514.324219 Z M 429.347656 514.324219 " fill-opacity="1" fill-rule="nonzero"/><g clip-path="url(#a22ce12e1f)"><path fill="#000000" d="M 299.847656 620.375 C 285.996094 620.375 274.722656 609.097656 274.722656 595.238281 C 274.722656 583.007812 292.210938 561.175781 295.714844 556.921875 C 297.75 554.453125 301.945312 554.453125 303.980469 556.921875 C 307.488281 561.175781 324.976562 583.007812 324.976562 595.238281 C 324.972656 609.097656 313.703125 620.375 299.847656 620.375 Z M 299.847656 569.007812 C 292.90625 578.234375 285.4375 590.097656 285.4375 595.238281 C 285.4375 603.1875 291.902344 609.65625 299.847656 609.65625 C 307.796875 609.65625 314.257812 603.1875 314.257812 595.238281 C 314.257812 590.09375 306.789062 578.234375 299.847656 569.007812 Z M 299.847656 569.007812 " fill-opacity="1" fill-rule="nonzero"/></g><g clip-path="url(#310eec6937)"><path fill="#000000" d="M 386.183594 620.375 C 372.328125 620.375 361.058594 609.097656 361.058594 595.238281 C 361.058594 583.007812 378.542969 561.175781 382.050781 556.921875 C 384.085938 554.453125 388.28125 554.453125 390.316406 556.921875 C 393.824219 561.175781 411.3125 583.007812 411.3125 595.238281 C 411.3125 609.097656 400.039062 620.375 386.183594 620.375 Z M 386.183594 569.007812 C 379.242188 578.234375 371.773438 590.097656 371.773438 595.238281 C 371.773438 603.1875 378.234375 609.65625 386.183594 609.65625 C 394.128906 609.65625 400.59375 603.1875 400.59375 595.238281 C 400.59375 590.09375 393.125 578.234375 386.183594 569.007812 Z M 386.183594 569.007812 " fill-opacity="1" fill-rule="nonzero"/></g></svg>