<svg xmlns="http://www.w3.org/2000/svg" width="1024" viewBox="0 0 768 768" height="1024" version="1.0"><defs><clipPath id="a"><path d="M163.52 203H550v289H163.52Zm0 0"/></clipPath><clipPath id="b"><path d="M558 281h46.52v16H558Zm0 0"/></clipPath><clipPath id="c"><path d="M456 147.875h15V195h-15Zm0 0"/></clipPath><clipPath id="d"><path d="M274 555h51v65.375h-51Zm0 0"/></clipPath><clipPath id="e"><path d="M361 555h51v65.375h-51Zm0 0"/></clipPath></defs><g clip-path="url(#a)"><path d="M549.012 289.063c0-47.231-38.383-85.653-85.559-85.653-41.578 0-76.648 29.406-84.144 70.149-15.204-14.727-35.77-23.465-57.618-23.465-43.238 0-78.863 33.18-82.722 75.414-42.27 3.914-75.434 39.504-75.434 82.812 0 45.828 37.238 83.13 83.098 83.13h193.406c45.484-.376 82.508-37.626 82.508-83.13 0-16.965-5.246-32.98-14.27-46.382 25.508-15.743 40.735-42.977 40.735-72.875Zm-156.602 0c0-1.04-.004-2.079.106-3.258 1.668-37.996 32.828-67.762 70.937-67.762 39.14 0 70.985 31.86 70.985 71.02 0 24.914-13.352 48.328-34.852 61.101-.184.11-.305.266-.473.39-8.918-9.25-19.918-16.5-32.445-20.812-4.125-25.082-25.879-43.949-51.809-43.949-7.605 0-15 1.66-21.859 4.824-.207-.347-.43-.664-.64-1.004.007-.187.05-.36.05-.55Zm47.574 186.308H246.523c-36.91-.055-66.914-30.121-66.914-67.05 0-36.985 30.055-67.106 67.024-67.106 8.89 0 17.52 1.715 25.66 5.09 4.125 1.715 8.84-.215 10.504-4.344 1.71-4.07-.215-8.79-4.344-10.504-7.445-3.11-15.32-5.039-23.355-5.894 3.804-33.395 32.199-59.391 66.593-59.391 23.895 0 45.97 12.867 57.86 33.285-5.196 4.719-9.43 10.508-12.426 16.938-1.824 4.074-.055 8.843 3.96 10.668 4.02 1.875 8.79.105 10.665-3.915.965-2.195 2.195-4.234 3.64-6.16 1.985-2.843 4.45-5.363 7.235-7.504.586-.43 1.125-.859 1.715-1.234 6.105-4.184 13.18-6.379 20.52-6.379 19.34 0 35.304 15.117 36.374 34.41.215 3.485 2.57 6.434 5.895 7.344 10.77 2.95 20.36 8.469 28.18 15.813a63.83 63.83 0 0 1 6.804 7.449c9.055 11.523 14.36 25.996 14.36 41.43 0 36.663-29.844 66.788-66.489 67.054Zm0 0"/></g><g clip-path="url(#b)"><path d="M597.266 281.762h-31.563c-4.02 0-7.293 3.277-7.293 7.297 0 4.023 3.274 7.296 7.293 7.296h31.563c4.023 0 7.293-3.273 7.293-7.296 0-4.02-3.27-7.297-7.293-7.297Zm0 0"/></g><g clip-path="url(#c)"><path d="M463.438 194.043c4.023 0 7.296-3.277 7.296-7.297v-31.574c0-4.024-3.273-7.297-7.296-7.297-4.02 0-7.293 3.273-7.293 7.297v31.574c0 4.02 3.273 7.297 7.293 7.297Zm0 0"/></g><path d="M535.754 224.012a7.24 7.24 0 0 0 5.152-2.14l22.32-22.325a7.261 7.261 0 0 0 2.137-5.16c0-1.95-.758-3.782-2.136-5.16-2.758-2.758-7.555-2.758-10.313 0l-22.316 22.328c-2.844 2.843-2.844 7.472 0 10.316a7.243 7.243 0 0 0 5.156 2.14ZM540.906 356.246c-2.754-2.758-7.554-2.758-10.308-.004a7.254 7.254 0 0 0-2.141 5.164c0 1.95.762 3.781 2.14 5.156l22.313 22.325a7.222 7.222 0 0 0 5.16 2.14c1.95 0 3.782-.757 5.157-2.136a7.248 7.248 0 0 0 2.136-5.16c0-1.95-.758-3.782-2.136-5.16ZM385.969 221.875a7.275 7.275 0 0 0 5.156 2.137 7.256 7.256 0 0 0 5.156-2.14 7.245 7.245 0 0 0 2.137-5.157c0-1.95-.758-3.781-2.137-5.16l-22.316-22.328c-2.758-2.758-7.555-2.758-10.317 0a7.248 7.248 0 0 0-2.136 5.16c0 1.945.758 3.777 2.136 5.16ZM256.68 565.691c-13.856 0-25.125-11.273-25.125-25.132 0-12.23 17.484-34.063 20.992-38.317 2.035-2.469 6.23-2.472 8.266 0 3.503 4.254 20.992 26.086 20.992 38.317 0 13.859-11.274 25.132-25.125 25.132Zm.004-51.367c-6.946 9.23-14.414 21.09-14.414 26.235 0 7.949 6.464 14.414 14.41 14.414 7.945 0 14.41-6.465 14.41-14.414 0-5.153-7.469-17.008-14.406-26.235ZM343.016 565.691c-13.856 0-25.13-11.273-25.13-25.132 0-12.23 17.489-34.063 20.997-38.317 2.035-2.469 6.23-2.469 8.265 0 3.504 4.254 20.993 26.086 20.993 38.317 0 13.859-11.274 25.132-25.125 25.132Zm0-51.367c-6.946 9.23-14.414 21.09-14.414 26.235 0 7.949 6.464 14.414 14.414 14.414 7.945 0 14.41-6.465 14.41-14.414 0-5.153-7.469-17.008-14.41-26.235ZM429.348 565.691c-13.852 0-25.125-11.273-25.125-25.132 0-12.23 17.488-34.063 20.992-38.317 2.039-2.469 6.234-2.469 8.27 0 3.503 4.254 20.992 26.086 20.992 38.317 0 13.859-11.274 25.132-25.13 25.132Zm0-51.367c-6.942 9.23-14.41 21.09-14.41 26.235 0 7.949 6.464 14.414 14.41 14.414 7.949 0 14.414-6.465 14.414-14.414 0-5.153-7.469-17.008-14.414-26.235Zm0 0"/><g clip-path="url(#d)"><path d="M299.848 620.375c-13.852 0-25.125-11.277-25.125-25.137 0-12.23 17.488-34.062 20.992-38.316 2.035-2.469 6.23-2.469 8.265 0 3.508 4.254 20.997 26.086 20.997 38.316-.004 13.86-11.274 25.137-25.13 25.137Zm0-51.367c-6.942 9.226-14.41 21.09-14.41 26.23 0 7.95 6.464 14.418 14.41 14.418 7.949 0 14.41-6.468 14.41-14.418 0-5.144-7.469-17.004-14.41-26.23Zm0 0"/></g><g clip-path="url(#e)"><path d="M386.184 620.375c-13.856 0-25.125-11.277-25.125-25.137 0-12.23 17.484-34.062 20.992-38.316 2.035-2.469 6.23-2.469 8.265 0 3.508 4.254 20.997 26.086 20.997 38.316 0 13.86-11.274 25.137-25.13 25.137Zm0-51.367c-6.942 9.226-14.41 21.09-14.41 26.23 0 7.95 6.46 14.418 14.41 14.418 7.945 0 14.41-6.468 14.41-14.418 0-5.144-7.469-17.004-14.41-26.23Zm0 0"/></g></svg>