<svg xmlns="http://www.w3.org/2000/svg" width="1024" viewBox="0 0 768 768" height="1024" version="1.0"><defs><clipPath id="a"><path d="M160.883 204.27H606.93v358.882H160.883Zm0 0"/></clipPath></defs><g clip-path="url(#a)"><path fill="#040606" d="M567.898 477.332c4.813 0 8.739 3.898 8.739 8.738 0 4.813-3.926 8.739-8.77 8.739-4.808 0-8.738-3.926-8.738-8.739 0-4.84 3.93-8.738 8.77-8.738ZM452.594 478.5c4.808 0 8.738 3.926 8.738 8.738 0 4.809-3.93 8.739-8.738 8.739-4.84 0-8.742-3.93-8.742-8.739a8.741 8.741 0 0 1 8.742-8.738Zm139.02 52.746c4.812 0 8.741 3.899 8.741 8.738 0 4.809-3.93 8.739-8.742 8.739-4.84 0-8.77-3.93-8.77-8.739 0-4.84 3.93-8.738 8.77-8.738Zm-248.29-170.308H231.262v-64.243c0-30.886 25.14-56.02 56.031-56.02 30.89 0 56.031 25.134 56.031 56.02Zm-32.402 168.058h-47.715l12.07-82.664c-7.886-4.21-13.265-12.523-13.265-22.086 0-13.836 11.215-25.05 25.054-25.05 13.836 0 25.051 11.214 25.051 25.05 0 9.563-5.351 17.875-13.238 22.086Zm252.363-310.324c4.813 0 8.742 3.926 8.742 8.738 0 4.84-3.93 8.766-8.742 8.766-4.84 0-8.77-3.926-8.77-8.766 0-4.812 3.93-8.738 8.77-8.738Zm-91.59 72.812c4.813 0 8.743 3.93 8.743 8.766 0 4.813-3.93 8.742-8.743 8.742-4.812 0-8.738-3.93-8.738-8.742 0-4.836 3.926-8.766 8.738-8.766Zm86.977 26.73c4.812 0 8.742 3.927 8.742 8.74 0 4.835-3.93 8.737-8.742 8.737-4.84 0-8.77-3.902-8.77-8.738 0-4.812 3.93-8.738 8.77-8.738Zm32.941 54.224c4.813 0 8.742 3.93 8.742 8.738 0 4.84-3.93 8.77-8.742 8.77-4.84 0-8.77-3.93-8.77-8.77 0-4.809 3.93-8.738 8.77-8.738Zm-54.035 26.046c4.809 0 8.738 3.93 8.738 8.766 0 4.813-3.93 8.738-8.738 8.738-4.812 0-8.742-3.925-8.742-8.738 0-4.836 3.93-8.766 8.742-8.766Zm-84.984 0c4.808 0 8.738 3.93 8.738 8.766 0 4.813-3.93 8.738-8.738 8.738a8.741 8.741 0 0 1-8.742-8.738c0-4.836 3.902-8.766 8.742-8.766Zm139.02 26.586c4.812 0 8.741 3.93 8.741 8.739 0 4.812-3.93 8.738-8.742 8.738-4.84 0-8.77-3.926-8.77-8.738 0-4.809 3.93-8.739 8.77-8.739Zm-14.977 12.04c1.511 6.863 7.633 12.042 14.976 12.042 8.457 0 15.317-6.89 15.317-15.343 0-8.454-6.86-15.344-15.317-15.344-7.343 0-13.465 5.183-14.976 12.043H413.73v-20.125h23.86c1.45 6.945 7.629 12.183 15.004 12.183 8.453 0 15.344-6.859 15.344-15.316 0-8.453-6.891-15.34-15.344-15.34-7.29 0-13.383 5.094-14.95 11.899H413.73v-20.125h66.477l26.879 26.84h15.516c1.507 6.89 7.656 12.042 14.976 12.042 8.453 0 15.344-6.859 15.344-15.316 0-8.453-6.89-15.34-15.344-15.34-7.32 0-13.469 5.152-14.976 12.04h-12.786l-26.875-26.872h-70.093c-2.703-9.308-11.305-16.14-21.496-16.14h-11.586v-3.985H511.84l27.531 27.527h37.266c1.511 6.887 7.633 12.04 14.976 12.04 8.457 0 15.317-6.887 15.317-15.344 0-8.453-6.86-15.313-15.317-15.313-7.343 0-13.465 5.153-14.976 12.04h-34.535l-27.528-27.524H379.766v-20.125h163.933c1.508 6.86 7.63 12.039 14.973 12.039 8.457 0 15.316-6.887 15.316-15.34 0-8.457-6.86-15.344-15.316-15.344-7.344 0-13.465 5.18-14.973 12.04H379.766v-20.126h76.953c1.511 6.891 7.66 12.043 14.976 12.043 8.457 0 15.348-6.859 15.348-15.316 0-8.453-6.89-15.34-15.348-15.34-7.316 0-13.465 5.152-14.976 12.04h-76.953v-.255c0-6.804-.743-13.465-2.137-19.87h95.433l46.122-46.114h29.125c1.511 6.89 7.632 12.043 14.976 12.043 8.457 0 15.317-6.89 15.317-15.344 0-8.453-6.86-15.312-15.317-15.312-7.344 0-13.465 5.152-14.976 12.039h-31.856l-46.125 46.086h-94.406c-11.418-38.118-46.836-65.985-88.629-65.985-50.992 0-92.473 41.477-92.473 92.457v64.243h-11.586c-12.328 0-22.351 9.992-22.351 22.347V540.81c0 12.324 10.023 22.343 22.351 22.343h208.118c12.355 0 22.378-10.02 22.378-22.343v-23.57h117.868l26.05 26.046h18.989c1.511 6.86 7.633 12.04 14.976 12.04 8.457 0 15.317-6.888 15.317-15.34 0-8.458-6.86-15.344-15.317-15.344-7.343 0-13.465 5.18-14.976 12.039h-16.285l-26.02-26.016H413.73V490.54h23.887c1.508 6.86 7.656 12.043 14.977 12.043 8.453 0 15.344-6.89 15.344-15.344 0-8.453-6.891-15.343-15.344-15.343-7.32 0-13.469 5.18-14.977 12.043H413.73v-20.125h56.598l25.54 25.558h57.027c1.535 6.863 7.656 12.043 14.972 12.043 8.485 0 15.348-6.89 15.348-15.344 0-8.453-6.863-15.343-15.317-15.343-7.347 0-13.468 5.183-15.003 12.043h-54.293l-25.54-25.536H413.73V437.11h162.907"/></g></svg>