<svg xmlns="http://www.w3.org/2000/svg" xmlns:xlink="http://www.w3.org/1999/xlink" width="1024" zoomAndPan="magnify" viewBox="0 0 768 767.999994" height="1024" preserveAspectRatio="xMidYMid meet" version="1.0"><defs><clipPath id="df2421e18f"><path d="M 160.882812 204.269531 L 606.929688 204.269531 L 606.929688 563.152344 L 160.882812 563.152344 Z M 160.882812 204.269531 " clip-rule="nonzero"/></clipPath></defs><g clip-path="url(#df2421e18f)"><path fill="#040606" d="M 567.898438 477.332031 C 572.710938 477.332031 576.636719 481.230469 576.636719 486.070312 C 576.636719 490.882812 572.710938 494.808594 567.867188 494.808594 C 563.058594 494.808594 559.128906 490.882812 559.128906 486.070312 C 559.128906 481.230469 563.058594 477.332031 567.898438 477.332031 Z M 452.59375 478.5 C 457.402344 478.5 461.332031 482.425781 461.332031 487.238281 C 461.332031 492.046875 457.402344 495.976562 452.59375 495.976562 C 447.753906 495.976562 443.851562 492.046875 443.851562 487.238281 C 443.851562 482.425781 447.753906 478.5 452.59375 478.5 Z M 591.613281 531.246094 C 596.425781 531.246094 600.355469 535.144531 600.355469 539.984375 C 600.355469 544.792969 596.425781 548.722656 591.613281 548.722656 C 586.773438 548.722656 582.84375 544.792969 582.84375 539.984375 C 582.84375 535.144531 586.773438 531.246094 591.613281 531.246094 Z M 343.324219 360.9375 L 231.261719 360.9375 L 231.261719 296.695312 C 231.261719 265.808594 256.402344 240.675781 287.292969 240.675781 C 318.183594 240.675781 343.324219 265.808594 343.324219 296.695312 Z M 310.921875 528.996094 L 263.207031 528.996094 L 275.277344 446.332031 C 267.390625 442.121094 262.011719 433.808594 262.011719 424.246094 C 262.011719 410.410156 273.226562 399.195312 287.066406 399.195312 C 300.902344 399.195312 312.117188 410.410156 312.117188 424.246094 C 312.117188 433.808594 306.765625 442.121094 298.878906 446.332031 Z M 563.285156 218.671875 C 568.097656 218.671875 572.027344 222.597656 572.027344 227.410156 C 572.027344 232.25 568.097656 236.175781 563.285156 236.175781 C 558.445312 236.175781 554.515625 232.25 554.515625 227.410156 C 554.515625 222.597656 558.445312 218.671875 563.285156 218.671875 Z M 471.695312 291.484375 C 476.507812 291.484375 480.4375 295.414062 480.4375 300.25 C 480.4375 305.0625 476.507812 308.992188 471.695312 308.992188 C 466.882812 308.992188 462.957031 305.0625 462.957031 300.25 C 462.957031 295.414062 466.882812 291.484375 471.695312 291.484375 Z M 558.671875 318.214844 C 563.484375 318.214844 567.414062 322.140625 567.414062 326.953125 C 567.414062 331.789062 563.484375 335.691406 558.671875 335.691406 C 553.832031 335.691406 549.902344 331.789062 549.902344 326.953125 C 549.902344 322.140625 553.832031 318.214844 558.671875 318.214844 Z M 591.613281 372.4375 C 596.425781 372.4375 600.355469 376.367188 600.355469 381.175781 C 600.355469 386.015625 596.425781 389.945312 591.613281 389.945312 C 586.773438 389.945312 582.84375 386.015625 582.84375 381.175781 C 582.84375 376.367188 586.773438 372.4375 591.613281 372.4375 Z M 537.578125 398.484375 C 542.386719 398.484375 546.316406 402.414062 546.316406 407.25 C 546.316406 412.0625 542.386719 415.988281 537.578125 415.988281 C 532.765625 415.988281 528.835938 412.0625 528.835938 407.25 C 528.835938 402.414062 532.765625 398.484375 537.578125 398.484375 Z M 452.59375 398.484375 C 457.402344 398.484375 461.332031 402.414062 461.332031 407.25 C 461.332031 412.0625 457.402344 415.988281 452.59375 415.988281 C 447.753906 415.988281 443.851562 412.0625 443.851562 407.25 C 443.851562 402.414062 447.753906 398.484375 452.59375 398.484375 Z M 591.613281 425.070312 C 596.425781 425.070312 600.355469 429 600.355469 433.808594 C 600.355469 438.621094 596.425781 442.546875 591.613281 442.546875 C 586.773438 442.546875 582.84375 438.621094 582.84375 433.808594 C 582.84375 429 586.773438 425.070312 591.613281 425.070312 Z M 576.636719 437.109375 C 578.148438 443.972656 584.269531 449.152344 591.613281 449.152344 C 600.070312 449.152344 606.929688 442.261719 606.929688 433.808594 C 606.929688 425.355469 600.070312 418.464844 591.613281 418.464844 C 584.269531 418.464844 578.148438 423.648438 576.636719 430.507812 L 413.730469 430.507812 L 413.730469 410.382812 L 437.589844 410.382812 C 439.039062 417.328125 445.21875 422.566406 452.59375 422.566406 C 461.046875 422.566406 467.9375 415.707031 467.9375 407.25 C 467.9375 398.796875 461.046875 391.910156 452.59375 391.910156 C 445.304688 391.910156 439.210938 397.003906 437.644531 403.808594 L 413.730469 403.808594 L 413.730469 383.683594 L 480.207031 383.683594 L 507.085938 410.523438 L 522.601562 410.523438 C 524.109375 417.414062 530.257812 422.566406 537.578125 422.566406 C 546.03125 422.566406 552.921875 415.707031 552.921875 407.25 C 552.921875 398.796875 546.03125 391.910156 537.578125 391.910156 C 530.257812 391.910156 524.109375 397.0625 522.601562 403.949219 L 509.816406 403.949219 L 482.941406 377.078125 L 412.847656 377.078125 C 410.144531 367.769531 401.542969 360.9375 391.351562 360.9375 L 379.765625 360.9375 L 379.765625 356.953125 L 511.839844 356.953125 L 539.371094 384.480469 L 576.636719 384.480469 C 578.148438 391.367188 584.269531 396.519531 591.613281 396.519531 C 600.070312 396.519531 606.929688 389.632812 606.929688 381.175781 C 606.929688 372.722656 600.070312 365.863281 591.613281 365.863281 C 584.269531 365.863281 578.148438 371.015625 576.636719 377.902344 L 542.101562 377.902344 L 514.574219 350.378906 L 379.765625 350.378906 L 379.765625 330.253906 L 543.699219 330.253906 C 545.207031 337.113281 551.328125 342.292969 558.671875 342.292969 C 567.128906 342.292969 573.988281 335.40625 573.988281 326.953125 C 573.988281 318.496094 567.128906 311.609375 558.671875 311.609375 C 551.328125 311.609375 545.207031 316.789062 543.699219 323.648438 L 379.765625 323.648438 L 379.765625 303.523438 L 456.71875 303.523438 C 458.230469 310.414062 464.378906 315.566406 471.695312 315.566406 C 480.152344 315.566406 487.042969 308.707031 487.042969 300.25 C 487.042969 291.796875 480.152344 284.910156 471.695312 284.910156 C 464.378906 284.910156 458.230469 290.0625 456.71875 296.949219 L 379.765625 296.949219 L 379.765625 296.695312 C 379.765625 289.890625 379.023438 283.230469 377.628906 276.824219 L 473.0625 276.824219 L 519.183594 230.710938 L 548.308594 230.710938 C 549.820312 237.601562 555.941406 242.753906 563.285156 242.753906 C 571.742188 242.753906 578.601562 235.863281 578.601562 227.410156 C 578.601562 218.957031 571.742188 212.097656 563.285156 212.097656 C 555.941406 212.097656 549.820312 217.25 548.308594 224.136719 L 516.453125 224.136719 L 470.328125 270.222656 L 375.921875 270.222656 C 364.503906 232.105469 329.085938 204.238281 287.292969 204.238281 C 236.300781 204.238281 194.820312 245.714844 194.820312 296.695312 L 194.820312 360.9375 L 183.234375 360.9375 C 170.90625 360.9375 160.882812 370.929688 160.882812 383.285156 L 160.882812 540.808594 C 160.882812 553.132812 170.90625 563.152344 183.234375 563.152344 L 391.351562 563.152344 C 403.707031 563.152344 413.730469 553.132812 413.730469 540.808594 L 413.730469 517.238281 L 531.597656 517.238281 L 557.648438 543.285156 L 576.636719 543.285156 C 578.148438 550.144531 584.269531 555.324219 591.613281 555.324219 C 600.070312 555.324219 606.929688 548.4375 606.929688 539.984375 C 606.929688 531.527344 600.070312 524.640625 591.613281 524.640625 C 584.269531 524.640625 578.148438 529.820312 576.636719 536.679688 L 560.351562 536.679688 L 534.332031 510.664062 L 413.730469 510.664062 L 413.730469 490.539062 L 437.617188 490.539062 C 439.125 497.398438 445.273438 502.582031 452.59375 502.582031 C 461.046875 502.582031 467.9375 495.691406 467.9375 487.238281 C 467.9375 478.785156 461.046875 471.894531 452.59375 471.894531 C 445.273438 471.894531 439.125 477.074219 437.617188 483.9375 L 413.730469 483.9375 L 413.730469 463.8125 L 470.328125 463.8125 L 495.867188 489.371094 L 552.894531 489.371094 C 554.429688 496.234375 560.550781 501.414062 567.867188 501.414062 C 576.351562 501.414062 583.214844 494.523438 583.214844 486.070312 C 583.214844 477.617188 576.351562 470.726562 567.898438 470.726562 C 560.550781 470.726562 554.429688 475.910156 552.894531 482.769531 L 498.601562 482.769531 L 473.0625 457.234375 L 413.730469 457.234375 L 413.730469 437.109375 L 576.636719 437.109375 " fill-opacity="1" fill-rule="nonzero"/></g></svg>